<svg width="18" height="14" viewBox="0 0 18 14" fill="none" xmlns="http://www.w3.org/2000/svg">
<path d="M16.778 0.333344H1.22244C0.927754 0.333344 0.645139 0.450407 0.436765 0.65878C0.228391 0.867154 0.111328 1.14977 0.111328 1.44445V12.5556C0.111328 12.8503 0.228391 13.1329 0.436765 13.3412C0.645139 13.5496 0.927754 13.6667 1.22244 13.6667H16.778C17.0727 13.6667 17.3553 13.5496 17.5637 13.3412C17.772 13.1329 17.8891 12.8503 17.8891 12.5556V1.44445C17.8891 1.14977 17.772 0.867154 17.5637 0.65878C17.3553 0.450407 17.0727 0.333344 16.778 0.333344ZM15.9224 12.5556H2.14466L6.03355 8.53334L5.23355 7.76112L1.22244 11.9111V2.2889L8.128 9.16112C8.33618 9.36807 8.61779 9.48422 8.91133 9.48422C9.20487 9.48422 9.48648 9.36807 9.69466 9.16112L16.778 2.11668V11.8389L12.6891 7.75001L11.9058 8.53334L15.9224 12.5556ZM1.95022 1.44445H15.878L8.91133 8.37223L1.95022 1.44445Z" fill="white"/>
</svg>
