<svg width="11" height="19" viewBox="0 0 11 19" fill="none" xmlns="http://www.w3.org/2000/svg">
<path d="M3.40786 17.4712C1.44699 15.1273 0.497523 12.1 0.767669 9.05295C1.03781 6.00594 2.50552 3.18803 4.84893 1.21719C5.54995 0.62917 6.45538 0.343159 7.36605 0.422078C8.27671 0.500996 9.11801 0.93838 9.70486 1.63801C9.83026 1.78521 9.94085 1.94441 10.035 2.11332C10.1322 2.27149 10.2135 2.43885 10.2779 2.61297C10.3238 2.73494 10.3371 2.86683 10.3163 2.99561C10.2956 3.12438 10.2416 3.24558 10.1597 3.34722L7.37103 7.02478C7.29522 7.12446 7.19567 7.20361 7.08148 7.25502C6.9673 7.30644 6.8421 7.32847 6.71733 7.31911C6.57435 7.31204 6.56379 7.31112 5.60438 6.91423C4.83655 8.52059 4.67075 10.3481 5.13717 12.0639C6.16235 11.839 6.17291 11.8399 6.31495 11.8576C6.43947 11.8698 6.55888 11.913 6.66228 11.9833C6.76568 12.0536 6.84977 12.1486 6.9069 12.2598L9.00587 16.361C9.06335 16.4742 9.09102 16.6003 9.08627 16.7274C9.08152 16.8544 9.04451 16.9782 8.97872 17.0872C8.88293 17.25 8.77316 17.4041 8.65065 17.548C8.5256 17.6922 8.38922 17.8262 8.24281 17.9487C7.53592 18.5236 6.63076 18.7961 5.72491 18.7066C4.81906 18.6172 3.9861 18.173 3.40786 17.4712ZM8.55565 2.60198C8.22283 2.20827 7.74756 1.96234 7.23344 1.91779C6.71932 1.87323 6.20802 2.03367 5.81099 2.36413C3.77064 4.07818 2.49259 6.53032 2.25748 9.18205C2.02238 11.8338 2.84945 14.4684 4.55708 16.5072C4.8899 16.9009 5.36517 17.1469 5.87929 17.1914C6.39341 17.236 6.9047 17.0755 7.30173 16.7451L7.49135 16.586L5.8742 13.4094L5.41867 13.5082C4.7023 13.6694 4.18155 13.7839 3.97285 13.1383C3.51655 11.9021 3.34164 10.5793 3.46084 9.26592C3.58004 7.95259 3.99035 6.68172 4.66197 5.54565C4.93699 4.96325 5.47095 5.17969 6.14321 5.45598L6.56292 5.64125L8.71439 2.79122L8.55565 2.60198Z" fill="white"/>
</svg>
