<svg width="60" height="25" viewBox="0 0 60 25" fill="none" xmlns="http://www.w3.org/2000/svg">
<path d="M29.6982 17.6917H59.7641V17.9218H29.6982V17.6917Z" fill="#FEFEFE"/>
<path fill-rule="evenodd" clip-rule="evenodd" d="M29.6408 18.6812H59.7829H29.6408ZM30.2781 20.5649C30.5476 20.5649 30.7073 20.4816 30.8509 20.3291L30.6553 20.1209C30.5455 20.2199 30.4479 20.2833 30.2881 20.2833C30.0486 20.2833 29.883 20.0851 29.883 19.8474C29.883 19.6054 30.0527 19.4113 30.2881 19.4113C30.4479 19.4113 30.5395 19.4687 30.6474 19.5658L30.831 19.3557C30.7012 19.2288 30.5536 19.1298 30.2902 19.1298C29.8611 19.1298 29.5615 19.4528 29.5615 19.8474C29.5615 20.2496 29.867 20.5649 30.2781 20.5649V20.5649ZM47.7546 20.541H48.0618V20.1169L48.2237 19.9505L48.6567 20.541H49.026L48.4312 19.7423L49 19.1536H48.6288L48.0618 19.7601V19.1536H47.7546V20.541V20.541ZM49.8739 20.5649C50.305 20.5649 50.6184 20.2417 50.6184 19.8474C50.6184 19.449 50.309 19.1298 49.878 19.1298C49.4466 19.1298 49.1334 19.4528 49.1334 19.8474C49.1334 20.2457 49.4427 20.5649 49.8739 20.5649V20.5649ZM49.878 20.2833C49.6303 20.2833 49.4546 20.0851 49.4546 19.8474C49.4546 19.6054 49.6264 19.4113 49.8739 19.4113C50.1213 19.4113 50.2971 19.6094 50.2971 19.8474C50.2971 20.0892 50.1254 20.2833 49.878 20.2833V20.2833ZM50.8753 20.541H51.1768V19.6412L51.5659 20.2279H51.574L51.9671 19.6353V20.541H52.2725V19.1536H51.9413L51.574 19.7402L51.2068 19.1536H50.8753V20.541V20.541ZM52.5915 20.541H52.8987V19.429H53.4496V20.541H53.7571V19.1536H52.5915V20.541ZM53.9562 20.541H54.2696L54.3973 20.2299H54.9881L55.1158 20.541H55.4371L54.8385 19.1437H54.555L53.9562 20.541V20.541ZM54.5072 19.9603L54.6926 19.5104L54.8784 19.9603H54.5072ZM55.6365 20.541H55.9437V19.9841H56.5107V20.541H56.818V19.1536H56.5107V19.7026H55.9437V19.1536H55.6365V20.541ZM58.3405 19.1536H58.0552L57.4403 20.0634V19.1536H57.1371V20.541H57.4264L58.0373 19.6313V20.541H58.3405V19.1536ZM59.7653 19.1536H59.1265C58.7992 19.1536 58.5997 19.3241 58.5997 19.6115C58.5997 19.8396 58.7214 19.9801 58.8989 20.0456L58.5578 20.541H58.917L59.2164 20.0971H59.458V20.541H59.7653V19.1536ZM59.1465 19.8275C58.9967 19.8275 58.911 19.7481 58.911 19.6313C58.911 19.4966 59.0027 19.429 59.1525 19.429H59.458V19.8275H59.1465ZM31.4054 20.541H31.7129V19.435H32.1379V19.1536H30.9803V19.435H31.4054V20.541ZM32.3571 20.541H32.6644V20.1248H32.8979C33.2113 20.1248 33.4628 19.9584 33.4628 19.6371C33.4628 19.3499 33.2612 19.1536 32.928 19.1536H32.3571V20.541V20.541ZM32.6644 19.8533V19.429H32.902C33.0558 19.429 33.1515 19.5025 33.1515 19.6393C33.1515 19.7621 33.0616 19.8533 32.908 19.8533H32.6644V19.8533ZM34.3527 20.5649C34.7838 20.5649 35.097 20.2417 35.097 19.8474C35.097 19.449 34.7878 19.1298 34.3568 19.1298C33.9255 19.1298 33.6122 19.4528 33.6122 19.8474C33.6122 20.2457 33.9216 20.5649 34.3527 20.5649ZM34.3568 20.2833C34.1092 20.2833 33.9334 20.0851 33.9334 19.8474C33.9334 19.6054 34.1051 19.4113 34.3527 19.4113C34.6001 19.4113 34.7757 19.6094 34.7757 19.8474C34.7757 20.0892 34.6041 20.2833 34.3568 20.2833ZM36.5577 19.1536H36.2722L35.6575 20.0634V19.1536H35.3543V20.541H35.6436L36.2543 19.6313V20.541H36.5577V19.1536V19.1536ZM37.202 20.541H37.5093V19.435H37.9344V19.1536H36.7767V19.435H37.202V20.541V20.541ZM38.1537 20.541H39.2174V20.2695H38.459V19.9782H39.1177V19.7066H38.459V19.4251H39.2074V19.1536H38.1537V20.541V20.541ZM39.6601 19.1536V19.441C39.6601 20.1884 39.5665 20.2932 39.4007 20.2932C39.3807 20.2932 39.3667 20.2912 39.3526 20.2893L39.3328 20.541C39.3707 20.551 39.4446 20.5589 39.4945 20.5589C39.8139 20.5589 39.9477 20.3508 39.9477 19.5342V19.429H40.3509V20.541H40.6581V19.1536H39.6601V19.1536ZM40.9772 20.541H41.5619C41.8892 20.541 42.0927 20.3607 42.0927 20.0752C42.0927 19.8037 41.9052 19.6253 41.5819 19.6253H41.2844V19.1536H40.9772V20.541V20.541ZM41.5559 19.8869C41.7096 19.8869 41.7874 19.9543 41.7874 20.0713C41.7874 20.2002 41.7096 20.2655 41.5578 20.2655H41.2844V19.8869H41.5559ZM42.312 20.541H42.6193V19.9841H43.186V20.541H43.4934V19.1536H43.186V19.7026H42.6193V19.1536H42.312V20.541ZM43.6927 20.541H44.0061L44.1338 20.2299H44.7246L44.8523 20.541H45.1738L44.5749 19.1437H44.2915L43.6927 20.541V20.541ZM44.2437 19.9603L44.4293 19.5104L44.6149 19.9603H44.2437V19.9603ZM46.4786 19.1536H45.84C45.5127 19.1536 45.3131 19.3241 45.3131 19.6115C45.3131 19.8396 45.4348 19.9801 45.6124 20.0456L45.271 20.541H45.6304L45.9298 20.0971H46.1713V20.541H46.4786V19.1536ZM45.8598 19.8275C45.7103 19.8275 45.6243 19.7481 45.6243 19.6313C45.6243 19.4966 45.7163 19.429 45.866 19.429H46.1713V19.8275H45.8598Z" fill="#FEFEFE"/>
<path d="M29.6797 16.316H31.8013V15.6777V11.4729L34.3983 13.9391H34.4949L37.0952 11.4704V15.6777V16.316H39.2448C39.2448 13.0585 39.2417 9.80359 39.2417 6.54886H38.9529L34.4949 11.0351L30.0372 6.54886H29.6839C29.6839 9.80315 29.6797 13.0577 29.6797 16.316V16.316Z" fill="#FEFEFE"/>
<path d="M50.1332 6.54901H48.0446L43.5461 12.9533V6.54901H41.3262V16.316H43.4441L47.9132 9.91166V16.316H50.1332V6.54901Z" fill="#FEFEFE"/>
<path d="M52.2158 16.316H54.3795V13.3859H56.0233C58.2293 13.3859 59.9995 12.2138 59.9995 9.95351C59.9995 7.93029 58.5804 6.54901 56.2341 6.54901H52.2158V16.316V16.316ZM54.3795 11.4743V8.48852H56.0513C57.1331 8.48852 57.8076 9.00461 57.8076 9.96751C57.8076 10.8326 57.1753 11.4743 56.0935 11.4743H54.3795Z" fill="#FEFEFE"/>
<path fill-rule="evenodd" clip-rule="evenodd" d="M12.5868 0C19.5385 0 25.1738 5.59658 25.1738 12.5001C25.1738 18.5572 20.8355 23.6075 15.0764 24.755C15.0764 20.4831 15.0764 16.2111 15.0764 11.9392L18.345 8.85933V19.9052C20.5733 18.1942 22.0085 15.5138 22.0085 12.5001C22.0085 7.33266 17.7902 3.14347 12.5868 3.14347C7.38365 3.14347 3.16532 7.33266 3.16532 12.5001C3.16532 15.5139 4.60056 18.1942 6.82888 19.9052V8.85948L10.0974 11.9394C10.0974 16.2112 10.0974 20.4831 10.0974 24.755C4.33844 23.6075 0 18.5572 0 12.5001C0 5.59658 5.63535 0 12.5868 0V0ZM14.2212 12.7451C14.2212 16.7951 14.2212 20.8452 14.2212 24.8953C13.6863 24.9644 13.1407 25 12.5868 25C12.0331 25 11.4876 24.9641 10.9526 24.8953C10.9526 20.8452 10.9526 16.7953 10.9526 12.7452L12.5868 14.2852L14.2212 12.7451Z" fill="#FEFEFE"/>
</svg>
