<svg width="53" height="53" viewBox="0 0 53 53" fill="none" xmlns="http://www.w3.org/2000/svg">
<path d="M52.6349 8.05183C52.3687 6.85503 52.3522 6.69993 49.6649 6.69993H46.9633L46.4232 5.21603C45.7104 3.06333 43.3146 1.01183 40.9276 0.41343C39.546 0.06803 34.6246 0.00753001 22.6137 0.09113C7.51399 0.19673 6.0587 0.28253 4.5649 0.95463C1.2209 2.45723 -0.621605 6.24563 0.366195 9.58193C1.0559 11.9073 2.5057 13.6288 4.5649 14.5539C6.0576 15.2249 7.51289 15.2953 22.6126 15.3998C34.6224 15.4845 39.5449 15.3888 40.9254 15.0423C43.3201 14.4428 45.7093 12.3176 46.4287 10.1451C46.971 8.51163 46.9952 8.49513 48.7662 8.61173L50.5537 8.72943L50.6725 14.368L50.7902 20.0055L45.5509 21.243C42.6733 21.9239 39.0686 22.794 37.5429 23.1779C34.809 23.8551 32.0721 24.5206 29.3325 25.1744L23.8941 26.4757L23.893 29.3313C23.8919 32.1693 24.1405 32.1957 22.4454 33.6125L21 35.037V52.8999H28.7V35.037L27.1259 33.5938C25.4473 32.1902 25.4781 32.0879 25.6057 29.9286L25.7718 27.7088L27.7122 27.2259C28.7693 26.9586 32.1364 26.1402 35.1867 25.4021C38.237 24.6662 43.4741 23.4023 46.8192 22.5927L52.9 21.1231V15.2623C52.9 12.0415 52.7801 8.71623 52.6349 8.05183ZM26.2525 48.0995C26.2525 49.0257 26.0776 49.2171 25.136 49.315C23.9502 49.436 23.4376 48.8486 23.6906 47.6606C23.7896 47.1975 24.1977 46.9973 25.0425 46.9973C26.1161 46.9984 26.2525 47.1238 26.2525 48.0995Z" fill="#F4A251"/>
</svg>
