<svg width="60" height="60" viewBox="0 0 60 60" fill="none" xmlns="http://www.w3.org/2000/svg">
<path d="M58.5109 9.87477C58.2205 8.56917 58.2025 8.39997 55.2709 8.39997H52.3237L51.7345 6.78117C50.9569 4.43277 48.3433 2.19477 45.7393 1.54197C44.2321 1.16517 38.8633 1.09917 25.7605 1.19037C9.28808 1.30557 7.70048 1.39917 6.07088 2.13237C2.42288 3.77157 0.412884 7.90437 1.49048 11.544C2.24288 14.0808 3.82448 15.9588 6.07088 16.968C7.69928 17.7 9.28688 17.7768 25.7593 17.8908C38.8609 17.9832 44.2309 17.8788 45.7369 17.5008C48.3493 16.8468 50.9557 14.5284 51.7405 12.1584C52.3321 10.3764 52.3585 10.3584 54.2905 10.4856L56.2405 10.614L56.3701 16.7652L56.4985 22.9152L50.7829 24.2652C47.6437 25.008 43.7113 25.9572 42.0469 26.376C39.0644 27.1147 36.0788 27.8407 33.0901 28.554L27.1573 29.9736L27.1561 33.0888C27.1549 36.1848 27.4261 36.2136 25.5769 37.7592L24.0001 39.3132V58.8H32.4001V39.3132L30.6829 37.7388C28.8517 36.2076 28.8853 36.096 29.0245 33.7404L29.2057 31.3188L31.3225 30.792C32.4757 30.5004 36.1489 29.6076 39.4765 28.8024C42.8041 27.9996 48.5173 26.6208 52.1665 25.7376L58.8001 24.1344V17.7408C58.8001 14.2272 58.6693 10.5996 58.5109 9.87477ZM29.7301 53.5632C29.7301 54.5736 29.5393 54.7824 28.5121 54.8892C27.2185 55.0212 26.6593 54.3804 26.9353 53.0844C27.0433 52.5792 27.4885 52.3608 28.4101 52.3608C29.5813 52.362 29.7301 52.4988 29.7301 53.5632Z" fill="white"/>
</svg>
