<?xml version="1.0" standalone="no"?>
<!DOCTYPE svg PUBLIC "-//W3C//DTD SVG 1.1//EN" "http://www.w3.org/Graphics/SVG/1.1/DTD/svg11.dtd" >
<svg xmlns="http://www.w3.org/2000/svg" xmlns:xlink="http://www.w3.org/1999/xlink" version="1.1">
<metadata>
Created by FontForge 20161116 at Tue Jul  5 17:08:51 2016
 By Jimmy Warting
Copyright \(c\) 2016 by Fontfabric LLC. All rights reserved.
</metadata>
<defs>
<font id="Akrobat-Bold" horiz-adv-x="0" >
  <font-face 
    font-family="Akrobat Bold"
    font-weight="700"
    font-stretch="normal"
    units-per-em="1000"
    panose-1="0 0 8 0 0 0 0 0 0 0"
    ascent="800"
    descent="-200"
    x-height="527"
    cap-height="700"
    bbox="-477 -265 810 972"
    underline-thickness="50"
    underline-position="-100"
    stemh="92"
    stemv="97"
    unicode-range="U+0020-25CA"
  />
<missing-glyph horiz-adv-x="500" 
d="M410 800v-1000h-317v1000h317zM333 733h-165v-33h65v-37h-66v-33h166v33h-66v37h66v33zM267 604h-100v-104h166v34h-66v70zM233 570v-36h-33v36h33zM333 473h-166v-33h66v-37h-66v-33h100v70h66v33zM333 413h-33v-66h-133v-34h166v100zM333 291h-100v-56h34v23h33v-47
h-100v80h-33v-113h166v113zM333 118h-166v-113h166v113zM300 85v-47h-100v47h100zM333 -18h-166v-33h70l-70 -47v-33h166v33h-102l70 47h32v33z" />
    <glyph glyph-name=".notdef" horiz-adv-x="500" 
d="M410 800v-1000h-317v1000h317zM333 733h-165v-33h65v-37h-66v-33h166v33h-66v37h66v33zM267 604h-100v-104h166v34h-66v70zM233 570v-36h-33v36h33zM333 473h-166v-33h66v-37h-66v-33h100v70h66v33zM333 413h-33v-66h-133v-34h166v100zM333 291h-100v-56h34v23h33v-47
h-100v80h-33v-113h166v113zM333 118h-166v-113h166v113zM300 85v-47h-100v47h100zM333 -18h-166v-33h70l-70 -47v-33h166v33h-102l70 47h32v33z" />
    <glyph glyph-name="A" unicode="A" horiz-adv-x="476" 
d="M363 0l-33 141h-185l-32 -141h-106l176 700h109l176 -700h-105zM167 235h142l-44 188c-10 46 -21 113 -26 150h-3c-5 -37 -15 -104 -26 -150z" />
    <glyph glyph-name="Aacute" unicode="&#xc1;" horiz-adv-x="476" 
d="M364 893l-109 -125h-76l93 125h92zM363 0l-33 141h-185l-32 -141h-106l176 700h109l176 -700h-105zM167 235h142l-44 188c-10 46 -21 113 -26 150h-3c-5 -37 -15 -104 -26 -150z" />
    <glyph glyph-name="Abreve" unicode="&#x102;" horiz-adv-x="476" 
d="M239 768c-70 0 -118 44 -121 120h69c2 -35 21 -53 51 -53c31 0 50 18 52 53h69c-3 -77 -51 -120 -120 -120zM363 0l-33 141h-185l-32 -141h-106l176 700h109l176 -700h-105zM167 235h142l-44 188c-10 46 -21 113 -26 150h-3c-5 -37 -15 -104 -26 -150z" />
    <glyph glyph-name="Acircumflex" unicode="&#xc2;" horiz-adv-x="476" 
d="M238 838l-51 -70h-72l81 125h83l81 -125h-72zM363 0l-33 141h-185l-32 -141h-106l176 700h109l176 -700h-105zM167 235h142l-44 188c-10 46 -21 113 -26 150h-3c-5 -37 -15 -104 -26 -150z" />
    <glyph glyph-name="Adieresis" unicode="&#xc4;" horiz-adv-x="476" 
d="M164 782c-30 0 -50 19 -50 49c0 31 20 50 50 50s50 -19 50 -50c0 -30 -20 -49 -50 -49zM310 782c-31 0 -51 19 -51 49c0 31 20 50 51 50c30 0 50 -19 50 -50c0 -30 -20 -49 -50 -49zM363 0l-33 141h-185l-32 -141h-106l176 700h109l176 -700h-105zM167 235h142l-44 188
c-10 46 -21 113 -26 150h-3c-5 -37 -15 -104 -26 -150z" />
    <glyph glyph-name="Agrave" unicode="&#xc0;" horiz-adv-x="476" 
d="M302 768h-76l-109 125h92zM363 0l-33 141h-185l-32 -141h-106l176 700h109l176 -700h-105zM167 235h142l-44 188c-10 46 -21 113 -26 150h-3c-5 -37 -15 -104 -26 -150z" />
    <glyph glyph-name="Amacron" unicode="&#x100;" horiz-adv-x="476" 
d="M340 862v-69h-202v69h202zM363 0l-33 141h-185l-32 -141h-106l176 700h109l176 -700h-105zM167 235h142l-44 188c-10 46 -21 113 -26 150h-3c-5 -37 -15 -104 -26 -150z" />
    <glyph glyph-name="Aogonek" unicode="&#x104;" horiz-adv-x="476" 
d="M430 -116c10 0 21 1 29 3l1 -71c-20 -8 -41 -9 -62 -9c-62 0 -93 37 -93 83c0 42 23 79 58 110l-33 141h-185l-32 -141h-106l176 700h109l176 -700h-21c-31 -25 -52 -61 -52 -85c0 -23 15 -31 35 -31zM167 235h142l-44 188c-10 46 -21 113 -26 150h-3
c-5 -37 -15 -104 -26 -150z" />
    <glyph glyph-name="Aring" unicode="&#xc5;" horiz-adv-x="476" 
d="M238 764c-48 0 -80 32 -80 79c0 46 32 77 80 77c49 0 81 -31 81 -77c0 -47 -32 -79 -81 -79zM238 874c-19 0 -32 -13 -32 -32s13 -32 32 -32s32 13 32 32s-13 32 -32 32zM363 0l-33 141h-185l-32 -141h-106l176 700h109l176 -700h-105zM167 235h142l-44 188
c-10 46 -21 113 -26 150h-3c-5 -37 -15 -104 -26 -150z" />
    <glyph glyph-name="Atilde" unicode="&#xc3;" horiz-adv-x="476" 
d="M208 818c-12 0 -21 -9 -24 -27h-65c3 59 35 92 79 92c42 0 56 -30 78 -30c14 0 23 10 26 27h63c-5 -57 -35 -92 -79 -92c-41 0 -55 30 -78 30zM363 0l-33 141h-185l-32 -141h-106l176 700h109l176 -700h-105zM167 235h142l-44 188c-10 46 -21 113 -26 150h-3
c-5 -37 -15 -104 -26 -150z" />
    <glyph glyph-name="AE" unicode="&#xc6;" horiz-adv-x="703" 
d="M432 95h233v-95h-334v151h-163l-59 -151h-109l283 700h372v-95h-223v-203h204v-93h-204v-214zM205 245h126v344h-3c-14 -50 -32 -108 -49 -156z" />
    <glyph glyph-name="B" unicode="B" horiz-adv-x="506" 
d="M375 360c60 -25 97 -84 97 -160c0 -125 -80 -200 -202 -200h-200v700h190c113 0 186 -73 186 -190c0 -68 -28 -123 -71 -150zM248 605h-77v-201h80c61 0 92 35 92 103c0 66 -30 98 -95 98zM257 95c74 0 112 34 112 105c0 72 -45 109 -116 109h-82v-214h86z" />
    <glyph glyph-name="C" unicode="C" horiz-adv-x="492" 
d="M253 -12c-123 0 -203 77 -203 218v288c0 142 79 219 202 219c127 0 202 -76 208 -215h-100c-6 82 -42 119 -109 119c-59 0 -98 -39 -98 -123v-288c0 -83 39 -122 100 -122c68 0 104 38 111 118h100c-7 -138 -82 -214 -211 -214z" />
    <glyph glyph-name="Cacute" unicode="&#x106;" horiz-adv-x="492" 
d="M189 768l93 125h92l-109 -125h-76zM253 -12c-123 0 -203 77 -203 218v288c0 142 79 219 202 219c127 0 202 -76 208 -215h-100c-6 82 -42 119 -109 119c-59 0 -98 -39 -98 -123v-288c0 -83 39 -122 100 -122c68 0 104 38 111 118h100c-7 -138 -82 -214 -211 -214z" />
    <glyph glyph-name="Ccaron" unicode="&#x10c;" horiz-adv-x="492" 
d="M289 768h-83l-81 125h72l51 -70l50 70h72zM364 202h100c-7 -138 -82 -214 -211 -214c-123 0 -203 77 -203 218v288c0 142 79 219 202 219c127 0 202 -76 208 -215h-100c-6 82 -42 119 -109 119c-59 0 -98 -39 -98 -123v-288c0 -83 39 -122 100 -122c68 0 104 38 111 118z
" />
    <glyph glyph-name="Ccedilla" unicode="&#xc7;" horiz-adv-x="492" 
d="M464 202c-6 -125 -69 -200 -177 -212l-11 -39c3 1 7 1 12 1c40 0 72 -28 72 -71c0 -53 -41 -87 -101 -87c-51 0 -94 32 -99 82h60c6 -17 20 -27 40 -27c24 0 39 13 39 34c0 20 -12 32 -36 32c-12 0 -24 -3 -33 -8l-19 18l19 64c-110 9 -180 85 -180 217v288
c0 142 79 219 202 219c127 0 202 -76 208 -215h-100c-6 82 -42 119 -109 119c-59 0 -98 -39 -98 -123v-288c0 -83 39 -122 100 -122c68 0 104 38 111 118h100z" />
    <glyph glyph-name="Cdotaccent" unicode="&#x10a;" horiz-adv-x="492" 
d="M247 778c-37 0 -62 26 -62 62c0 35 25 61 62 61c35 0 61 -26 61 -61s-26 -62 -61 -62zM253 -12c-123 0 -203 77 -203 218v288c0 142 79 219 202 219c127 0 202 -76 208 -215h-100c-6 82 -42 119 -109 119c-59 0 -98 -39 -98 -123v-288c0 -83 39 -122 100 -122
c68 0 104 38 111 118h100c-7 -138 -82 -214 -211 -214z" />
    <glyph glyph-name="D" unicode="D" horiz-adv-x="510" 
d="M70 0v700h174c136 0 216 -80 216 -218v-262c0 -139 -80 -220 -215 -220h-175zM171 96h74c72 0 113 43 113 126v258c0 82 -40 124 -113 124h-74v-508z" />
    <glyph glyph-name="Eth" unicode="&#xd0;" horiz-adv-x="521" 
d="M250 700c137 0 221 -76 221 -208v-282c0 -134 -85 -210 -220 -210h-171v322h-71v69h71v309h170zM368 212v278c0 81 -41 114 -113 114h-74v-213h84v-69h-84v-226h74c71 0 113 33 113 116z" />
    <glyph glyph-name="Dcaron" unicode="&#x10e;" horiz-adv-x="510" 
d="M283 768h-83l-81 125h72l51 -70l50 70h72zM244 700c136 0 216 -80 216 -218v-262c0 -139 -80 -220 -215 -220h-175v700h174zM358 222v258c0 82 -40 124 -113 124h-74v-508h74c72 0 113 43 113 126z" />
    <glyph glyph-name="Dcroat" unicode="&#x110;" horiz-adv-x="521" 
d="M250 700c137 0 221 -76 221 -208v-282c0 -134 -85 -210 -220 -210h-171v322h-71v69h71v309h170zM368 212v278c0 81 -41 114 -113 114h-74v-213h84v-69h-84v-226h74c71 0 113 33 113 116z" />
    <glyph glyph-name="E" unicode="E" horiz-adv-x="461" 
d="M171 95h252v-95h-353v700h343v-95h-242v-203h223v-93h-223v-214z" />
    <glyph glyph-name="Eacute" unicode="&#xc9;" horiz-adv-x="461" 
d="M366 893l-109 -125h-76l93 125h92zM171 95h252v-95h-353v700h343v-95h-242v-203h223v-93h-223v-214z" />
    <glyph glyph-name="Ecaron" unicode="&#x11a;" horiz-adv-x="461" 
d="M281 768h-83l-81 125h72l51 -70l50 70h72zM171 95h252v-95h-353v700h343v-95h-242v-203h223v-93h-223v-214z" />
    <glyph glyph-name="Ecircumflex" unicode="&#xca;" horiz-adv-x="461" 
d="M240 838l-51 -70h-72l81 125h83l81 -125h-72zM171 95h252v-95h-353v700h343v-95h-242v-203h223v-93h-223v-214z" />
    <glyph glyph-name="Edieresis" unicode="&#xcb;" horiz-adv-x="461" 
d="M166 782c-30 0 -50 19 -50 49c0 31 20 50 50 50s50 -19 50 -50c0 -30 -20 -49 -50 -49zM312 782c-31 0 -51 19 -51 49c0 31 20 50 51 50c30 0 50 -19 50 -50c0 -30 -20 -49 -50 -49zM171 95h252v-95h-353v700h343v-95h-242v-203h223v-93h-223v-214z" />
    <glyph glyph-name="Edotaccent" unicode="&#x116;" horiz-adv-x="461" 
d="M239 778c-37 0 -62 26 -62 62c0 35 25 61 62 61c35 0 61 -26 61 -61s-26 -62 -61 -62zM171 95h252v-95h-353v700h343v-95h-242v-203h223v-93h-223v-214z" />
    <glyph glyph-name="Egrave" unicode="&#xc8;" horiz-adv-x="461" 
d="M304 768h-76l-109 125h92zM171 95h252v-95h-353v700h343v-95h-242v-203h223v-93h-223v-214z" />
    <glyph glyph-name="Emacron" unicode="&#x112;" horiz-adv-x="461" 
d="M342 862v-69h-202v69h202zM171 95h252v-95h-353v700h343v-95h-242v-203h223v-93h-223v-214z" />
    <glyph glyph-name="Eogonek" unicode="&#x118;" horiz-adv-x="465" 
d="M427 -113l1 -71c-19 -8 -41 -9 -62 -9c-62 0 -92 37 -92 83c0 43 26 79 66 110h-270v700h343v-95h-242v-203h223v-93h-223v-214h252v-95c-36 -24 -60 -60 -60 -83c0 -24 15 -33 35 -33c10 0 21 1 29 3z" />
    <glyph glyph-name="F" unicode="F" horiz-adv-x="425" 
d="M400 605h-229v-209h211v-92h-211v-304h-101v700h330v-95z" />
    <glyph glyph-name="G" unicode="G" horiz-adv-x="506" 
d="M257 -11c-126 0 -207 77 -207 219v285c0 142 78 218 205 218c124 0 199 -75 204 -213h-100c-4 81 -40 116 -104 116s-102 -37 -102 -122v-284c0 -85 40 -122 105 -122c67 0 107 37 107 117v88h-111v90h210v-178c-2 -137 -81 -214 -207 -214z" />
    <glyph glyph-name="Gbreve" unicode="&#x11e;" horiz-adv-x="506" 
d="M252 768c-70 0 -118 44 -121 120h69c2 -35 21 -53 51 -53c31 0 50 18 52 53h69c-3 -77 -51 -120 -120 -120zM257 -11c-126 0 -207 77 -207 219v285c0 142 78 218 205 218c124 0 199 -75 204 -213h-100c-4 81 -40 116 -104 116s-102 -37 -102 -122v-284
c0 -85 40 -122 105 -122c67 0 107 37 107 117v88h-111v90h210v-178c-2 -137 -81 -214 -207 -214z" />
    <glyph glyph-name="Gcommaaccent" unicode="&#x122;" horiz-adv-x="506" 
d="M257 -11c-126 0 -207 77 -207 219v285c0 142 78 218 205 218c124 0 199 -75 204 -213h-100c-4 81 -40 116 -104 116s-102 -37 -102 -122v-284c0 -85 40 -122 105 -122c67 0 107 37 107 117v88h-111v90h210v-178c-2 -137 -81 -214 -207 -214zM193 -265l17 195h88l-43 -195
h-62z" />
    <glyph glyph-name="Gdotaccent" unicode="&#x120;" horiz-adv-x="506" 
d="M250 778c-37 0 -62 26 -62 62c0 35 25 61 62 61c35 0 61 -26 61 -61s-26 -62 -61 -62zM257 -11c-126 0 -207 77 -207 219v285c0 142 78 218 205 218c124 0 199 -75 204 -213h-100c-4 81 -40 116 -104 116s-102 -37 -102 -122v-284c0 -85 40 -122 105 -122
c67 0 107 37 107 117v88h-111v90h210v-178c-2 -137 -81 -214 -207 -214z" />
    <glyph glyph-name="H" unicode="H" horiz-adv-x="540" 
d="M369 700h101v-700h-101v307h-198v-307h-101v700h101v-298h198v298z" />
    <glyph glyph-name="Hbar" unicode="&#x126;" horiz-adv-x="570" 
d="M552 579v-55h-67v-524h-101v307h-198v-307h-101v524h-68v55h68v121h101v-121h198v121h101v-121h67zM384 402v122h-198v-122h198z" />
    <glyph glyph-name="I" unicode="I" horiz-adv-x="240" 
d="M70 700h101v-700h-101v700z" />
    <glyph glyph-name="Iacute" unicode="&#xcd;" horiz-adv-x="240" 
d="M64 768l93 125h92l-109 -125h-76zM70 700h101v-700h-101v700z" />
    <glyph glyph-name="Icircumflex" unicode="&#xce;" horiz-adv-x="240" 
d="M164 893l81 -125h-72l-50 70l-51 -70h-72l81 125h83zM70 0v700h101v-700h-101z" />
    <glyph glyph-name="Idieresis" unicode="&#xcf;" horiz-adv-x="250" 
d="M58 782c-30 0 -50 19 -50 49c0 31 20 50 50 50s50 -19 50 -50c0 -30 -20 -49 -50 -49zM192 782c-30 0 -50 19 -50 49c0 31 20 50 50 50c31 0 51 -19 51 -50c0 -30 -20 -49 -51 -49zM73 700h101v-700h-101v700z" />
    <glyph glyph-name="Idotaccent" unicode="&#x130;" horiz-adv-x="240" 
d="M122 778c-37 0 -62 26 -62 62c0 35 25 61 62 61c35 0 61 -26 61 -61s-26 -62 -61 -62zM70 700h101v-700h-101v700z" />
    <glyph glyph-name="Igrave" unicode="&#xcc;" horiz-adv-x="240" 
d="M187 768h-76l-109 125h92zM70 700h101v-700h-101v700z" />
    <glyph glyph-name="Imacron" unicode="&#x12a;" horiz-adv-x="240" 
d="M23 862h202v-69h-202v69zM70 700h101v-700h-101v700z" />
    <glyph glyph-name="Iogonek" unicode="&#x12e;" horiz-adv-x="239" 
d="M158 -115c11 0 21 0 30 3v-71c-20 -7 -45 -10 -63 -10c-69 0 -97 38 -97 88c0 37 18 75 52 105h-11v700h101v-700h-12c-25 -24 -42 -60 -42 -82c0 -25 18 -33 42 -33z" />
    <glyph glyph-name="J" unicode="J" horiz-adv-x="284" 
d="M0 -116v99c75 0 116 30 116 129v588h101v-588c0 -148 -75 -228 -217 -228z" />
    <glyph glyph-name="K" unicode="K" horiz-adv-x="503" 
d="M387 0l-171 306l-46 -69v-237h-100v700h100v-304l46 82l140 222h118l-200 -305l229 -395h-116z" />
    <glyph glyph-name="Kcommaaccent" unicode="&#x136;" horiz-adv-x="503" 
d="M274 395l229 -395h-116l-171 306l-46 -69v-237h-100v700h100v-304l46 82l140 222h118zM194 -265l17 195h88l-43 -195h-62z" />
    <glyph glyph-name="L" unicode="L" horiz-adv-x="410" 
d="M171 96h232v-96h-333v700h101v-604z" />
    <glyph glyph-name="Lacute" unicode="&#x139;" horiz-adv-x="410" 
d="M305 893l-109 -125h-76l93 125h92zM171 96h232v-96h-333v700h101v-604z" />
    <glyph glyph-name="Lcaron" unicode="&#x13d;" horiz-adv-x="404" 
d="M171 95h217v-95h-318v700h101v-605zM366 700l-40 -201h-60l10 201h90z" />
    <glyph glyph-name="Lcommaaccent" unicode="&#x13b;" horiz-adv-x="410" 
d="M171 96h232v-96h-333v700h101v-604zM152 -265l17 195h88l-43 -195h-62z" />
    <glyph glyph-name="Lslash" unicode="&#x141;" horiz-adv-x="430" 
d="M199 95h224v-95h-325v300l-76 -29v87l76 29v313h101v-275l123 47v-87l-123 -47v-243z" />
    <glyph glyph-name="M" unicode="M" horiz-adv-x="688" 
d="M515 700h103v-700h-99v273c2 80 4 153 8 226l-4 2c-20 -56 -44 -120 -68 -184l-61 -159h-100l-61 159c-24 64 -48 128 -68 184l-4 -2c3 -73 6 -146 8 -226v-273h-99v700h103l118 -284c16 -40 40 -107 51 -139h4c11 32 35 99 51 139z" />
    <glyph glyph-name="N" unicode="N" horiz-adv-x="555" 
d="M385 700h100v-700h-101l-156 343c-21 52 -50 125 -67 170l-3 -2c7 -70 12 -175 12 -241v-270h-100v700h101l161 -357c21 -47 47 -112 64 -154l3 2c-8 69 -14 174 -14 236v273z" />
    <glyph glyph-name="Nacute" unicode="&#x143;" horiz-adv-x="555" 
d="M219 768l93 125h92l-109 -125h-76zM385 700h100v-700h-101l-156 343c-21 52 -50 125 -67 170l-3 -2c7 -70 12 -175 12 -241v-270h-100v700h101l161 -357c21 -47 47 -112 64 -154l3 2c-8 69 -14 174 -14 236v273z" />
    <glyph glyph-name="Ncaron" unicode="&#x147;" horiz-adv-x="555" 
d="M319 768h-83l-81 125h72l51 -70l50 70h72zM385 700h100v-700h-101l-156 343c-21 52 -50 125 -67 170l-3 -2c7 -70 12 -175 12 -241v-270h-100v700h101l161 -357c21 -47 47 -112 64 -154l3 2c-8 69 -14 174 -14 236v273z" />
    <glyph glyph-name="Ncommaaccent" unicode="&#x145;" horiz-adv-x="555" 
d="M385 700h100v-700h-101l-156 343c-21 52 -50 125 -67 170l-3 -2c7 -70 12 -175 12 -241v-270h-100v700h101l161 -357c21 -47 47 -112 64 -154l3 2c-8 69 -14 174 -14 236v273zM220 -265l17 195h88l-43 -195h-62z" />
    <glyph glyph-name="Eng" unicode="&#x14a;" horiz-adv-x="555" 
d="M385 700h100v-706c0 -116 -64 -186 -185 -187v93c61 1 88 31 88 90v1l-162 356c-22 54 -48 121 -65 166l-3 -2c7 -70 12 -175 12 -241v-270h-100v700h101l165 -361c20 -51 44 -113 61 -158l3 1c-8 71 -15 179 -15 243v275z" />
    <glyph glyph-name="Ntilde" unicode="&#xd1;" horiz-adv-x="555" 
d="M248 818c-12 0 -21 -9 -24 -27h-65c3 59 35 92 79 92c42 0 56 -30 78 -30c14 0 23 10 26 27h63c-5 -57 -35 -92 -79 -92c-41 0 -55 30 -78 30zM385 700h100v-700h-101l-156 343c-21 52 -50 125 -67 170l-3 -2c7 -70 12 -175 12 -241v-270h-100v700h101l161 -357
c21 -47 47 -112 64 -154l3 2c-8 69 -14 174 -14 236v273z" />
    <glyph glyph-name="O" unicode="O" horiz-adv-x="528" 
d="M264 -13c-134 0 -214 89 -214 235v256c0 146 80 235 214 235s214 -89 214 -235v-256c0 -146 -80 -235 -214 -235zM264 86c72 0 110 48 110 136v256c0 88 -38 136 -110 136c-73 0 -110 -48 -110 -136v-256c0 -88 37 -136 110 -136z" />
    <glyph glyph-name="Oacute" unicode="&#xd3;" horiz-adv-x="528" 
d="M205 768l93 125h92l-109 -125h-76zM264 -13c-134 0 -214 89 -214 235v256c0 146 80 235 214 235s214 -89 214 -235v-256c0 -146 -80 -235 -214 -235zM264 86c72 0 110 48 110 136v256c0 88 -38 136 -110 136c-73 0 -110 -48 -110 -136v-256c0 -88 37 -136 110 -136z" />
    <glyph glyph-name="Ocircumflex" unicode="&#xd4;" horiz-adv-x="528" 
d="M264 838l-51 -70h-72l81 125h83l81 -125h-72zM264 713c134 0 214 -89 214 -235v-256c0 -146 -80 -235 -214 -235s-214 89 -214 235v256c0 146 80 235 214 235zM374 222v256c0 88 -38 136 -110 136c-73 0 -110 -48 -110 -136v-256c0 -88 37 -136 110 -136
c72 0 110 48 110 136z" />
    <glyph glyph-name="Odieresis" unicode="&#xd6;" horiz-adv-x="528" 
d="M190 782c-30 0 -50 19 -50 49c0 31 20 50 50 50s50 -19 50 -50c0 -30 -20 -49 -50 -49zM336 782c-31 0 -51 19 -51 49c0 31 20 50 51 50c30 0 50 -19 50 -50c0 -30 -20 -49 -50 -49zM264 -13c-134 0 -214 89 -214 235v256c0 146 80 235 214 235s214 -89 214 -235v-256
c0 -146 -80 -235 -214 -235zM264 86c72 0 110 48 110 136v256c0 88 -38 136 -110 136c-73 0 -110 -48 -110 -136v-256c0 -88 37 -136 110 -136z" />
    <glyph glyph-name="Ograve" unicode="&#xd2;" horiz-adv-x="528" 
d="M328 768h-76l-109 125h92zM264 -13c-134 0 -214 89 -214 235v256c0 146 80 235 214 235s214 -89 214 -235v-256c0 -146 -80 -235 -214 -235zM264 86c72 0 110 48 110 136v256c0 88 -38 136 -110 136c-73 0 -110 -48 -110 -136v-256c0 -88 37 -136 110 -136z" />
    <glyph glyph-name="Ohungarumlaut" unicode="&#x150;" horiz-adv-x="528" 
d="M304 893l-87 -124h-69l72 124h84zM432 893l-92 -124h-69l77 124h84zM264 -13c-134 0 -214 89 -214 235v256c0 146 80 235 214 235s214 -89 214 -235v-256c0 -146 -80 -235 -214 -235zM264 86c72 0 110 48 110 136v256c0 88 -38 136 -110 136c-73 0 -110 -48 -110 -136
v-256c0 -88 37 -136 110 -136z" />
    <glyph glyph-name="Omacron" unicode="&#x14c;" horiz-adv-x="528" 
d="M164 862h202v-69h-202v69zM264 -13c-134 0 -214 89 -214 235v256c0 146 80 235 214 235s214 -89 214 -235v-256c0 -146 -80 -235 -214 -235zM264 86c72 0 110 48 110 136v256c0 88 -38 136 -110 136c-73 0 -110 -48 -110 -136v-256c0 -88 37 -136 110 -136z" />
    <glyph glyph-name="Oslash" unicode="&#xd8;" horiz-adv-x="526" 
d="M403 665c46 -40 72 -105 72 -187v-256c0 -145 -79 -234 -212 -234c-23 0 -44 3 -63 8l-18 -60h-82l29 94c-51 40 -79 106 -79 192v256c0 145 80 234 213 234c25 0 48 -3 69 -9l19 61h82zM155 222c0 -27 3 -51 10 -70l139 455c-12 5 -26 7 -41 7c-72 0 -108 -49 -108 -136
v-256zM371 222v256c0 22 -2 41 -7 58l-135 -446c10 -3 22 -4 34 -4c71 0 108 49 108 136z" />
    <glyph glyph-name="Otilde" unicode="&#xd5;" horiz-adv-x="528" 
d="M234 818c-12 0 -21 -9 -24 -27h-65c3 59 35 92 79 92c42 0 56 -30 78 -30c14 0 23 10 26 27h63c-5 -57 -35 -92 -79 -92c-41 0 -55 30 -78 30zM264 -13c-134 0 -214 89 -214 235v256c0 146 80 235 214 235s214 -89 214 -235v-256c0 -146 -80 -235 -214 -235zM264 86
c72 0 110 48 110 136v256c0 88 -38 136 -110 136c-73 0 -110 -48 -110 -136v-256c0 -88 37 -136 110 -136z" />
    <glyph glyph-name="OE" unicode="&#x152;" horiz-adv-x="765" 
d="M475 95h253v-95h-354v40c-32 -34 -72 -53 -120 -53c-127 0 -204 89 -204 235v256c0 146 77 235 204 235c48 0 88 -19 120 -53v40h343v-95h-242v-203h224v-93h-224v-214zM260 86c75 0 114 48 114 136v256c0 88 -39 136 -114 136c-70 0 -106 -48 -106 -136v-256
c0 -88 36 -136 106 -136z" />
    <glyph glyph-name="P" unicode="P" horiz-adv-x="501" 
d="M255 700c137 0 215 -83 215 -226c0 -147 -78 -228 -215 -228h-84v-246h-101v700h185zM254 342c76 0 113 42 113 132c0 86 -37 130 -113 130h-83v-262h83z" />
    <glyph glyph-name="Thorn" unicode="&#xde;" horiz-adv-x="489" 
d="M255 589c137 0 215 -83 215 -226c0 -147 -78 -229 -215 -229h-84v-134h-101v700h101v-111h84zM254 230c76 0 113 43 113 133c0 86 -37 130 -113 130h-83v-263h83z" />
    <glyph glyph-name="Q" unicode="Q" horiz-adv-x="529" 
d="M479 478v-256c0 -74 -20 -133 -58 -173l56 -67l-61 -53l-62 74c-26 -11 -56 -16 -90 -16c-134 0 -214 89 -214 235v256c0 146 80 235 214 235c135 0 215 -89 215 -235zM297 197l56 -67c14 23 21 54 21 92v256c0 88 -37 136 -110 136c-72 0 -109 -48 -109 -136v-256
c0 -88 37 -136 109 -136c7 0 13 0 20 1l-47 56z" />
    <glyph glyph-name="R" unicode="R" horiz-adv-x="504" 
d="M375 0l-141 254h-63v-254h-101v700h181c134 0 210 -80 210 -219c0 -109 -46 -184 -126 -213l152 -268h-112zM171 604v-254h78c71 0 108 46 108 129s-37 125 -107 125h-79z" />
    <glyph glyph-name="Racute" unicode="&#x154;" horiz-adv-x="504" 
d="M381 893l-109 -125h-76l93 125h92zM375 0l-141 254h-63v-254h-101v700h181c134 0 210 -80 210 -219c0 -109 -46 -184 -126 -213l152 -268h-112zM171 604v-254h78c71 0 108 46 108 129s-37 125 -107 125h-79z" />
    <glyph glyph-name="Rcaron" unicode="&#x158;" horiz-adv-x="504" 
d="M296 768h-83l-81 125h72l51 -70l50 70h72zM375 0l-141 254h-63v-254h-101v700h181c134 0 210 -80 210 -219c0 -109 -46 -184 -126 -213l152 -268h-112zM171 604v-254h78c71 0 108 46 108 129s-37 125 -107 125h-79z" />
    <glyph glyph-name="Rcommaaccent" unicode="&#x156;" horiz-adv-x="504" 
d="M335 268l152 -268h-112l-141 254h-63v-254h-101v700h181c134 0 210 -80 210 -219c0 -109 -46 -184 -126 -213zM171 604v-254h78c71 0 108 46 108 129s-37 125 -107 125h-79zM197 -265l17 195h88l-43 -195h-62z" />
    <glyph glyph-name="S" unicode="S" horiz-adv-x="465" 
d="M231 -13c-124 0 -204 77 -205 205h103c1 -72 40 -107 102 -107c67 0 100 40 100 96c0 139 -293 147 -293 355c0 101 74 177 192 177c120 0 192 -77 195 -196h-103c-2 67 -37 99 -91 99c-57 0 -90 -32 -90 -82c0 -137 294 -137 294 -354c0 -104 -73 -193 -204 -193z" />
    <glyph glyph-name="Sacute" unicode="&#x15a;" horiz-adv-x="465" 
d="M174 768l93 125h92l-109 -125h-76zM231 -13c-124 0 -204 77 -205 205h103c1 -72 40 -107 102 -107c67 0 100 40 100 96c0 139 -293 147 -293 355c0 101 74 177 192 177c120 0 192 -77 195 -196h-103c-2 67 -37 99 -91 99c-57 0 -90 -32 -90 -82c0 -137 294 -137 294 -354
c0 -104 -73 -193 -204 -193z" />
    <glyph glyph-name="Scaron" unicode="&#x160;" horiz-adv-x="465" 
d="M274 768h-83l-81 125h72l51 -70l50 70h72zM141 534c0 -137 294 -137 294 -354c0 -104 -73 -193 -204 -193c-124 0 -204 77 -205 205h103c1 -72 40 -107 102 -107c67 0 100 40 100 96c0 139 -293 147 -293 355c0 101 74 177 192 177c120 0 192 -77 195 -196h-103
c-2 67 -37 99 -91 99c-57 0 -90 -32 -90 -82z" />
    <glyph glyph-name="Scedilla" unicode="&#x15e;" horiz-adv-x="465" 
d="M435 180c0 -95 -61 -177 -171 -191l-11 -38c3 1 7 1 12 1c40 0 72 -28 72 -71c0 -53 -41 -87 -101 -87c-51 0 -94 32 -99 82h60c6 -17 20 -27 40 -27c24 0 39 13 39 34c0 20 -12 32 -36 32c-12 0 -24 -3 -33 -8l-19 18l18 63c-109 10 -179 85 -180 204h103
c1 -72 40 -107 102 -107c67 0 100 40 100 96c0 139 -293 147 -293 355c0 101 74 177 192 177c120 0 192 -77 195 -196h-103c-2 67 -37 99 -91 99c-57 0 -90 -32 -90 -82c0 -137 294 -137 294 -354z" />
    <glyph glyph-name="Scommaaccent" unicode="&#x218;" horiz-adv-x="465" 
d="M231 -13c-124 0 -204 77 -205 205h103c1 -72 40 -107 102 -107c67 0 100 40 100 96c0 139 -293 147 -293 355c0 101 74 177 192 177c120 0 192 -77 195 -196h-103c-2 67 -37 99 -91 99c-57 0 -90 -32 -90 -82c0 -137 294 -137 294 -354c0 -104 -73 -193 -204 -193z
M182 -265l17 195h88l-43 -195h-62z" />
    <glyph glyph-name="T" unicode="T" horiz-adv-x="427" 
d="M411 700v-96h-146v-604h-103v604h-145v96h394z" />
    <glyph glyph-name="Tbar" unicode="&#x166;" horiz-adv-x="427" 
d="M411 604h-146v-219h81v-60h-81v-325h-103v325h-80v60h80v219h-145v96h394v-96z" />
    <glyph glyph-name="Tcaron" unicode="&#x164;" horiz-adv-x="427" 
d="M256 768h-83l-81 125h72l51 -70l50 70h72zM411 700v-96h-146v-604h-103v604h-145v96h394z" />
    <glyph glyph-name="uni0162" unicode="&#x162;" horiz-adv-x="427" 
d="M411 700v-96h-146v-604h-103v604h-145v96h394zM157 -265l17 195h88l-43 -195h-62z" />
    <glyph glyph-name="uni021A" unicode="&#x21a;" horiz-adv-x="427" 
d="M411 700v-96h-146v-604h-103v604h-145v96h394zM157 -265l17 195h88l-43 -195h-62z" />
    <glyph glyph-name="U" unicode="U" horiz-adv-x="530" 
d="M265 -10c-126 0 -207 81 -207 226v484h104v-484c0 -87 39 -128 103 -128c63 0 102 41 102 128v484h104v-484c0 -145 -81 -226 -206 -226z" />
    <glyph glyph-name="Uacute" unicode="&#xda;" horiz-adv-x="530" 
d="M207 768l93 125h92l-109 -125h-76zM265 -10c-126 0 -207 81 -207 226v484h104v-484c0 -87 39 -128 103 -128c63 0 102 41 102 128v484h104v-484c0 -145 -81 -226 -206 -226z" />
    <glyph glyph-name="Ucircumflex" unicode="&#xdb;" horiz-adv-x="530" 
d="M266 838l-51 -70h-72l81 125h83l81 -125h-72zM367 700h104v-484c0 -145 -81 -226 -206 -226c-126 0 -207 81 -207 226v484h104v-484c0 -87 39 -128 103 -128c63 0 102 41 102 128v484z" />
    <glyph glyph-name="Udieresis" unicode="&#xdc;" horiz-adv-x="530" 
d="M192 782c-30 0 -50 19 -50 49c0 31 20 50 50 50s50 -19 50 -50c0 -30 -20 -49 -50 -49zM338 782c-31 0 -51 19 -51 49c0 31 20 50 51 50c30 0 50 -19 50 -50c0 -30 -20 -49 -50 -49zM265 -10c-126 0 -207 81 -207 226v484h104v-484c0 -87 39 -128 103 -128
c63 0 102 41 102 128v484h104v-484c0 -145 -81 -226 -206 -226z" />
    <glyph glyph-name="Ugrave" unicode="&#xd9;" horiz-adv-x="530" 
d="M330 768h-76l-109 125h92zM265 -10c-126 0 -207 81 -207 226v484h104v-484c0 -87 39 -128 103 -128c63 0 102 41 102 128v484h104v-484c0 -145 -81 -226 -206 -226z" />
    <glyph glyph-name="Uhungarumlaut" unicode="&#x170;" horiz-adv-x="530" 
d="M306 893l-87 -124h-69l72 124h84zM434 893l-92 -124h-69l77 124h84zM265 -10c-126 0 -207 81 -207 226v484h104v-484c0 -87 39 -128 103 -128c63 0 102 41 102 128v484h104v-484c0 -145 -81 -226 -206 -226z" />
    <glyph glyph-name="Umacron" unicode="&#x16a;" horiz-adv-x="530" 
d="M166 862h202v-69h-202v69zM265 -10c-126 0 -207 81 -207 226v484h104v-484c0 -87 39 -128 103 -128c63 0 102 41 102 128v484h104v-484c0 -145 -81 -226 -206 -226z" />
    <glyph glyph-name="Uogonek" unicode="&#x172;" horiz-adv-x="527" 
d="M323 -193c-62 0 -93 37 -93 83c0 42 26 79 62 109l-1 1c-9 -6 -20 -10 -32 -10c-122 2 -201 83 -201 221v489h104v-489c0 -82 39 -123 101 -123c63 0 101 41 101 123v489h104v-489c0 -94 -31 -141 -70 -176c-38 -36 -78 -77 -78 -118c0 -26 16 -33 35 -33c10 0 21 1 30 3
v-71c-20 -7 -41 -9 -62 -9z" />
    <glyph glyph-name="Uring" unicode="&#x16e;" horiz-adv-x="530" 
d="M186 843c0 46 32 77 80 77c49 0 81 -31 81 -77c0 -47 -32 -79 -81 -79c-48 0 -80 32 -80 79zM234 842c0 -19 13 -32 32 -32s32 13 32 32s-13 32 -32 32s-32 -13 -32 -32zM265 -10c-126 0 -207 81 -207 226v484h104v-484c0 -87 39 -128 103 -128c63 0 102 41 102 128v484
h104v-484c0 -145 -81 -226 -206 -226z" />
    <glyph glyph-name="V" unicode="V" horiz-adv-x="469" 
d="M179 0l-172 700h106l84 -386c14 -62 25 -130 35 -186h4c10 56 22 124 35 186l85 386h105l-172 -700h-110z" />
    <glyph glyph-name="W" unicode="W" horiz-adv-x="751" 
d="M639 700h105l-157 -700h-108l-68 309c-15 66 -29 168 -33 225h-4c-5 -57 -19 -159 -34 -225l-68 -309h-108l-157 700h105l72 -383c9 -51 26 -142 32 -186h4c6 44 21 130 32 191l70 367h107l70 -367c11 -61 26 -147 32 -191h4c6 44 23 135 32 186z" />
    <glyph glyph-name="Wacute" unicode="&#x1e82;" horiz-adv-x="751" 
d="M322 768l93 125h92l-109 -125h-76zM639 700h105l-157 -700h-108l-68 309c-15 66 -29 168 -33 225h-4c-5 -57 -19 -159 -34 -225l-68 -309h-108l-157 700h105l72 -383c9 -51 26 -142 32 -186h4c6 44 21 130 32 191l70 367h107l70 -367c11 -61 26 -147 32 -191h4
c6 44 23 135 32 186z" />
    <glyph glyph-name="Wcircumflex" unicode="&#x174;" horiz-adv-x="751" 
d="M381 838l-51 -70h-72l81 125h83l81 -125h-72zM639 700h105l-157 -700h-108l-68 309c-15 66 -29 168 -33 225h-4c-5 -57 -19 -159 -34 -225l-68 -309h-108l-157 700h105l72 -383c9 -51 26 -142 32 -186h4c6 44 21 130 32 191l70 367h107l70 -367c11 -61 26 -147 32 -191h4
c6 44 23 135 32 186z" />
    <glyph glyph-name="Wdieresis" unicode="&#x1e84;" horiz-adv-x="751" 
d="M307 782c-30 0 -50 19 -50 49c0 31 20 50 50 50s50 -19 50 -50c0 -30 -20 -49 -50 -49zM453 782c-31 0 -51 19 -51 49c0 31 20 50 51 50c30 0 50 -19 50 -50c0 -30 -20 -49 -50 -49zM639 700h105l-157 -700h-108l-68 309c-15 66 -29 168 -33 225h-4
c-5 -57 -19 -159 -34 -225l-68 -309h-108l-157 700h105l72 -383c9 -51 26 -142 32 -186h4c6 44 21 130 32 191l70 367h107l70 -367c11 -61 26 -147 32 -191h4c6 44 23 135 32 186z" />
    <glyph glyph-name="Wgrave" unicode="&#x1e80;" horiz-adv-x="751" 
d="M445 768h-76l-109 125h92zM639 700h105l-157 -700h-108l-68 309c-15 66 -29 168 -33 225h-4c-5 -57 -19 -159 -34 -225l-68 -309h-108l-157 700h105l72 -383c9 -51 26 -142 32 -186h4c6 44 21 130 32 191l70 367h107l70 -367c11 -61 26 -147 32 -191h4
c6 44 23 135 32 186z" />
    <glyph glyph-name="X" unicode="X" horiz-adv-x="476" 
d="M461 0h-112l-110 259l-111 -259h-112l167 363l-157 337h111l102 -237l101 237h111l-157 -337z" />
    <glyph glyph-name="Y" unicode="Y" horiz-adv-x="446" 
d="M173 0v230l-170 470h105l79 -233c10 -30 25 -75 35 -110h2l36 112l78 231h106l-170 -470v-230h-101z" />
    <glyph glyph-name="Yacute" unicode="&#xdd;" horiz-adv-x="446" 
d="M165 768l93 125h92l-109 -125h-76zM173 0v230l-170 470h105l79 -233c10 -30 25 -75 35 -110h2l36 112l78 231h106l-170 -470v-230h-101z" />
    <glyph glyph-name="Ycircumflex" unicode="&#x176;" horiz-adv-x="446" 
d="M224 838l-51 -70h-72l81 125h83l81 -125h-72zM338 700h106l-170 -470v-230h-101v230l-170 470h105l79 -233c10 -30 25 -75 35 -110h2l36 112z" />
    <glyph glyph-name="Ydieresis" unicode="&#x178;" horiz-adv-x="446" 
d="M150 782c-30 0 -50 19 -50 49c0 31 20 50 50 50s50 -19 50 -50c0 -30 -20 -49 -50 -49zM296 782c-31 0 -51 19 -51 49c0 31 20 50 51 50c30 0 50 -19 50 -50c0 -30 -20 -49 -50 -49zM173 0v230l-170 470h105l79 -233c10 -30 25 -75 35 -110h2l36 112l78 231h106
l-170 -470v-230h-101z" />
    <glyph glyph-name="Ygrave" unicode="&#x1ef2;" horiz-adv-x="446" 
d="M288 768h-76l-109 125h92zM173 0v230l-170 470h105l79 -233c10 -30 25 -75 35 -110h2l36 112l78 231h106l-170 -470v-230h-101z" />
    <glyph glyph-name="Z" unicode="Z" horiz-adv-x="421" 
d="M140 96h256v-96h-379v70l250 534h-235v96h359v-69z" />
    <glyph glyph-name="Zacute" unicode="&#x179;" horiz-adv-x="421" 
d="M151 768l93 125h92l-109 -125h-76zM140 96h256v-96h-379v70l250 534h-235v96h359v-69z" />
    <glyph glyph-name="Zcaron" unicode="&#x17d;" horiz-adv-x="421" 
d="M251 768h-83l-81 125h72l51 -70l50 70h72zM140 96h256v-96h-379v70l250 534h-235v96h359v-69z" />
    <glyph glyph-name="Zdotaccent" unicode="&#x17b;" horiz-adv-x="421" 
d="M208 788c-36 0 -61 26 -61 61c0 36 25 62 61 62s62 -26 62 -62c0 -34 -26 -61 -62 -61zM140 96h256v-96h-379v70l250 534h-235v96h359v-69z" />
    <glyph glyph-name="uni0162.ss01" horiz-adv-x="427" 
d="M265 0h-24l-15 -47c3 1 8 1 12 1c38 -1 71 -28 71 -68c0 -50 -42 -79 -97 -79c-50 0 -90 28 -96 77h58c6 -16 21 -26 39 -26c21 0 38 11 38 30c0 18 -12 30 -34 30c-13 0 -25 -3 -35 -7l-18 18l21 71h-23v604h-145v96h394v-96h-146v-604z" />
    <glyph glyph-name="a" unicode="a" horiz-adv-x="454" 
d="M225 540c113 0 171 -69 171 -190v-350h-79l-7 49c-21 -35 -59 -62 -117 -62c-97 0 -162 64 -162 163c0 108 75 163 191 163h77v37c0 62 -23 97 -76 97c-43 0 -75 -23 -80 -70h-97c5 101 73 163 179 163zM299 157v72h-77c-59 0 -93 -27 -93 -79c0 -48 31 -77 84 -77
s86 34 86 84z" />
    <glyph glyph-name="aacute" unicode="&#xe1;" horiz-adv-x="454" 
d="M331 734l-89 -124h-76l75 124h90zM225 540c113 0 171 -69 171 -190v-350h-79l-7 49c-21 -35 -59 -62 -117 -62c-97 0 -162 64 -162 163c0 108 75 163 191 163h77v37c0 62 -23 97 -76 97c-43 0 -75 -23 -80 -70h-97c5 101 73 163 179 163zM299 157v72h-77
c-59 0 -93 -27 -93 -79c0 -48 31 -77 84 -77s86 34 86 84z" />
    <glyph glyph-name="abreve" unicode="&#x103;" horiz-adv-x="454" 
d="M226 609c-70 0 -118 44 -121 120h69c2 -35 21 -53 51 -53c31 0 50 18 52 53h69c-3 -77 -51 -120 -120 -120zM225 540c113 0 171 -69 171 -190v-350h-79l-7 49c-21 -35 -59 -62 -117 -62c-97 0 -162 64 -162 163c0 108 75 163 191 163h77v37c0 62 -23 97 -76 97
c-43 0 -75 -23 -80 -70h-97c5 101 73 163 179 163zM299 157v72h-77c-59 0 -93 -27 -93 -79c0 -48 31 -77 84 -77s86 34 86 84z" />
    <glyph glyph-name="acircumflex" unicode="&#xe2;" horiz-adv-x="454" 
d="M225 679l-51 -70h-72l81 125h83l81 -125h-72zM225 540c113 0 171 -69 171 -190v-350h-79l-7 49c-21 -35 -59 -62 -117 -62c-97 0 -162 64 -162 163c0 108 75 163 191 163h77v37c0 62 -23 97 -76 97c-43 0 -75 -23 -80 -70h-97c5 101 73 163 179 163zM299 157v72h-77
c-59 0 -93 -27 -93 -79c0 -48 31 -77 84 -77s86 34 86 84z" />
    <glyph glyph-name="adieresis" unicode="&#xe4;" horiz-adv-x="454" 
d="M155 622c-30 0 -50 20 -50 50s20 50 50 50s50 -20 50 -50s-20 -50 -50 -50zM295 622c-31 0 -51 20 -51 50s20 50 51 50c30 0 50 -20 50 -50s-20 -50 -50 -50zM225 540c113 0 171 -69 171 -190v-350h-79l-7 49c-21 -35 -59 -62 -117 -62c-97 0 -162 64 -162 163
c0 108 75 163 191 163h77v37c0 62 -23 97 -76 97c-43 0 -75 -23 -80 -70h-97c5 101 73 163 179 163zM299 157v72h-77c-59 0 -93 -27 -93 -79c0 -48 31 -77 84 -77s86 34 86 84z" />
    <glyph glyph-name="agrave" unicode="&#xe0;" horiz-adv-x="454" 
d="M290 610h-76l-89 124h90zM225 540c113 0 171 -69 171 -190v-350h-79l-7 49c-21 -35 -59 -62 -117 -62c-97 0 -162 64 -162 163c0 108 75 163 191 163h77v37c0 62 -23 97 -76 97c-43 0 -75 -23 -80 -70h-97c5 101 73 163 179 163zM299 157v72h-77c-59 0 -93 -27 -93 -79
c0 -48 31 -77 84 -77s86 34 86 84z" />
    <glyph glyph-name="amacron" unicode="&#x101;" horiz-adv-x="454" 
d="M326 704v-68h-202v68h202zM225 540c113 0 171 -69 171 -190v-350h-79l-7 49c-21 -35 -59 -62 -117 -62c-97 0 -162 64 -162 163c0 108 75 163 191 163h77v37c0 62 -23 97 -76 97c-43 0 -75 -23 -80 -70h-97c5 101 73 163 179 163zM299 157v72h-77c-59 0 -93 -27 -93 -79
c0 -48 31 -77 84 -77s86 34 86 84z" />
    <glyph glyph-name="aogonek" unicode="&#x105;" horiz-adv-x="456" 
d="M340 -193c-65 0 -91 39 -91 85c0 43 26 76 70 108l-7 49c-21 -35 -60 -62 -119 -62c-97 0 -162 64 -162 163c0 108 75 163 192 163h78v37c0 62 -24 97 -77 97c-43 0 -76 -23 -81 -70h-97c5 101 73 163 180 163c114 0 172 -69 172 -190v-350c-38 -26 -65 -60 -65 -87
c0 -22 15 -30 33 -30c12 0 23 1 32 4v-71c-18 -7 -43 -9 -58 -9zM214 73c53 0 87 34 87 84v72h-78c-60 0 -94 -27 -94 -79c0 -48 32 -77 85 -77z" />
    <glyph glyph-name="aring" unicode="&#xe5;" horiz-adv-x="454" 
d="M225 606c-48 0 -80 32 -80 79c0 46 32 77 80 77c49 0 81 -31 81 -77c0 -47 -32 -79 -81 -79zM225 716c-19 0 -32 -13 -32 -32s13 -32 32 -32s32 13 32 32s-13 32 -32 32zM225 540c113 0 171 -69 171 -190v-350h-79l-7 49c-21 -35 -59 -62 -117 -62
c-97 0 -162 64 -162 163c0 108 75 163 191 163h77v37c0 62 -23 97 -76 97c-43 0 -75 -23 -80 -70h-97c5 101 73 163 179 163zM299 157v72h-77c-59 0 -93 -27 -93 -79c0 -48 31 -77 84 -77s86 34 86 84z" />
    <glyph glyph-name="atilde" unicode="&#xe3;" horiz-adv-x="454" 
d="M191 648c-12 0 -21 -9 -24 -27h-65c3 59 35 92 79 92c42 0 56 -30 78 -30c14 0 23 10 26 27h63c-5 -57 -35 -92 -79 -92c-41 0 -55 30 -78 30zM225 540c113 0 171 -69 171 -190v-350h-79l-7 49c-21 -35 -59 -62 -117 -62c-97 0 -162 64 -162 163c0 108 75 163 191 163h77
v37c0 62 -23 97 -76 97c-43 0 -75 -23 -80 -70h-97c5 101 73 163 179 163zM299 157v72h-77c-59 0 -93 -27 -93 -79c0 -48 31 -77 84 -77s86 34 86 84z" />
    <glyph glyph-name="ae" unicode="&#xe6;" horiz-adv-x="691" 
d="M557 169h97c-5 -114 -75 -180 -183 -180c-57 0 -103 26 -132 64c-24 -37 -72 -64 -149 -64c-96 0 -159 65 -159 162c0 107 75 159 194 159h70v45c0 57 -22 91 -72 91c-44 0 -75 -23 -80 -69h-97c5 101 73 163 179 163c53 0 94 -21 122 -60c29 39 73 60 124 60
c110 0 179 -71 179 -196v-112h-259v-45c0 -72 29 -105 81 -105c54 0 80 27 85 87zM391 345v-41h163v41c0 72 -30 104 -82 104s-81 -32 -81 -104zM295 156v72h-70c-62 0 -96 -25 -96 -78c0 -48 30 -77 85 -77c51 0 81 33 81 83z" />
    <glyph glyph-name="b" unicode="b" horiz-adv-x="467" 
d="M254 540c102 0 168 -75 168 -202v-145c0 -129 -68 -205 -168 -205c-47 0 -92 26 -119 60l-7 -48h-70v724h95v-226c26 26 63 42 101 42zM323 193v145c0 76 -29 110 -85 110c-53 0 -85 -42 -85 -110v-146c0 -76 35 -112 85 -112c54 0 85 35 85 113z" />
    <glyph glyph-name="c" unicode="c" horiz-adv-x="437" 
d="M224 -11c-110 0 -178 70 -178 193v166c0 122 68 192 178 192c114 0 179 -70 183 -192h-98c-2 67 -31 99 -84 99c-51 0 -81 -32 -81 -99v-166c0 -67 30 -100 81 -100c54 0 84 33 87 100h97c-3 -123 -73 -193 -185 -193z" />
    <glyph glyph-name="cacute" unicode="&#x107;" horiz-adv-x="437" 
d="M332 734l-89 -124h-76l75 124h90zM224 -11c-110 0 -178 70 -178 193v166c0 122 68 192 178 192c114 0 179 -70 183 -192h-98c-2 67 -31 99 -84 99c-51 0 -81 -32 -81 -99v-166c0 -67 30 -100 81 -100c54 0 84 33 87 100h97c-3 -123 -73 -193 -185 -193z" />
    <glyph glyph-name="ccaron" unicode="&#x10d;" horiz-adv-x="437" 
d="M267 609h-83l-81 125h72l51 -70l50 70h72zM312 182h97c-3 -123 -73 -193 -185 -193c-110 0 -178 70 -178 193v166c0 122 68 192 178 192c114 0 179 -70 183 -192h-98c-2 67 -31 99 -84 99c-51 0 -81 -32 -81 -99v-166c0 -67 30 -100 81 -100c54 0 84 33 87 100z" />
    <glyph glyph-name="ccedilla" unicode="&#xe7;" horiz-adv-x="437" 
d="M409 182c-3 -112 -61 -180 -157 -191l-11 -40c3 1 7 1 12 1c40 0 72 -28 72 -71c0 -53 -41 -87 -101 -87c-51 0 -94 32 -99 82h60c6 -17 20 -27 40 -27c24 0 39 13 39 34c0 20 -12 32 -36 32c-12 0 -24 -3 -33 -8l-19 18l19 66c-93 11 -149 79 -149 191v166
c0 122 68 192 178 192c114 0 179 -70 183 -192h-98c-2 67 -31 99 -84 99c-51 0 -81 -32 -81 -99v-166c0 -67 30 -100 81 -100c54 0 84 33 87 100h97z" />
    <glyph glyph-name="cdotaccent" unicode="&#x10b;" horiz-adv-x="437" 
d="M225 615c-36 0 -61 26 -61 61c0 36 25 62 61 62s62 -26 62 -62c0 -34 -26 -61 -62 -61zM224 -11c-110 0 -178 70 -178 193v166c0 122 68 192 178 192c114 0 179 -70 183 -192h-98c-2 67 -31 99 -84 99c-51 0 -81 -32 -81 -99v-166c0 -67 30 -100 81 -100
c54 0 84 33 87 100h97c-3 -123 -73 -193 -185 -193z" />
    <glyph glyph-name="d" unicode="d" horiz-adv-x="467" 
d="M315 724h94v-724h-70l-7 49c-26 -34 -71 -61 -119 -61c-99 0 -167 76 -167 205v145c0 127 65 202 167 202c38 0 76 -16 102 -43v227zM315 192v146c0 68 -33 110 -86 110c-56 0 -85 -34 -85 -110v-145c0 -78 32 -113 85 -113c50 0 86 36 86 112z" />
    <glyph glyph-name="eth" unicode="&#xf0;" horiz-adv-x="459" 
d="M343 627c42 -55 69 -129 69 -225v-213c0 -129 -70 -200 -184 -200c-112 0 -182 71 -182 200v120c0 129 68 200 171 200c36 0 67 -10 92 -30c-9 42 -27 76 -51 104l-76 -39l-17 38l61 31c-24 19 -53 34 -84 44l34 79c51 -14 99 -40 138 -78l66 34l18 -37zM314 189v120
c0 73 -33 106 -85 106c-55 0 -85 -33 -85 -106v-120c0 -73 31 -106 84 -106c54 0 86 33 86 106z" />
    <glyph glyph-name="dcaron" unicode="&#x10f;" horiz-adv-x="534" 
d="M472 772h88l-41 -185h-60zM315 497v227h94v-724h-70l-7 49c-26 -34 -71 -61 -119 -61c-99 0 -167 76 -167 205v145c0 127 65 202 167 202c38 0 76 -16 102 -43zM315 192v146c0 68 -33 110 -86 110c-56 0 -85 -34 -85 -110v-145c0 -78 32 -113 85 -113c50 0 86 36 86 112z
" />
    <glyph glyph-name="dcroat" unicode="&#x111;" horiz-adv-x="473" 
d="M473 657v-56h-64v-601h-70l-7 49c-26 -34 -71 -61 -119 -61c-99 0 -167 76 -167 205v145c0 127 65 202 167 202c38 0 76 -16 102 -43v104h-98v56h98v67h94v-67h64zM315 192v146c0 68 -33 110 -86 110c-56 0 -85 -34 -85 -110v-145c0 -78 32 -113 85 -113
c50 0 86 36 86 112z" />
    <glyph glyph-name="e" unicode="e" horiz-adv-x="454" 
d="M320 165h97c-9 -112 -78 -176 -192 -176c-110 0 -179 72 -179 198v157c0 125 69 196 180 196c113 0 184 -71 184 -196v-117h-267v-40c0 -72 31 -105 84 -105c59 0 84 26 93 83zM227 449c-53 0 -84 -32 -84 -104v-45h171v45c0 72 -32 104 -87 104z" />
    <glyph glyph-name="eacute" unicode="&#xe9;" horiz-adv-x="454" 
d="M332 732l-89 -124h-76l75 124h90zM320 165h97c-9 -112 -78 -176 -192 -176c-110 0 -179 72 -179 198v157c0 125 69 196 180 196c113 0 184 -71 184 -196v-117h-267v-40c0 -72 31 -105 84 -105c59 0 84 26 93 83zM227 449c-53 0 -84 -32 -84 -104v-45h171v45
c0 72 -32 104 -87 104z" />
    <glyph glyph-name="ecaron" unicode="&#x11b;" horiz-adv-x="454" 
d="M267 607h-83l-81 125h72l51 -70l50 70h72zM320 165h97c-9 -112 -78 -176 -192 -176c-110 0 -179 72 -179 198v157c0 125 69 196 180 196c113 0 184 -71 184 -196v-117h-267v-40c0 -72 31 -105 84 -105c59 0 84 26 93 83zM227 449c-53 0 -84 -32 -84 -104v-45h171v45
c0 72 -32 104 -87 104z" />
    <glyph glyph-name="ecircumflex" unicode="&#xea;" horiz-adv-x="454" 
d="M226 677l-51 -70h-72l81 125h83l81 -125h-72zM320 165h97c-9 -112 -78 -176 -192 -176c-110 0 -179 72 -179 198v157c0 125 69 196 180 196c113 0 184 -71 184 -196v-117h-267v-40c0 -72 31 -105 84 -105c59 0 84 26 93 83zM227 449c-53 0 -84 -32 -84 -104v-45h171v45
c0 72 -32 104 -87 104z" />
    <glyph glyph-name="edieresis" unicode="&#xeb;" horiz-adv-x="454" 
d="M156 620c-30 0 -50 20 -50 50s20 50 50 50s50 -20 50 -50s-20 -50 -50 -50zM296 620c-31 0 -51 20 -51 50s20 50 51 50c30 0 50 -20 50 -50s-20 -50 -50 -50zM320 165h97c-9 -112 -78 -176 -192 -176c-110 0 -179 72 -179 198v157c0 125 69 196 180 196
c113 0 184 -71 184 -196v-117h-267v-40c0 -72 31 -105 84 -105c59 0 84 26 93 83zM227 449c-53 0 -84 -32 -84 -104v-45h171v45c0 72 -32 104 -87 104z" />
    <glyph glyph-name="edotaccent" unicode="&#x117;" horiz-adv-x="454" 
d="M225 613c-36 0 -61 26 -61 61c0 36 25 62 61 62s62 -26 62 -62c0 -34 -26 -61 -62 -61zM320 165h97c-9 -112 -78 -176 -192 -176c-110 0 -179 72 -179 198v157c0 125 69 196 180 196c113 0 184 -71 184 -196v-117h-267v-40c0 -72 31 -105 84 -105c59 0 84 26 93 83z
M227 449c-53 0 -84 -32 -84 -104v-45h171v45c0 72 -32 104 -87 104z" />
    <glyph glyph-name="egrave" unicode="&#xe8;" horiz-adv-x="454" 
d="M291 608h-76l-89 124h90zM320 165h97c-9 -112 -78 -176 -192 -176c-110 0 -179 72 -179 198v157c0 125 69 196 180 196c113 0 184 -71 184 -196v-117h-267v-40c0 -72 31 -105 84 -105c59 0 84 26 93 83zM227 449c-53 0 -84 -32 -84 -104v-45h171v45c0 72 -32 104 -87 104
z" />
    <glyph glyph-name="emacron" unicode="&#x113;" horiz-adv-x="454" 
d="M327 702v-68h-202v68h202zM320 165h97c-9 -112 -78 -176 -192 -176c-110 0 -179 72 -179 198v157c0 125 69 196 180 196c113 0 184 -71 184 -196v-117h-267v-40c0 -72 31 -105 84 -105c59 0 84 26 93 83zM227 449c-53 0 -84 -32 -84 -104v-45h171v45
c0 72 -32 104 -87 104z" />
    <glyph glyph-name="eogonek" unicode="&#x119;" horiz-adv-x="454" 
d="M305 -193c-62 0 -93 36 -93 84c0 37 20 70 53 101v1c-11 -2 -26 -4 -39 -4c-112 0 -180 72 -180 198v157c0 124 69 196 180 196c113 0 184 -71 184 -196v-117h-267v-40c0 -72 30 -105 85 -105c58 0 84 28 92 83h97c-6 -60 -27 -98 -56 -129c-38 -40 -65 -80 -65 -112
c0 -30 18 -40 38 -40c14 0 24 1 33 3v-71c-18 -6 -39 -9 -62 -9zM143 300h171v45c0 71 -32 104 -87 104c-53 0 -84 -32 -84 -104v-45z" />
    <glyph glyph-name="f" unicode="f" horiz-adv-x="304" 
d="M265 650c-55 0 -81 -28 -81 -94v-29h102v-88h-102v-439h-96v439h-77v88h77v29c0 109 55 182 177 182h31v-88h-31z" />
    <glyph glyph-name="g" unicode="g" horiz-adv-x="470" 
d="M341 527h71v-554c0 -100 -68 -166 -177 -166c-106 0 -172 64 -176 164h95c4 -47 32 -74 81 -74s79 29 79 76v82c-26 -22 -60 -34 -99 -34c-99 0 -169 76 -169 193v126c0 124 70 200 168 200c49 0 90 -19 119 -55zM231 113c52 0 83 33 83 101v132c0 68 -35 101 -83 101
c-55 0 -87 -33 -87 -107v-126c0 -68 32 -101 87 -101z" />
    <glyph glyph-name="gbreve" unicode="&#x11f;" horiz-adv-x="470" 
d="M231 609c-70 0 -118 44 -121 120h69c2 -35 21 -53 51 -53c31 0 50 18 52 53h69c-3 -77 -51 -120 -120 -120zM341 527h71v-554c0 -100 -68 -166 -177 -166c-106 0 -172 64 -176 164h95c4 -47 32 -74 81 -74s79 29 79 76v82c-26 -22 -60 -34 -99 -34
c-99 0 -169 76 -169 193v126c0 124 70 200 168 200c49 0 90 -19 119 -55zM231 113c52 0 83 33 83 101v132c0 68 -35 101 -83 101c-55 0 -87 -33 -87 -107v-126c0 -68 32 -101 87 -101z" />
    <glyph glyph-name="gcommaaccent" unicode="&#x123;" horiz-adv-x="470" 
d="M275 604h-96l-18 196h63zM341 527h71v-554c0 -100 -68 -166 -177 -166c-106 0 -172 64 -176 164h95c4 -47 32 -74 81 -74s79 29 79 76v82c-26 -22 -60 -34 -99 -34c-99 0 -169 76 -169 193v126c0 124 70 200 168 200c49 0 90 -19 119 -55zM231 113c52 0 83 33 83 101v132
c0 68 -35 101 -83 101c-55 0 -87 -33 -87 -107v-126c0 -68 32 -101 87 -101z" />
    <glyph glyph-name="gdotaccent" unicode="&#x121;" horiz-adv-x="470" 
d="M229 615c-36 0 -61 26 -61 61c0 36 25 62 61 62s62 -26 62 -62c0 -34 -26 -61 -62 -61zM341 527h71v-554c0 -100 -68 -166 -177 -166c-106 0 -172 64 -176 164h95c4 -47 32 -74 81 -74s79 29 79 76v82c-26 -22 -60 -34 -99 -34c-99 0 -169 76 -169 193v126
c0 124 70 200 168 200c49 0 90 -19 119 -55zM231 113c52 0 83 33 83 101v132c0 68 -35 101 -83 101c-55 0 -87 -33 -87 -107v-126c0 -68 32 -101 87 -101z" />
    <glyph glyph-name="h" unicode="h" horiz-adv-x="469" 
d="M271 540c92 0 145 -70 145 -219v-321h-97v318c0 94 -25 130 -74 130c-55 0 -90 -44 -90 -122v-326h-97v722h97v-246c26 39 65 64 116 64z" />
    <glyph glyph-name="hbar" unicode="&#x127;" horiz-adv-x="467" 
d="M269 540c92 0 146 -70 146 -219v-321h-97v318c0 94 -25 130 -75 130c-54 0 -90 -44 -90 -122v-326h-96v605h-64v55h64v64h96v-64h94v-55h-94v-130c26 40 65 65 116 65z" />
    <glyph glyph-name="i" unicode="i" horiz-adv-x="213" 
d="M106 615c-36 0 -61 26 -61 61c0 36 25 62 61 62s62 -26 62 -62c0 -34 -26 -61 -62 -61zM58 0v527h97v-527h-97z" />
    <glyph glyph-name="dotlessi" unicode="&#x131;" horiz-adv-x="213" 
d="M58 0v527h97v-527h-97z" />
    <glyph glyph-name="iacute" unicode="&#xed;" horiz-adv-x="213" 
d="M213 734l-89 -124h-76l75 124h90zM58 0v527h97v-527h-97z" />
    <glyph glyph-name="icircumflex" unicode="&#xee;" horiz-adv-x="234" 
d="M158 734l78 -125h-71l-47 69l-49 -69h-70l78 125h81zM68 0v527h97v-527h-97z" />
    <glyph glyph-name="idieresis" unicode="&#xef;" horiz-adv-x="232" 
d="M51 624c-29 0 -48 19 -48 48c0 30 19 49 48 49s48 -19 48 -49c0 -29 -19 -48 -48 -48zM181 624c-29 0 -49 19 -49 48c0 30 20 49 49 49s49 -19 49 -49c0 -29 -20 -48 -49 -48zM67 0v527h97v-527h-97z" />
    <glyph glyph-name="i.loclTRK" horiz-adv-x="213" 
d="M106 615c-36 0 -61 26 -61 61c0 36 25 62 61 62s62 -26 62 -62c0 -34 -26 -61 -62 -61zM58 0v527h97v-527h-97z" />
    <glyph glyph-name="igrave" unicode="&#xec;" horiz-adv-x="213" 
d="M7 734h90l75 -124h-76zM58 0v527h97v-527h-97z" />
    <glyph glyph-name="imacron" unicode="&#x12b;" horiz-adv-x="210" 
d="M13 704h185v-70h-185v70zM57 0v527h97v-527h-97z" />
    <glyph glyph-name="iogonek" unicode="&#x12f;" horiz-adv-x="211" 
d="M103 617c-33 0 -56 25 -56 56c0 33 23 57 56 57c32 0 57 -24 57 -57c0 -30 -25 -56 -57 -56zM140 -116c10 0 21 1 30 3v-71c-19 -8 -44 -9 -66 -9c-62 0 -93 37 -93 83c0 41 17 78 43 109v526h97v-525l-14 -1c-21 -23 -37 -56 -37 -79c0 -26 17 -36 40 -36z" />
    <glyph glyph-name="j" unicode="j" horiz-adv-x="246" 
d="M127 614c-37 0 -61 26 -61 61c0 36 24 62 61 62c35 0 61 -26 61 -62c0 -34 -26 -61 -61 -61zM-15 -193v93c67 1 94 34 94 100v527h96v-523c0 -123 -63 -196 -190 -197z" />
    <glyph glyph-name="k" unicode="k" horiz-adv-x="441" 
d="M333 0l-140 241l-39 -42v-199h-96v724h96v-403l150 206h115l-162 -211l187 -316h-111z" />
    <glyph glyph-name="kcommaaccent" unicode="&#x137;" horiz-adv-x="441" 
d="M257 316l187 -316h-111l-140 241l-39 -42v-199h-96v724h96v-403l150 206h115zM171 -265l17 195h88l-43 -195h-62z" />
    <glyph glyph-name="l" unicode="l" horiz-adv-x="209" 
d="M56 0v724h97v-724h-97z" />
    <glyph glyph-name="lacute" unicode="&#x13a;" horiz-adv-x="214" 
d="M47 768l93 125h92l-109 -125h-76zM56 0v724h97v-724h-97z" />
    <glyph glyph-name="lcaron" unicode="&#x13e;" horiz-adv-x="278" 
d="M202 584l13 187h89l-42 -187h-60zM56 0v724h97v-724h-97z" />
    <glyph glyph-name="lcommaaccent" unicode="&#x13c;" horiz-adv-x="209" 
d="M56 0v724h97v-724h-97zM55 -265l17 195h88l-43 -195h-62z" />
    <glyph glyph-name="lslash" unicode="&#x142;" horiz-adv-x="258" 
d="M246 484v-79l-70 -24v-381h-96v349l-68 -23v79l68 23v294h96v-262z" />
    <glyph glyph-name="m" unicode="m" horiz-adv-x="716" 
d="M519 540c89 0 144 -69 144 -210v-330h-96v327c0 88 -25 121 -70 121c-53 0 -88 -44 -88 -122v-326h-96v327c0 88 -27 121 -72 121c-52 0 -87 -44 -87 -122v-326h-96v527h69l10 -59c26 45 68 72 126 72c56 0 98 -26 123 -80c26 51 71 80 133 80z" />
    <glyph glyph-name="n" unicode="n" horiz-adv-x="469" 
d="M268 540c91 0 148 -65 148 -209v-331h-97v326c0 86 -23 122 -74 122c-55 0 -90 -44 -90 -122v-326h-97v527h69l10 -59c27 45 71 72 131 72z" />
    <glyph glyph-name="nacute" unicode="&#x144;" horiz-adv-x="469" 
d="M341 732l-89 -124h-76l75 124h90zM268 540c91 0 148 -65 148 -209v-331h-97v326c0 86 -23 122 -74 122c-55 0 -90 -44 -90 -122v-326h-97v527h69l10 -59c27 45 71 72 131 72z" />
    <glyph glyph-name="ncaron" unicode="&#x148;" horiz-adv-x="469" 
d="M276 607h-83l-81 125h72l51 -70l50 70h72zM268 540c91 0 148 -65 148 -209v-331h-97v326c0 86 -23 122 -74 122c-55 0 -90 -44 -90 -122v-326h-97v527h69l10 -59c27 45 71 72 131 72z" />
    <glyph glyph-name="ncommaaccent" unicode="&#x146;" horiz-adv-x="469" 
d="M268 540c91 0 148 -65 148 -209v-331h-97v326c0 86 -23 122 -74 122c-55 0 -90 -44 -90 -122v-326h-97v527h69l10 -59c27 45 71 72 131 72zM170 -265l17 195h88l-43 -195h-62z" />
    <glyph glyph-name="eng" unicode="&#x14b;" horiz-adv-x="469" 
d="M268 540c94 0 148 -65 148 -209v-344c0 -116 -64 -186 -185 -187v93c61 1 88 32 88 90v343c0 86 -23 122 -74 122c-55 0 -90 -44 -90 -122v-326h-97v527h69l10 -59c27 45 71 72 131 72z" />
    <glyph glyph-name="ntilde" unicode="&#xf1;" horiz-adv-x="469" 
d="M201 646c-12 0 -21 -9 -24 -27h-65c3 59 35 92 79 92c42 0 56 -30 78 -30c14 0 23 10 26 27h63c-5 -57 -35 -92 -79 -92c-41 0 -55 30 -78 30zM268 540c91 0 148 -65 148 -209v-331h-97v326c0 86 -23 122 -74 122c-55 0 -90 -44 -90 -122v-326h-97v527h69l10 -59
c27 45 71 72 131 72z" />
    <glyph glyph-name="o" unicode="o" horiz-adv-x="463" 
d="M231 -12c-114 0 -185 71 -185 200v152c0 129 71 200 185 200c115 0 186 -71 186 -200v-152c0 -129 -71 -200 -186 -200zM231 82c55 0 88 32 88 106v152c0 74 -33 106 -88 106c-54 0 -87 -32 -87 -106v-152c0 -74 33 -106 87 -106z" />
    <glyph glyph-name="oacute" unicode="&#xf3;" horiz-adv-x="463" 
d="M337 734l-89 -124h-76l75 124h90zM231 -12c-114 0 -185 71 -185 200v152c0 129 71 200 185 200c115 0 186 -71 186 -200v-152c0 -129 -71 -200 -186 -200zM231 82c55 0 88 32 88 106v152c0 74 -33 106 -88 106c-54 0 -87 -32 -87 -106v-152c0 -74 33 -106 87 -106z" />
    <glyph glyph-name="ocircumflex" unicode="&#xf4;" horiz-adv-x="463" 
d="M231 679l-51 -70h-72l81 125h83l81 -125h-72zM231 540c115 0 186 -71 186 -200v-152c0 -129 -71 -200 -186 -200c-114 0 -185 71 -185 200v152c0 129 71 200 185 200zM319 188v152c0 74 -33 106 -88 106c-54 0 -87 -32 -87 -106v-152c0 -74 33 -106 87 -106
c55 0 88 32 88 106z" />
    <glyph glyph-name="odieresis" unicode="&#xf6;" horiz-adv-x="463" 
d="M161 622c-30 0 -50 20 -50 50s20 50 50 50s50 -20 50 -50s-20 -50 -50 -50zM301 622c-31 0 -51 20 -51 50s20 50 51 50c30 0 50 -20 50 -50s-20 -50 -50 -50zM231 -12c-114 0 -185 71 -185 200v152c0 129 71 200 185 200c115 0 186 -71 186 -200v-152
c0 -129 -71 -200 -186 -200zM231 82c55 0 88 32 88 106v152c0 74 -33 106 -88 106c-54 0 -87 -32 -87 -106v-152c0 -74 33 -106 87 -106z" />
    <glyph glyph-name="ograve" unicode="&#xf2;" horiz-adv-x="463" 
d="M131 734h90l75 -124h-76zM231 -12c-114 0 -185 71 -185 200v152c0 129 71 200 185 200c115 0 186 -71 186 -200v-152c0 -129 -71 -200 -186 -200zM231 82c55 0 88 32 88 106v152c0 74 -33 106 -88 106c-54 0 -87 -32 -87 -106v-152c0 -74 33 -106 87 -106z" />
    <glyph glyph-name="ohungarumlaut" unicode="&#x151;" horiz-adv-x="463" 
d="M268 734l-87 -124h-69l72 124h84zM396 734l-92 -124h-69l77 124h84zM231 -12c-114 0 -185 71 -185 200v152c0 129 71 200 185 200c115 0 186 -71 186 -200v-152c0 -129 -71 -200 -186 -200zM231 82c55 0 88 32 88 106v152c0 74 -33 106 -88 106c-54 0 -87 -32 -87 -106
v-152c0 -74 33 -106 87 -106z" />
    <glyph glyph-name="omacron" unicode="&#x14d;" horiz-adv-x="463" 
d="M130 704h202v-68h-202v68zM231 -12c-114 0 -185 71 -185 200v152c0 129 71 200 185 200c115 0 186 -71 186 -200v-152c0 -129 -71 -200 -186 -200zM231 82c55 0 88 32 88 106v152c0 74 -33 106 -88 106c-54 0 -87 -32 -87 -106v-152c0 -74 33 -106 87 -106z" />
    <glyph glyph-name="oslash" unicode="&#xf8;" horiz-adv-x="463" 
d="M360 496c36 -34 57 -87 57 -156v-151c0 -129 -71 -200 -186 -200c-24 0 -47 3 -67 10l-26 -66h-71l39 98c-39 34 -60 87 -60 158v151c0 129 71 200 185 200c26 0 50 -4 71 -11l26 67h71zM144 189c0 -18 2 -33 6 -46l117 297c-11 4 -23 6 -36 6c-54 0 -87 -32 -87 -106
v-151zM319 189v151c0 16 -1 30 -4 42l-116 -294c10 -3 20 -5 32 -5c55 0 88 33 88 106z" />
    <glyph glyph-name="otilde" unicode="&#xf5;" horiz-adv-x="463" 
d="M197 648c-12 0 -21 -9 -24 -27h-65c3 59 35 92 79 92c42 0 56 -30 78 -30c14 0 23 10 26 27h63c-5 -57 -35 -92 -79 -92c-41 0 -55 30 -78 30zM231 -12c-114 0 -185 71 -185 200v152c0 129 71 200 185 200c115 0 186 -71 186 -200v-152c0 -129 -71 -200 -186 -200z
M231 82c55 0 88 32 88 106v152c0 74 -33 106 -88 106c-54 0 -87 -32 -87 -106v-152c0 -74 33 -106 87 -106z" />
    <glyph glyph-name="oe" unicode="&#x153;" horiz-adv-x="715" 
d="M581 170h97c-6 -115 -75 -181 -185 -181c-55 0 -101 23 -130 66c-31 -43 -78 -66 -134 -66c-113 0 -183 71 -183 200v149c0 129 70 199 183 199c56 0 103 -22 133 -65c30 43 76 65 131 65c112 0 181 -71 181 -195v-113h-263v-42c0 -72 30 -105 83 -105c56 0 82 27 87 88z
M411 343v-42h168v42c0 71 -31 103 -85 103c-53 0 -83 -32 -83 -103zM315 189v149c0 73 -32 105 -86 105s-85 -32 -85 -105v-149c0 -73 31 -106 85 -106s86 33 86 106z" />
    <glyph glyph-name="p" unicode="p" horiz-adv-x="467" 
d="M254 539c100 0 168 -75 168 -204v-145c0 -128 -66 -202 -168 -202c-38 0 -75 15 -101 42v-210h-95v708h70l7 -49c26 34 72 60 119 60zM323 190v145c0 78 -31 113 -85 113c-50 0 -85 -37 -85 -112v-146c0 -69 32 -111 85 -111c56 0 85 34 85 111z" />
    <glyph glyph-name="thorn" unicode="&#xfe;" horiz-adv-x="465" 
d="M254 545c101 0 165 -75 165 -203v-142c0 -127 -64 -202 -165 -202c-38 0 -74 15 -101 42v-220h-95v902h95v-220c27 28 63 43 101 43zM321 200v142c0 77 -29 111 -83 111c-53 0 -85 -42 -85 -111v-142c0 -68 32 -111 85 -111c54 0 83 35 83 111z" />
    <glyph glyph-name="q" unicode="q" horiz-adv-x="467" 
d="M339 528h70v-708h-94v210c-26 -26 -64 -42 -102 -42c-102 0 -167 74 -167 202v145c0 129 68 204 167 204c48 0 94 -26 119 -60zM229 79c53 0 86 42 86 111v146c0 75 -36 112 -86 112c-53 0 -85 -35 -85 -113v-145c0 -77 29 -111 85 -111z" />
    <glyph glyph-name="r" unicode="r" horiz-adv-x="340" 
d="M273 539c22 0 40 -2 55 -8v-96c-19 8 -39 12 -65 12c-66 0 -108 -43 -108 -122v-325h-97v527h69l11 -61c27 46 72 73 135 73z" />
    <glyph glyph-name="racute" unicode="&#x155;" horiz-adv-x="340" 
d="M292 734l-89 -124h-76l75 124h90zM273 539c22 0 40 -2 55 -8v-96c-19 8 -39 12 -65 12c-66 0 -108 -43 -108 -122v-325h-97v527h69l11 -61c27 46 72 73 135 73z" />
    <glyph glyph-name="rcaron" unicode="&#x159;" horiz-adv-x="340" 
d="M227 609h-83l-81 125h72l51 -70l50 70h72zM273 539c22 0 40 -2 55 -8v-96c-19 8 -39 12 -65 12c-66 0 -108 -43 -108 -122v-325h-97v527h69l11 -61c27 46 72 73 135 73z" />
    <glyph glyph-name="rcommaaccent" unicode="&#x157;" horiz-adv-x="340" 
d="M273 539c22 0 40 -2 55 -8v-96c-19 8 -39 12 -65 12c-66 0 -108 -43 -108 -122v-325h-97v527h69l11 -61c27 46 72 73 135 73zM66 -265l17 195h88l-43 -195h-62z" />
    <glyph glyph-name="s" unicode="s" horiz-adv-x="417" 
d="M214 -13c-120 0 -188 78 -189 175h96c1 -48 30 -85 91 -85c51 0 80 25 80 66c0 106 -259 70 -259 250c0 90 67 147 170 147c112 0 171 -70 175 -168h-95c-1 50 -27 80 -80 80c-46 0 -74 -23 -74 -60c0 -100 260 -61 260 -250c0 -93 -66 -155 -175 -155z" />
    <glyph glyph-name="sacute" unicode="&#x15b;" horiz-adv-x="417" 
d="M315 736l-89 -124h-76l75 124h90zM214 -13c-120 0 -188 78 -189 175h96c1 -48 30 -85 91 -85c51 0 80 25 80 66c0 106 -259 70 -259 250c0 90 67 147 170 147c112 0 171 -70 175 -168h-95c-1 50 -27 80 -80 80c-46 0 -74 -23 -74 -60c0 -100 260 -61 260 -250
c0 -93 -66 -155 -175 -155z" />
    <glyph glyph-name="scaron" unicode="&#x161;" horiz-adv-x="417" 
d="M250 611h-83l-81 125h72l51 -70l50 70h72zM129 392c0 -100 260 -61 260 -250c0 -93 -66 -155 -175 -155c-120 0 -188 78 -189 175h96c1 -48 30 -85 91 -85c51 0 80 25 80 66c0 106 -259 70 -259 250c0 90 67 147 170 147c112 0 171 -70 175 -168h-95c-1 50 -27 80 -80 80
c-46 0 -74 -23 -74 -60z" />
    <glyph glyph-name="scedilla" unicode="&#x15f;" horiz-adv-x="417" 
d="M389 142c0 -87 -58 -147 -154 -154l-11 -37c3 1 7 1 12 1c40 0 72 -28 72 -71c0 -53 -41 -87 -101 -87c-51 0 -94 32 -99 82h60c6 -17 20 -27 40 -27c24 0 39 13 39 34c0 20 -12 32 -36 32c-12 0 -24 -3 -33 -8l-19 18l19 65c-98 14 -152 85 -153 172h96
c1 -48 30 -85 91 -85c51 0 80 25 80 66c0 106 -259 70 -259 250c0 90 67 147 170 147c112 0 171 -70 175 -168h-95c-1 50 -27 80 -80 80c-46 0 -74 -23 -74 -60c0 -100 260 -61 260 -250z" />
    <glyph glyph-name="scommaaccent" unicode="&#x219;" horiz-adv-x="417" 
d="M214 -13c-120 0 -188 78 -189 175h96c1 -48 30 -85 91 -85c51 0 80 25 80 66c0 106 -259 70 -259 250c0 90 67 147 170 147c112 0 171 -70 175 -168h-95c-1 50 -27 80 -80 80c-46 0 -74 -23 -74 -60c0 -100 260 -61 260 -250c0 -93 -66 -155 -175 -155zM159 -265l17 195
h88l-43 -195h-62z" />
    <glyph glyph-name="germandbls" unicode="&#xdf;" horiz-adv-x="479" 
d="M356 365c57 -28 95 -88 95 -164c0 -125 -79 -201 -197 -201h-47v96h34c71 0 106 34 106 106c0 76 -36 112 -104 112h-36v93h27c61 0 92 35 92 104s-28 107 -84 107c-57 0 -84 -37 -84 -111v-507h-100v507c0 126 69 206 184 206s185 -81 185 -203c0 -65 -27 -118 -71 -145
z" />
    <glyph glyph-name="t" unicode="t" horiz-adv-x="316" 
d="M259 85h32v-91h-37c-105 0 -167 67 -167 176v269h-74v88h74v125h96v-125h98v-88h-98v-270c0 -57 24 -84 76 -84z" />
    <glyph glyph-name="tbar" unicode="&#x167;" horiz-adv-x="316" 
d="M259 85h32v-91h-37c-105 0 -167 67 -167 176v82h-57v66h57v121h-74v88h74v125h96v-125h98v-88h-98v-121h72v-66h-72v-83c0 -57 24 -84 76 -84z" />
    <glyph glyph-name="tcaron" unicode="&#x165;" horiz-adv-x="365" 
d="M253 771h87l-41 -180h-61zM183 169c0 -57 24 -84 76 -84h32v-91h-37c-105 0 -167 67 -167 176v269h-74v88h74v125h96v-125h98v-88h-98v-270z" />
    <glyph glyph-name="uni0163" unicode="&#x163;" horiz-adv-x="306" 
d="M259 85h32v-91h-37c-105 0 -167 67 -167 176v269h-74v88h74v125h96v-125h98v-88h-98v-270c0 -57 24 -84 76 -84zM121 -265l17 195h88l-43 -195h-62z" />
    <glyph glyph-name="uni021B" unicode="&#x21b;" horiz-adv-x="306" 
d="M259 85h32v-91h-37c-105 0 -167 67 -167 176v269h-74v88h74v125h96v-125h98v-88h-98v-270c0 -57 24 -84 76 -84zM121 -265l17 195h88l-43 -195h-62z" />
    <glyph glyph-name="u" unicode="u" horiz-adv-x="469" 
d="M314 527h97v-527h-69l-10 59c-27 -45 -71 -72 -131 -72c-91 0 -148 65 -148 209v331h97v-326c0 -86 23 -122 74 -122c55 0 90 44 90 122v326z" />
    <glyph glyph-name="uacute" unicode="&#xfa;" horiz-adv-x="469" 
d="M338 732l-89 -124h-76l75 124h90zM314 527h97v-527h-69l-10 59c-27 -45 -71 -72 -131 -72c-91 0 -148 65 -148 209v331h97v-326c0 -86 23 -122 74 -122c55 0 90 44 90 122v326z" />
    <glyph glyph-name="ucircumflex" unicode="&#xfb;" horiz-adv-x="469" 
d="M232 677l-51 -70h-72l81 125h83l81 -125h-72zM314 527h97v-527h-69l-10 59c-27 -45 -71 -72 -131 -72c-91 0 -148 65 -148 209v331h97v-326c0 -86 23 -122 74 -122c55 0 90 44 90 122v326z" />
    <glyph glyph-name="udieresis" unicode="&#xfc;" horiz-adv-x="469" 
d="M162 620c-30 0 -50 20 -50 50s20 50 50 50s50 -20 50 -50s-20 -50 -50 -50zM302 620c-31 0 -51 20 -51 50s20 50 51 50c30 0 50 -20 50 -50s-20 -50 -50 -50zM314 527h97v-527h-69l-10 59c-27 -45 -71 -72 -131 -72c-91 0 -148 65 -148 209v331h97v-326
c0 -86 23 -122 74 -122c55 0 90 44 90 122v326z" />
    <glyph glyph-name="ugrave" unicode="&#xf9;" horiz-adv-x="469" 
d="M297 608h-76l-89 124h90zM314 527h97v-527h-69l-10 59c-27 -45 -71 -72 -131 -72c-91 0 -148 65 -148 209v331h97v-326c0 -86 23 -122 74 -122c55 0 90 44 90 122v326z" />
    <glyph glyph-name="uhungarumlaut" unicode="&#x171;" horiz-adv-x="469" 
d="M269 732l-87 -124h-69l72 124h84zM305 608h-69l77 124h84zM314 527h97v-527h-69l-10 59c-27 -45 -71 -72 -131 -72c-91 0 -148 65 -148 209v331h97v-326c0 -86 23 -122 74 -122c55 0 90 44 90 122v326z" />
    <glyph glyph-name="umacron" unicode="&#x16b;" horiz-adv-x="469" 
d="M333 702v-68h-202v68h202zM314 527h97v-527h-69l-10 59c-27 -45 -71 -72 -131 -72c-91 0 -148 65 -148 209v331h97v-326c0 -86 23 -122 74 -122c55 0 90 44 90 122v326z" />
    <glyph glyph-name="uogonek" unicode="&#x173;" horiz-adv-x="469" 
d="M411 0c-38 -25 -62 -60 -62 -87c0 -21 14 -29 35 -29c7 0 18 1 26 3v-71c-19 -8 -40 -9 -60 -9c-58 0 -86 38 -86 82s28 79 78 111l-10 60c-27 -45 -71 -72 -130 -72c-92 0 -149 64 -149 209v330h97v-326c0 -85 23 -121 74 -121c55 0 90 44 90 121v326h97v-527z" />
    <glyph glyph-name="uring" unicode="&#x16f;" horiz-adv-x="469" 
d="M232 604c-48 0 -80 32 -80 79c0 46 32 77 80 77c49 0 81 -31 81 -77c0 -47 -32 -79 -81 -79zM232 714c-19 0 -32 -13 -32 -32s13 -32 32 -32s32 13 32 32s-13 32 -32 32zM314 527h97v-527h-69l-10 59c-27 -45 -71 -72 -131 -72c-91 0 -148 65 -148 209v331h97v-326
c0 -86 23 -122 74 -122c55 0 90 44 90 122v326z" />
    <glyph glyph-name="v" unicode="v" horiz-adv-x="406" 
d="M300 527h102l-145 -527h-108l-145 527h103l58 -237c12 -56 29 -136 36 -174h5c7 38 24 118 36 174z" />
    <glyph glyph-name="w" unicode="w" horiz-adv-x="636" 
d="M532 527h100l-125 -527h-105l-46 191c-16 72 -31 158 -36 208h-4c-4 -50 -19 -136 -36 -208l-45 -191h-105l-126 527h101l47 -236c11 -59 25 -145 30 -181h4c6 42 20 123 33 185l48 222h103l48 -222c12 -62 27 -143 33 -185h4c4 36 19 122 30 181z" />
    <glyph glyph-name="wacute" unicode="&#x1e83;" horiz-adv-x="636" 
d="M421 732l-89 -124h-76l75 124h90zM532 527h100l-125 -527h-105l-46 191c-16 72 -31 158 -36 208h-4c-4 -50 -19 -136 -36 -208l-45 -191h-105l-126 527h101l47 -236c11 -59 25 -145 30 -181h4c6 42 20 123 33 185l48 222h103l48 -222c12 -62 27 -143 33 -185h4
c4 36 19 122 30 181z" />
    <glyph glyph-name="wcircumflex" unicode="&#x175;" horiz-adv-x="636" 
d="M315 677l-51 -70h-72l81 125h83l81 -125h-72zM532 527h100l-125 -527h-105l-46 191c-16 72 -31 158 -36 208h-4c-4 -50 -19 -136 -36 -208l-45 -191h-105l-126 527h101l47 -236c11 -59 25 -145 30 -181h4c6 42 20 123 33 185l48 222h103l48 -222c12 -62 27 -143 33 -185
h4c4 36 19 122 30 181z" />
    <glyph glyph-name="wdieresis" unicode="&#x1e85;" horiz-adv-x="636" 
d="M245 620c-30 0 -50 20 -50 50s20 50 50 50s50 -20 50 -50s-20 -50 -50 -50zM385 620c-31 0 -51 20 -51 50s20 50 51 50c30 0 50 -20 50 -50s-20 -50 -50 -50zM532 527h100l-125 -527h-105l-46 191c-16 72 -31 158 -36 208h-4c-4 -50 -19 -136 -36 -208l-45 -191h-105
l-126 527h101l47 -236c11 -59 25 -145 30 -181h4c6 42 20 123 33 185l48 222h103l48 -222c12 -62 27 -143 33 -185h4c4 36 19 122 30 181z" />
    <glyph glyph-name="wgrave" unicode="&#x1e81;" horiz-adv-x="636" 
d="M380 608h-76l-89 124h90zM532 527h100l-125 -527h-105l-46 191c-16 72 -31 158 -36 208h-4c-4 -50 -19 -136 -36 -208l-45 -191h-105l-126 527h101l47 -236c11 -59 25 -145 30 -181h4c6 42 20 123 33 185l48 222h103l48 -222c12 -62 27 -143 33 -185h4
c4 36 19 122 30 181z" />
    <glyph glyph-name="x" unicode="x" horiz-adv-x="407" 
d="M408 0h-110l-94 187l-95 -187h-110l146 264l-135 263h107l87 -179l86 179h107l-133 -263z" />
    <glyph glyph-name="y" unicode="y" horiz-adv-x="417" 
d="M313 527h100l-169 -568c-25 -86 -62 -149 -141 -149h-52v94h33c41 0 54 29 67 72l23 79l-170 472h102l109 -334z" />
    <glyph glyph-name="yacute" unicode="&#xfd;" horiz-adv-x="417" 
d="M312 736l-89 -124h-76l75 124h90zM313 527h100l-169 -568c-25 -86 -62 -149 -141 -149h-52v94h33c41 0 54 29 67 72l23 79l-170 472h102l109 -334z" />
    <glyph glyph-name="ycircumflex" unicode="&#x177;" horiz-adv-x="417" 
d="M206 681l-51 -70h-72l81 125h83l81 -125h-72zM313 527h100l-169 -568c-25 -86 -62 -149 -141 -149h-52v94h33c41 0 54 29 67 72l23 79l-170 472h102l109 -334z" />
    <glyph glyph-name="ydieresis" unicode="&#xff;" horiz-adv-x="417" 
d="M136 624c-30 0 -50 20 -50 50s20 50 50 50s50 -20 50 -50s-20 -50 -50 -50zM276 624c-31 0 -51 20 -51 50s20 50 51 50c30 0 50 -20 50 -50s-20 -50 -50 -50zM313 527h100l-169 -568c-25 -86 -62 -149 -141 -149h-52v94h33c41 0 54 29 67 72l23 79l-170 472h102l109 -334
z" />
    <glyph glyph-name="ygrave" unicode="&#x1ef3;" horiz-adv-x="417" 
d="M271 612h-76l-89 124h90zM313 527h100l-169 -568c-25 -86 -62 -149 -141 -149h-52v94h33c41 0 54 29 67 72l23 79l-170 472h102l109 -334z" />
    <glyph glyph-name="z" unicode="z" horiz-adv-x="366" 
d="M132 89h216v-89h-338v65l207 373h-191v89h313v-64z" />
    <glyph glyph-name="zacute" unicode="&#x17a;" horiz-adv-x="366" 
d="M284 734l-89 -124h-76l75 124h90zM132 89h216v-89h-338v65l207 373h-191v89h313v-64z" />
    <glyph glyph-name="zcaron" unicode="&#x17e;" horiz-adv-x="366" 
d="M219 609h-83l-81 125h72l51 -70l50 70h72zM132 89h216v-89h-338v65l207 373h-191v89h313v-64z" />
    <glyph glyph-name="zdotaccent" unicode="&#x17c;" horiz-adv-x="366" 
d="M177 615c-36 0 -61 26 -61 61c0 36 25 62 61 62s62 -26 62 -62c0 -34 -26 -61 -62 -61zM132 89h216v-89h-338v65l207 373h-191v89h313v-64z" />
    <glyph glyph-name="uni0163.ss01" horiz-adv-x="316" 
d="M254 -6c-14 0 -28 1 -40 4l-17 -45c2 1 7 1 12 1c38 0 70 -28 70 -68c0 -50 -41 -79 -97 -79c-50 0 -89 28 -95 77h57c6 -16 21 -26 39 -26c22 0 38 11 38 30c0 18 -11 30 -34 30c-13 0 -25 -3 -34 -7l-18 18l29 86c-49 28 -77 82 -77 155v268h-74v89h74v125h96v-125h98
v-89h-98v-269c0 -57 24 -85 76 -85h32v-90h-37z" />
    <glyph glyph-name="uni0410" unicode="&#x410;" horiz-adv-x="476" 
d="M363 0l-33 141h-185l-32 -141h-106l176 700h109l176 -700h-105zM167 235h142l-44 188c-10 46 -21 113 -26 150h-3c-5 -37 -15 -104 -26 -150z" />
    <glyph glyph-name="uni0411" unicode="&#x411;" horiz-adv-x="502" 
d="M262 424c134 0 210 -83 210 -211c0 -140 -76 -213 -210 -213h-192v700h364v-95h-263v-181h91zM256 96c68 0 113 38 113 117c0 78 -45 117 -113 117h-85v-234h85z" />
    <glyph glyph-name="uni0412" unicode="&#x412;" horiz-adv-x="506" 
d="M375 360c60 -25 97 -84 97 -160c0 -125 -80 -200 -202 -200h-200v700h190c113 0 186 -73 186 -190c0 -68 -28 -123 -71 -150zM248 605h-77v-201h80c61 0 92 35 92 103c0 66 -30 98 -95 98zM257 95c74 0 112 34 112 105c0 72 -45 109 -116 109h-82v-214h86z" />
    <glyph glyph-name="uni0413" unicode="&#x413;" horiz-adv-x="422" 
d="M405 700v-96h-234v-604h-101v700h335z" />
    <glyph glyph-name="uni0403" unicode="&#x403;" horiz-adv-x="422" 
d="M353 893l-109 -125h-76l93 125h92zM405 700v-96h-234v-604h-101v700h335z" />
    <glyph glyph-name="uni0490" unicode="&#x490;" horiz-adv-x="422" 
d="M320 815h85v-211h-234v-604h-101v700h250v115z" />
    <glyph glyph-name="uni0414" unicode="&#x414;" horiz-adv-x="556" 
d="M475 95h62v-212h-99v117h-333v-117h-99v212h41c51 52 75 157 79 267l12 338h337v-605zM375 95v510h-142l-10 -271c-4 -99 -22 -180 -55 -239h207z" />
    <glyph glyph-name="uni0415" unicode="&#x415;" horiz-adv-x="461" 
d="M171 95h252v-95h-353v700h343v-95h-242v-203h223v-93h-223v-214z" />
    <glyph glyph-name="uni0401" unicode="&#x401;" horiz-adv-x="461" 
d="M176 782c-30 0 -50 19 -50 49c0 31 20 50 50 50s50 -19 50 -50c0 -30 -20 -49 -50 -49zM322 782c-31 0 -51 19 -51 49c0 31 20 50 51 50c30 0 50 -19 50 -50c0 -30 -20 -49 -50 -49zM171 95h252v-95h-353v700h343v-95h-242v-203h223v-93h-223v-214z" />
    <glyph glyph-name="uni0416" unicode="&#x416;" horiz-adv-x="724" 
d="M610 0l-165 297l-34 -53v-244h-98v244l-34 53l-165 -297h-114l223 382l-206 318h116l132 -216l48 -87v303h98v-304l51 91l129 213h116l-206 -318l223 -382h-114z" />
    <glyph glyph-name="uni0417" unicode="&#x417;" horiz-adv-x="487" 
d="M335 363c90 -25 121 -88 121 -169c0 -130 -93 -207 -216 -207c-134 0 -213 95 -219 213h102c4 -62 41 -116 116 -116c66 0 115 42 115 115c0 76 -51 116 -125 116h-53v90h44c73 0 116 34 116 110c0 64 -35 102 -97 102c-73 0 -102 -48 -106 -118h-100
c7 128 76 215 206 215c120 0 199 -75 199 -200c0 -74 -28 -123 -103 -151z" />
    <glyph glyph-name="uni0418" unicode="&#x418;" horiz-adv-x="554" 
d="M70 0v700h99v-306c0 -50 -4 -141 -11 -202l3 -2c13 34 31 83 50 124l170 386h103v-700h-99v305c0 53 4 147 9 205l-3 2c-13 -36 -33 -90 -50 -129l-169 -383h-102z" />
    <glyph glyph-name="uni0419" unicode="&#x419;" horiz-adv-x="554" 
d="M280 768c-70 0 -118 44 -121 120h69c2 -35 21 -53 51 -53c31 0 50 18 52 53h69c-3 -77 -51 -120 -120 -120zM70 0v700h99v-306c0 -50 -4 -141 -11 -202l3 -2c13 34 31 83 50 124l170 386h103v-700h-99v305c0 53 4 147 9 205l-3 2c-13 -36 -33 -90 -50 -129l-169 -383
h-102z" />
    <glyph glyph-name="uni040D" unicode="&#x40d;" horiz-adv-x="554" 
d="M342 768h-76l-109 125h92zM70 0v700h99v-306c0 -50 -4 -141 -11 -202l3 -2c13 34 31 83 50 124l170 386h103v-700h-99v305c0 53 4 147 9 205l-3 2c-13 -36 -33 -90 -50 -129l-169 -383h-102z" />
    <glyph glyph-name="uni041A" unicode="&#x41a;" horiz-adv-x="503" 
d="M387 0l-171 306l-46 -69v-237h-100v700h100v-304l46 82l140 222h118l-200 -305l229 -395h-116z" />
    <glyph glyph-name="uni040C" unicode="&#x40c;" horiz-adv-x="503" 
d="M352 893l-109 -125h-76l93 125h92zM387 0l-171 306l-46 -69v-237h-100v700h100v-304l46 82l140 222h118l-200 -305l229 -395h-116z" />
    <glyph glyph-name="uni041B" unicode="&#x41b;" horiz-adv-x="525" 
d="M109 700h346v-700h-101v605h-148c-10 -204 -19 -364 -32 -447c-18 -127 -77 -168 -174 -168v92c44 0 66 27 77 99c11 73 20 230 32 519z" />
    <glyph glyph-name="uni041C" unicode="&#x41c;" horiz-adv-x="688" 
d="M515 700h103v-700h-99v273c2 80 4 153 8 226l-4 2c-20 -56 -44 -120 -68 -184l-61 -159h-100l-61 159c-24 64 -48 128 -68 184l-4 -2c3 -73 6 -146 8 -226v-273h-99v700h103l118 -284c16 -40 40 -107 51 -139h4c11 32 35 99 51 139z" />
    <glyph glyph-name="uni041D" unicode="&#x41d;" horiz-adv-x="540" 
d="M369 700h101v-700h-101v307h-198v-307h-101v700h101v-298h198v298z" />
    <glyph glyph-name="uni041E" unicode="&#x41e;" horiz-adv-x="528" 
d="M264 -13c-134 0 -214 89 -214 235v256c0 146 80 235 214 235s214 -89 214 -235v-256c0 -146 -80 -235 -214 -235zM264 86c72 0 110 48 110 136v256c0 88 -38 136 -110 136c-73 0 -110 -48 -110 -136v-256c0 -88 37 -136 110 -136z" />
    <glyph glyph-name="uni041F" unicode="&#x41f;" horiz-adv-x="539" 
d="M470 700v-700h-101v604h-198v-604h-101v700h400z" />
    <glyph glyph-name="uni0420" unicode="&#x420;" horiz-adv-x="501" 
d="M255 700c137 0 215 -83 215 -226c0 -147 -78 -228 -215 -228h-84v-246h-101v700h185zM254 342c76 0 113 42 113 132c0 86 -37 130 -113 130h-83v-262h83z" />
    <glyph glyph-name="uni0421" unicode="&#x421;" horiz-adv-x="492" 
d="M253 -12c-123 0 -203 77 -203 218v288c0 142 79 219 202 219c127 0 202 -76 208 -215h-100c-6 82 -42 119 -109 119c-59 0 -98 -39 -98 -123v-288c0 -83 39 -122 100 -122c68 0 104 38 111 118h100c-7 -138 -82 -214 -211 -214z" />
    <glyph glyph-name="uni0422" unicode="&#x422;" horiz-adv-x="427" 
d="M411 700v-96h-146v-604h-103v604h-145v96h394z" />
    <glyph glyph-name="uni0423" unicode="&#x423;" horiz-adv-x="436" 
d="M327 700h106l-170 -553c-36 -116 -85 -157 -191 -157h-25v91h28c54 0 77 28 98 98l8 26l-176 495h107l114 -341z" />
    <glyph glyph-name="uni040E" unicode="&#x40e;" horiz-adv-x="436" 
d="M221 768c-70 0 -118 44 -121 120h69c2 -35 21 -53 51 -53c31 0 50 18 52 53h69c-3 -77 -51 -120 -120 -120zM327 700h106l-170 -553c-36 -116 -85 -157 -191 -157h-25v91h28c54 0 77 28 98 98l8 26l-176 495h107l114 -341z" />
    <glyph glyph-name="uni0424" unicode="&#x424;" horiz-adv-x="668" 
d="M284 -62v78h-16c-141 0 -240 92 -240 256v153c0 165 99 259 240 259h16v74h100v-74h16c141 0 240 -94 240 -259v-153c0 -164 -99 -256 -240 -256h-16v-78h-100zM264 113h20v474h-20c-83 0 -135 -49 -135 -162v-153c0 -110 52 -159 135 -159zM384 113h19
c84 0 136 48 136 159v153c0 113 -52 162 -136 162h-19v-474z" />
    <glyph glyph-name="uni0425" unicode="&#x425;" horiz-adv-x="476" 
d="M461 0h-112l-110 259l-111 -259h-112l167 363l-157 337h111l102 -237l101 237h111l-157 -337z" />
    <glyph glyph-name="uni0427" unicode="&#x427;" horiz-adv-x="509" 
d="M338 700h101v-702h-101v259c-30 -11 -65 -16 -95 -16c-127 0 -206 81 -206 223v236h101v-239c0 -85 42 -125 116 -125c28 0 56 4 84 15v349z" />
    <glyph glyph-name="uni0426" unicode="&#x426;" horiz-adv-x="549" 
d="M431 -117v117h-361v700h101v-604h194v604h101v-604h64v-213h-99z" />
    <glyph glyph-name="uni0428" unicode="&#x428;" horiz-adv-x="805" 
d="M70 0v700h100v-604h182v604h100v-604h183v604h100v-700h-665z" />
    <glyph glyph-name="uni0429" unicode="&#x429;" horiz-adv-x="815" 
d="M733 96h62v-213h-99v117h-626v700h100v-604h181v604h100v-604h182v604h100v-604z" />
    <glyph glyph-name="uni040F" unicode="&#x40f;" horiz-adv-x="539" 
d="M220 -117v117h-150v700h101v-604h198v604h101v-700h-151v-117h-99z" />
    <glyph glyph-name="uni042C" unicode="&#x42c;" horiz-adv-x="487" 
d="M70 0v700h101v-279h86c136 0 210 -84 210 -211c0 -138 -74 -210 -210 -210h-187zM171 93h81c69 0 111 38 111 117c0 77 -42 115 -111 115h-81v-232z" />
    <glyph glyph-name="uni042A" unicode="&#x42a;" horiz-adv-x="557" 
d="M143 0v607h-128v93h230v-278h79c140 0 213 -84 213 -211c0 -138 -73 -211 -213 -211h-181zM245 94h73c74 0 116 38 116 117c0 77 -42 115 -116 115h-73v-232z" />
    <glyph glyph-name="uni042B" unicode="&#x42b;" horiz-adv-x="709" 
d="M70 0v700h103v-280h71c139 0 212 -83 212 -210c0 -138 -73 -210 -212 -210h-174zM539 0v700h101v-700h-101zM173 94h66c71 0 112 38 112 116c0 76 -41 114 -112 114h-66v-230z" />
    <glyph glyph-name="uni0409" unicode="&#x409;" horiz-adv-x="752" 
d="M0 -10v93c45 0 68 30 78 100c11 71 19 242 30 517h340v-280h73c138 0 211 -82 211 -213c0 -135 -75 -207 -211 -207h-176v605h-142c-8 -186 -17 -363 -30 -447c-21 -127 -75 -168 -173 -168zM448 94h67c72 0 113 38 113 116c0 76 -41 114 -113 114h-67v-230z" />
    <glyph glyph-name="uni040A" unicode="&#x40a;" horiz-adv-x="781" 
d="M548 414c140 0 213 -82 213 -206c0 -136 -73 -208 -213 -208h-183v317h-194v-317h-101v700h101v-288h194v288h101v-286h82zM543 94c72 0 113 37 113 114c0 73 -41 110 -113 110h-77v-224h77z" />
    <glyph glyph-name="uni0405" unicode="&#x405;" horiz-adv-x="465" 
d="M231 -13c-124 0 -204 77 -205 205h103c1 -72 40 -107 102 -107c67 0 100 40 100 96c0 139 -293 147 -293 355c0 101 74 177 192 177c120 0 192 -77 195 -196h-103c-2 67 -37 99 -91 99c-57 0 -90 -32 -90 -82c0 -137 294 -137 294 -354c0 -104 -73 -193 -204 -193z" />
    <glyph glyph-name="uni0404" unicode="&#x404;" horiz-adv-x="492" 
d="M364 202h100c-7 -138 -82 -214 -211 -214c-123 0 -203 77 -203 218v288c0 142 79 219 202 219c127 0 202 -76 208 -215h-100c-6 82 -42 119 -109 119c-59 0 -98 -39 -98 -123v-95h179v-87h-179v-106c0 -83 39 -122 100 -122c68 0 104 38 111 118z" />
    <glyph glyph-name="uni042D" unicode="&#x42d;" horiz-adv-x="492" 
d="M240 713c123 0 202 -77 202 -219v-288c0 -141 -80 -218 -203 -218c-129 0 -204 76 -211 214h100c7 -80 43 -118 111 -118c61 0 100 39 100 122v106h-179v87h179v95c0 84 -39 123 -98 123c-67 0 -103 -37 -109 -119h-100c6 139 81 215 208 215z" />
    <glyph glyph-name="uni0406" unicode="&#x406;" horiz-adv-x="240" 
d="M70 700h101v-700h-101v700z" />
    <glyph glyph-name="uni0407" unicode="&#x407;" horiz-adv-x="240" 
d="M49 782c-30 0 -50 19 -50 49c0 31 20 50 50 50s50 -19 50 -50c0 -30 -20 -49 -50 -49zM195 782c-31 0 -51 19 -51 49c0 31 20 50 51 50c30 0 50 -19 50 -50c0 -30 -20 -49 -50 -49zM70 700h101v-700h-101v700z" />
    <glyph glyph-name="uni0408" unicode="&#x408;" horiz-adv-x="284" 
d="M0 -116v99c75 0 116 30 116 129v588h101v-588c0 -148 -75 -228 -217 -228z" />
    <glyph glyph-name="uni040B" unicode="&#x40b;" horiz-adv-x="573" 
d="M375 519c93 0 145 -70 145 -219v-300h-97v298c0 93 -24 129 -74 129c-52 0 -86 -41 -89 -113v-314h-103v604h-140v96h384v-96h-141v-148c25 38 63 63 115 63z" />
    <glyph glyph-name="uni042E" unicode="&#x42e;" horiz-adv-x="756" 
d="M494 710c133 0 211 -89 211 -239v-242c0 -150 -78 -239 -211 -239s-211 89 -211 239v78h-113v-307h-100v700h100v-298h113v69c0 150 78 239 211 239zM602 229v242c0 93 -37 141 -108 141s-107 -48 -107 -141v-242c0 -93 36 -141 107 -141s108 48 108 141z" />
    <glyph glyph-name="uni042F" unicode="&#x42f;" horiz-adv-x="502" 
d="M17 0l151 270c-80 27 -125 101 -125 205c0 143 78 225 209 225h180v-700h-101v253h-62l-140 -253h-112zM252 348h79v256h-78c-70 0 -107 -43 -107 -127c0 -83 37 -129 106 -129z" />
    <glyph glyph-name="uni0402" unicode="&#x402;" horiz-adv-x="566" 
d="M375 519c93 0 145 -70 145 -219v-115c-1 -121 -65 -191 -186 -191v93c61 1 89 32 89 99v112c0 93 -24 129 -74 129c-53 0 -89 -42 -89 -114v-313h-103v604h-140v96h384v-96h-141v-148c25 38 63 63 115 63z" />
    <glyph glyph-name="uni0414.loclBGR" horiz-adv-x="513" 
d="M0 -117v212h53l150 605h107l150 -605h53v-212h-100v117h-314v-117h-99zM155 95h204l-64 279c-12 60 -26 138 -37 201h-3c-8 -51 -24 -144 -36 -200z" />
    <glyph glyph-name="uni041B.loclBGR" horiz-adv-x="469" 
d="M179 700h110l172 -700h-105l-85 386c-13 62 -25 130 -35 186h-4c-10 -56 -21 -124 -35 -186l-84 -386h-106z" />
    <glyph glyph-name="uni0430" unicode="&#x430;" horiz-adv-x="454" 
d="M225 540c113 0 171 -69 171 -190v-350h-79l-7 49c-21 -35 -59 -62 -117 -62c-97 0 -162 64 -162 163c0 108 75 163 191 163h77v37c0 62 -23 97 -76 97c-43 0 -75 -23 -80 -70h-97c5 101 73 163 179 163zM299 157v72h-77c-59 0 -93 -27 -93 -79c0 -48 31 -77 84 -77
s86 34 86 84z" />
    <glyph glyph-name="uni0431" unicode="&#x431;" horiz-adv-x="471" 
d="M261 490c97 0 165 -71 165 -197v-105c0 -128 -71 -199 -185 -199c-112 0 -183 71 -183 199v279c0 134 85 185 171 215c51 17 72 25 97 64l70 -57c-29 -54 -72 -76 -123 -91c-54 -15 -119 -36 -119 -125v-27c26 29 63 44 107 44zM327 188v99c0 76 -31 109 -84 109
c-47 0 -87 -28 -87 -105v-103c0 -73 32 -105 85 -105c55 0 86 32 86 105z" />
    <glyph glyph-name="uni0432" unicode="&#x432;" horiz-adv-x="430" 
d="M323 280c59 -23 85 -75 85 -127c0 -95 -61 -153 -184 -153h-166v527h158c107 0 165 -55 165 -146c0 -38 -21 -77 -58 -101zM152 446v-135h59c49 0 75 24 75 68c0 41 -26 67 -76 67h-58zM228 82c57 0 84 26 84 74s-27 73 -84 73h-76v-147h76z" />
    <glyph glyph-name="uni0433" unicode="&#x433;" horiz-adv-x="346" 
d="M332 528v-93h-176v-435h-98v528h274z" />
    <glyph glyph-name="uni0453" unicode="&#x453;" horiz-adv-x="346" 
d="M298 734l-89 -124h-76l75 124h90zM332 528v-93h-176v-435h-98v528h274z" />
    <glyph glyph-name="uni0491" unicode="&#x491;" horiz-adv-x="347" 
d="M251 627h82v-192h-177v-435h-98v527h193v100z" />
    <glyph glyph-name="uni0434" unicode="&#x434;" horiz-adv-x="476" 
d="M0 -117v206h40c29 42 42 111 47 185c5 84 9 169 11 253h306v-438h60v-206h-93v117h-278v-117h-93zM150 89h158v349h-119c-1 -62 -3 -124 -8 -186c-5 -67 -15 -121 -31 -163z" />
    <glyph glyph-name="uni0435" unicode="&#x435;" horiz-adv-x="454" 
d="M320 165h97c-9 -112 -78 -176 -192 -176c-110 0 -179 72 -179 198v157c0 125 69 196 180 196c113 0 184 -71 184 -196v-117h-267v-40c0 -72 31 -105 84 -105c59 0 84 26 93 83zM227 449c-53 0 -84 -32 -84 -104v-45h171v45c0 72 -32 104 -87 104z" />
    <glyph glyph-name="uni0451" unicode="&#x451;" horiz-adv-x="454" 
d="M151 620c-30 0 -50 20 -50 50s20 50 50 50s50 -20 50 -50s-20 -50 -50 -50zM291 620c-31 0 -51 20 -51 50s20 50 51 50c30 0 50 -20 50 -50s-20 -50 -50 -50zM320 165h97c-9 -112 -78 -176 -192 -176c-110 0 -179 72 -179 198v157c0 125 69 196 180 196
c113 0 184 -71 184 -196v-117h-267v-40c0 -72 31 -105 84 -105c59 0 84 26 93 83zM227 449c-53 0 -84 -32 -84 -104v-45h171v45c0 72 -32 104 -87 104z" />
    <glyph glyph-name="uni0436" unicode="&#x436;" horiz-adv-x="632" 
d="M526 0l-133 226l-30 -34v-192h-93v191l-31 35l-133 -226h-109l182 301l-163 226h113l78 -120c20 -32 42 -67 63 -102v222h93v-222c21 35 43 70 63 102l78 120h113l-163 -226l181 -301h-109z" />
    <glyph glyph-name="uni0437" unicode="&#x437;" horiz-adv-x="419" 
d="M314 278c41 -19 78 -63 78 -122c0 -103 -73 -168 -185 -168c-115 0 -184 66 -189 166h93c4 -46 37 -76 96 -76c56 0 90 29 90 83c0 45 -32 72 -89 72h-67v75h64c48 0 77 25 77 71c0 42 -27 70 -76 70c-53 0 -80 -26 -84 -81h-94c6 107 68 169 176 169
c104 0 172 -62 172 -151c0 -57 -31 -91 -62 -108z" />
    <glyph glyph-name="uni0438" unicode="&#x438;" horiz-adv-x="467" 
d="M58 0v527h94v-222c0 -42 0 -89 -2 -146l3 -2c8 27 38 106 55 149l102 221h99v-527h-94v202c0 51 2 117 5 170l-3 1c-5 -22 -38 -117 -59 -162l-101 -211h-99z" />
    <glyph glyph-name="uni0439" unicode="&#x439;" horiz-adv-x="467" 
d="M235 609c-70 0 -118 44 -121 120h69c2 -35 21 -53 51 -53c31 0 50 18 52 53h69c-3 -77 -51 -120 -120 -120zM58 0v527h94v-222c0 -42 0 -89 -2 -146l3 -2c8 27 38 106 55 149l102 221h99v-527h-94v202c0 51 2 117 5 170l-3 1c-5 -22 -38 -117 -59 -162l-101 -211h-99z
" />
    <glyph glyph-name="uni045D" unicode="&#x45d;" horiz-adv-x="467" 
d="M133 734h90l75 -124h-76zM58 0v527h94v-222c0 -42 0 -89 -2 -146l3 -2c8 27 38 106 55 149l102 221h99v-527h-94v202c0 51 2 117 5 170l-3 1c-5 -22 -38 -117 -59 -162l-101 -211h-99z" />
    <glyph glyph-name="uni043A" unicode="&#x43a;" horiz-adv-x="441" 
d="M332 0l-143 226l-35 -38v-188h-96v527h96v-224l62 97l87 127h115l-166 -225l191 -302h-111z" />
    <glyph glyph-name="uni045C" unicode="&#x45c;" horiz-adv-x="441" 
d="M327 734l-89 -124h-76l75 124h90zM332 0l-143 226l-35 -38v-188h-96v527h96v-224l62 97l87 127h115l-166 -225l191 -302h-111z" />
    <glyph glyph-name="uni043B" unicode="&#x43b;" horiz-adv-x="452" 
d="M0 -7v93c53 0 64 57 72 141c6 76 13 198 15 300h307v-527h-96v438h-118c-1 -62 -7 -166 -13 -227c-13 -147 -63 -218 -167 -218z" />
    <glyph glyph-name="uni043C" unicode="&#x43c;" horiz-adv-x="556" 
d="M400 527h97v-527h-90v209c0 55 4 109 6 155l-5 1c-14 -46 -29 -93 -43 -132l-43 -102h-89l-43 102c-14 39 -28 86 -43 132l-5 -1c2 -46 6 -100 6 -155v-209h-90v527h97l81 -190c15 -37 29 -72 40 -110h3c12 38 26 73 40 110z" />
    <glyph glyph-name="uni043D" unicode="&#x43d;" horiz-adv-x="457" 
d="M302 527h97v-527h-97v225h-147v-225h-97v527h97v-212h147v212z" />
    <glyph glyph-name="uni043E" unicode="&#x43e;" horiz-adv-x="463" 
d="M231 -12c-114 0 -185 71 -185 200v152c0 129 71 200 185 200c115 0 186 -71 186 -200v-152c0 -129 -71 -200 -186 -200zM231 82c55 0 88 32 88 106v152c0 74 -33 106 -88 106c-54 0 -87 -32 -87 -106v-152c0 -74 33 -106 87 -106z" />
    <glyph glyph-name="uni043F" unicode="&#x43f;" horiz-adv-x="457" 
d="M399 527v-527h-97v438h-147v-438h-97v527h341z" />
    <glyph glyph-name="uni0440" unicode="&#x440;" horiz-adv-x="467" 
d="M254 539c100 0 168 -75 168 -204v-145c0 -128 -66 -202 -168 -202c-38 0 -75 15 -101 42v-210h-95v708h70l7 -49c26 34 72 60 119 60zM323 190v145c0 78 -31 113 -85 113c-50 0 -85 -37 -85 -112v-146c0 -69 32 -111 85 -111c56 0 85 34 85 111z" />
    <glyph glyph-name="uni0441" unicode="&#x441;" horiz-adv-x="437" 
d="M224 -11c-110 0 -178 70 -178 193v166c0 122 68 192 178 192c114 0 179 -70 183 -192h-98c-2 67 -31 99 -84 99c-51 0 -81 -32 -81 -99v-166c0 -67 30 -100 81 -100c54 0 84 33 87 100h97c-3 -123 -73 -193 -185 -193z" />
    <glyph glyph-name="uni0442" unicode="&#x442;" horiz-adv-x="356" 
d="M347 527v-91h-121v-436h-96v436h-120v91h337z" />
    <glyph glyph-name="uni0443" unicode="&#x443;" horiz-adv-x="417" 
d="M313 527h100l-169 -568c-25 -86 -62 -149 -141 -149h-52v94h33c41 0 54 29 67 72l23 79l-170 472h102l109 -334z" />
    <glyph glyph-name="uni045E" unicode="&#x45e;" horiz-adv-x="417" 
d="M208 611c-70 0 -118 44 -121 120h69c2 -35 21 -53 51 -53c31 0 50 18 52 53h69c-3 -77 -51 -120 -120 -120zM313 527h100l-169 -568c-25 -86 -62 -149 -141 -149h-52v94h33c41 0 54 29 67 72l23 79l-170 472h102l109 -334z" />
    <glyph glyph-name="uni0444" unicode="&#x444;" horiz-adv-x="623" 
d="M379 535c117 0 198 -74 198 -206v-127c0 -133 -82 -209 -198 -209h-21v-173h-94v173h-20c-117 0 -198 76 -198 209v127c0 132 81 206 198 206h20v187h94v-187h21zM244 88h20v353h-20c-58 0 -100 -35 -100 -112v-127c0 -78 42 -114 100 -114zM479 202v127
c0 77 -42 112 -100 112h-21v-353h21c58 0 100 36 100 114z" />
    <glyph glyph-name="uni0445" unicode="&#x445;" horiz-adv-x="407" 
d="M408 0h-110l-94 187l-95 -187h-110l146 264l-135 263h107l87 -179l86 179h107l-133 -263z" />
    <glyph glyph-name="hacy.001" horiz-adv-x="407" 
d="M408 0h-110l-94 187l-95 -187h-110l146 264l-135 263h107l87 -179l86 179h107l-133 -263z" />
    <glyph glyph-name="uni0447" unicode="&#x447;" horiz-adv-x="432" 
d="M282 527h92v-527h-92v184c-29 -15 -60 -19 -89 -19c-94 0 -164 64 -164 213v149h92v-149c0 -92 34 -122 81 -122c23 0 54 2 80 19v252z" />
    <glyph glyph-name="uni0446" unicode="&#x446;" horiz-adv-x="474" 
d="M363 -117v117h-305v527h97v-438h145v438h97v-438h60v-206h-94z" />
    <glyph glyph-name="uni0448" unicode="&#x448;" horiz-adv-x="682" 
d="M528 527h95v-527h-570v527h95v-437h142v437h96v-437h142v437z" />
    <glyph glyph-name="uni0449" unicode="&#x449;" horiz-adv-x="705" 
d="M629 88h59v-205h-92v117h-538v527h96v-437h142v437h96v-437h141v437h96v-439z" />
    <glyph glyph-name="uni045F" unicode="&#x45f;" horiz-adv-x="457" 
d="M399 527v-527h-124v-117h-90v117h-127v527h97v-437h147v437h97z" />
    <glyph glyph-name="uni044C" unicode="&#x44c;" horiz-adv-x="424" 
d="M238 349c100 0 174 -70 174 -173c0 -105 -74 -176 -174 -176h-180v527h97v-178h83zM228 88c51 0 86 34 86 88c0 53 -35 85 -86 85h-73v-173h73z" />
    <glyph glyph-name="uni044A" unicode="&#x44a;" horiz-adv-x="480" 
d="M294 349c101 0 174 -70 174 -173c0 -105 -73 -176 -174 -176h-179v438h-105v89h202v-178h82zM285 88c51 0 86 34 86 88c0 53 -35 85 -86 85h-73v-173h73z" />
    <glyph glyph-name="uni044B" unicode="&#x44b;" horiz-adv-x="632" 
d="M238 344c100 0 174 -69 174 -171c0 -103 -74 -173 -174 -173h-180v525h97v-181h83zM476 525h97v-525h-97v525zM228 88c51 0 86 32 86 86c0 51 -35 82 -86 82h-73v-168h73z" />
    <glyph glyph-name="uni0459" unicode="&#x459;" horiz-adv-x="662" 
d="M0 -7v93c53 0 65 57 72 141c6 76 13 198 15 300h306v-183h83c100 0 174 -69 174 -171c0 -103 -74 -173 -174 -173h-178v438h-118c-1 -62 -7 -166 -13 -227c-13 -147 -63 -218 -167 -218zM393 88h74c51 0 86 32 86 86c0 51 -35 82 -86 82h-74v-168z" />
    <glyph glyph-name="uni045A" unicode="&#x45a;" horiz-adv-x="666" 
d="M480 328c100 0 174 -65 174 -160c0 -100 -74 -168 -174 -168h-179v238h-146v-238h-97v527h97v-199h146v199h97v-199h82zM471 88c50 0 85 30 85 80c0 45 -35 72 -85 72h-73v-152h73z" />
    <glyph glyph-name="uni0455" unicode="&#x455;" horiz-adv-x="417" 
d="M214 -13c-120 0 -188 78 -189 175h96c1 -48 30 -85 91 -85c51 0 80 25 80 66c0 106 -259 70 -259 250c0 90 67 147 170 147c112 0 171 -70 175 -168h-95c-1 50 -27 80 -80 80c-46 0 -74 -23 -74 -60c0 -100 260 -61 260 -250c0 -93 -66 -155 -175 -155z" />
    <glyph glyph-name="uni0454" unicode="&#x454;" horiz-adv-x="437" 
d="M312 177h97c-3 -120 -73 -188 -185 -188c-110 0 -178 70 -178 193v166c0 122 68 192 178 192c114 0 179 -69 183 -188h-98c-2 64 -31 95 -84 95c-51 0 -81 -32 -81 -99v-47h158v-69h-158v-50c0 -67 30 -100 81 -100c54 0 84 31 87 95z" />
    <glyph glyph-name="uni044D" unicode="&#x44d;" horiz-adv-x="437" 
d="M213 540c110 0 178 -70 178 -192v-166c0 -123 -68 -193 -178 -193c-112 0 -182 68 -185 188h97c3 -64 33 -95 87 -95c51 0 81 33 81 100v50h-158v69h158v47c0 67 -30 99 -81 99c-53 0 -82 -31 -84 -95h-98c4 119 69 188 183 188z" />
    <glyph glyph-name="uni0456" unicode="&#x456;" horiz-adv-x="213" 
d="M106 615c-36 0 -61 26 -61 61c0 36 25 62 61 62s62 -26 62 -62c0 -34 -26 -61 -62 -61zM58 0v527h97v-527h-97z" />
    <glyph glyph-name="uni0457" unicode="&#x457;" horiz-adv-x="232" 
d="M51 624c-29 0 -48 19 -48 48c0 30 19 49 48 49s48 -19 48 -49c0 -29 -19 -48 -48 -48zM181 624c-29 0 -49 19 -49 48c0 30 20 49 49 49s49 -19 49 -49c0 -29 -20 -48 -49 -48zM67 0v527h97v-527h-97z" />
    <glyph glyph-name="uni0458" unicode="&#x458;" horiz-adv-x="246" 
d="M127 614c-37 0 -61 26 -61 61c0 36 24 62 61 62c35 0 61 -26 61 -62c0 -34 -26 -61 -61 -61zM-15 -193v93c67 1 94 34 94 100v527h96v-523c0 -123 -63 -196 -190 -197z" />
    <glyph glyph-name="uni045B" unicode="&#x45b;" horiz-adv-x="467" 
d="M269 540c92 0 146 -70 146 -219v-321h-97v318c0 94 -25 130 -75 130c-54 0 -90 -44 -90 -122v-326h-96v605h-64v55h64v64h96v-64h94v-55h-94v-130c26 40 65 65 116 65z" />
    <glyph glyph-name="uni044E" unicode="&#x44e;" horiz-adv-x="634" 
d="M409 540c110 0 180 -71 180 -199v-152c0 -129 -70 -200 -180 -200c-111 0 -180 71 -180 200v34h-77v-223h-94v527h94v-213h77v27c0 128 69 199 180 199zM492 189v152c0 73 -31 105 -83 105c-53 0 -84 -32 -84 -105v-152c0 -73 31 -106 84 -106c52 0 83 33 83 106z" />
    <glyph glyph-name="uni044F" unicode="&#x44f;" horiz-adv-x="418" 
d="M203 527h162v-527h-94v178h-57l-95 -178h-110l112 192c-54 22 -95 77 -95 163c0 107 72 172 177 172zM271 261v178h-64c-56 0 -86 -32 -86 -87c0 -59 28 -91 84 -91h66z" />
    <glyph glyph-name="uni0452" unicode="&#x452;" horiz-adv-x="469" 
d="M271 540c92 0 146 -70 146 -219v-334c0 -116 -64 -186 -191 -187v93c66 1 94 32 94 90v335c0 94 -25 130 -75 130c-54 0 -90 -44 -90 -122v-326h-96v609h-64v55h64v60h96v-60h94v-55h-94v-133c26 39 65 64 116 64z" />
    <glyph glyph-name="uni0432.loclBGR" horiz-adv-x="456" 
d="M312 393c65 -25 109 -81 109 -186c0 -140 -79 -218 -195 -218c-110 0 -174 70 -174 213v335c0 123 66 198 174 198c106 0 169 -71 169 -182c0 -75 -30 -130 -83 -160zM222 642c-45 0 -75 -36 -75 -105v-123l47 4c67 6 105 52 105 126c0 63 -23 98 -77 98zM226 82
c60 0 98 36 98 123c0 91 -38 129 -114 124l-63 -4v-135c0 -75 27 -108 79 -108z" />
    <glyph glyph-name="uni0433.loclBGR" horiz-adv-x="415" 
d="M204 -12c-109 0 -177 59 -177 154c0 180 254 151 254 251c0 37 -25 58 -69 58c-50 0 -77 -26 -79 -78h-94c4 97 62 167 173 167c102 0 166 -55 166 -147c0 -176 -253 -148 -253 -250c0 -41 33 -64 81 -64c55 0 85 29 87 83h97c-3 -97 -69 -174 -186 -174z" />
    <glyph glyph-name="uni0434.loclBGR" horiz-adv-x="470" 
d="M341 527h71v-554c0 -100 -68 -166 -177 -166c-106 0 -172 64 -176 164h95c4 -47 32 -74 81 -74s79 29 79 76v82c-26 -22 -60 -34 -99 -34c-99 0 -169 76 -169 193v126c0 124 70 200 168 200c49 0 90 -19 119 -55zM231 113c52 0 83 33 83 101v132c0 68 -35 101 -83 101
c-55 0 -87 -33 -87 -107v-126c0 -68 32 -101 87 -101z" />
    <glyph glyph-name="uni0436.loclBGR" horiz-adv-x="630" 
d="M523 0l-131 230l-31 -34v-196h-93v197l-30 33l-132 -230h-109l179 305l-160 222h112l101 -151l39 -65v412h93v-413l39 66l102 151h112l-160 -222l178 -305h-109z" />
    <glyph glyph-name="uni0437.loclBGR" horiz-adv-x="443" 
d="M303 190c73 -28 103 -87 103 -177c0 -128 -71 -205 -196 -205c-114 0 -183 67 -188 195h94c4 -71 38 -103 96 -103c63 0 96 43 96 118c0 79 -39 123 -108 123h-58v88h49c65 0 102 41 102 117c0 65 -31 104 -84 104c-50 0 -80 -35 -85 -100h-94c6 123 72 190 182 190
c111 0 175 -70 175 -188c0 -75 -17 -127 -84 -162z" />
    <glyph glyph-name="uni0438.loclBGR" horiz-adv-x="469" 
d="M314 527h97v-527h-69l-10 59c-27 -45 -71 -72 -131 -72c-91 0 -148 65 -148 209v331h97v-326c0 -86 23 -122 74 -122c55 0 90 44 90 122v326z" />
    <glyph glyph-name="uni0439.loclBGR" horiz-adv-x="469" 
d="M230 609c-70 0 -118 44 -121 120h69c2 -35 21 -53 51 -53c31 0 50 18 52 53h69c-3 -77 -51 -120 -120 -120zM314 527h97v-527h-69l-10 59c-27 -45 -71 -72 -131 -72c-91 0 -148 65 -148 209v331h97v-326c0 -86 23 -122 74 -122c55 0 90 44 90 122v326z" />
    <glyph glyph-name="uni045D.loclBGR" horiz-adv-x="474" 
d="M278 610h-76l-89 124h90zM320 527h97v-527h-69l-10 59c-27 -45 -71 -72 -131 -72c-91 0 -148 65 -148 209v331h97v-326c0 -86 23 -122 74 -122c55 0 90 44 90 122v326z" />
    <glyph glyph-name="uni043A.loclBGR" horiz-adv-x="441" 
d="M333 0l-140 241l-39 -42v-199h-96v724h96v-403l150 206h115l-162 -211l187 -316h-111z" />
    <glyph glyph-name="uni043B.loclBGR" horiz-adv-x="406" 
d="M300 0l-58 237c-12 56 -29 136 -36 174h-5c-7 -38 -24 -118 -36 -174l-58 -237h-103l145 527h108l145 -527h-102z" />
    <glyph glyph-name="uni043F.loclBGR" horiz-adv-x="469" 
d="M268 540c91 0 148 -65 148 -209v-331h-97v326c0 86 -23 122 -74 122c-55 0 -90 -44 -90 -122v-326h-97v527h69l10 -59c27 45 71 72 131 72z" />
    <glyph glyph-name="uni0442.loclBGR" horiz-adv-x="716" 
d="M519 540c89 0 144 -69 144 -210v-330h-96v327c0 88 -25 121 -70 121c-53 0 -88 -44 -88 -122v-326h-96v327c0 88 -27 121 -72 121c-52 0 -87 -44 -87 -122v-326h-96v527h69l10 -59c26 45 68 72 126 72c56 0 98 -26 123 -80c26 51 71 80 133 80z" />
    <glyph glyph-name="uni0446.loclBGR" horiz-adv-x="487" 
d="M377 -117v117c-21 8 -40 30 -46 63c-26 -48 -69 -75 -131 -75c-93 0 -147 65 -147 209v330h97v-326c0 -86 22 -121 73 -121c55 0 90 44 90 121v326h97v-373c0 -53 12 -73 60 -73v-198h-93z" />
    <glyph glyph-name="uni0448.loclBGR" horiz-adv-x="716" 
d="M562 527h96v-527h-69l-10 59c-26 -45 -68 -72 -126 -72c-56 0 -98 26 -123 80c-26 -51 -71 -80 -133 -80c-89 0 -144 69 -144 210v330h96v-327c0 -88 25 -121 70 -121c53 0 88 44 88 122v326h96v-327c0 -88 27 -121 72 -121c52 0 87 44 87 122v326z" />
    <glyph glyph-name="uni0449.loclBGR" horiz-adv-x="735" 
d="M657 154c0 -53 13 -73 61 -73v-198h-93v117c-20 8 -40 30 -46 64c-24 -48 -66 -76 -126 -76c-55 0 -98 26 -122 81c-25 -50 -68 -81 -134 -81c-88 0 -144 68 -144 210v329h96v-327c0 -88 25 -120 70 -120c54 0 88 44 88 121v326h96v-327c0 -88 26 -120 72 -120
c53 0 86 44 86 121v326h96v-373z" />
    <glyph glyph-name="uni044C.loclBGR" horiz-adv-x="424" 
d="M245 367c99 1 167 -72 167 -186c0 -119 -73 -194 -182 -194s-177 69 -177 178v362h96v-198c25 24 58 38 96 38zM230 79c53 0 84 34 84 102c0 63 -30 96 -83 96c-52 0 -82 -34 -82 -97c0 -68 30 -101 81 -101z" />
    <glyph glyph-name="uni044A.loclBGR" horiz-adv-x="481" 
d="M303 367c99 1 166 -72 166 -186c0 -119 -73 -194 -181 -194c-110 0 -178 69 -178 178v273h-105v89h201v-198c25 24 59 38 97 38zM288 79c53 0 83 34 83 102c0 63 -30 96 -83 96c-52 0 -82 -34 -82 -97c0 -68 30 -101 82 -101z" />
    <glyph glyph-name="uni044E.loclBGR" horiz-adv-x="633" 
d="M407 537c110 0 180 -71 180 -199v-149c0 -129 -70 -200 -180 -200c-111 0 -180 71 -180 200v34h-77v-223h-94v722h94v-408h77v24c0 128 69 199 180 199zM490 189v149c0 73 -30 105 -83 105s-84 -32 -84 -105v-149c0 -73 31 -106 84 -106s83 33 83 106z" />
    <glyph glyph-name="zero" unicode="0" horiz-adv-x="471" 
d="M235 -10c-113 0 -185 75 -185 196v326c0 122 72 198 185 198c115 0 186 -76 186 -198v-326c0 -121 -71 -196 -186 -196zM235 81c59 0 92 38 92 105v326c0 69 -33 107 -92 107c-58 0 -91 -38 -91 -107v-326c0 -67 33 -105 91 -105z" />
    <glyph glyph-name="one" unicode="1" horiz-adv-x="297" 
d="M155 700h72v-697h-97v566l-105 -74v110z" />
    <glyph glyph-name="two" unicode="2" horiz-adv-x="421" 
d="M28 0v67c0 230 260 326 260 471c0 44 -27 82 -80 82c-49 0 -80 -33 -82 -97h-93c6 119 71 188 174 188c116 0 177 -82 177 -170c0 -189 -256 -295 -256 -451h261v-90h-361z" />
    <glyph glyph-name="three" unicode="3" horiz-adv-x="421" 
d="M229 422c100 -5 151 -81 151 -179v-46c0 -136 -62 -208 -182 -208c-110 0 -180 69 -183 200h96c4 -78 35 -106 85 -106c60 0 87 35 87 115v43c0 77 -36 104 -97 104h-64v68l123 199h-206v89h324v-66z" />
    <glyph glyph-name="four" unicode="4" horiz-adv-x="432" 
d="M430 263v-89h-78v-174h-95v174h-248v52l145 474h97l-135 -437h142l10 246h84v-246h78z" />
    <glyph glyph-name="five" unicode="5" horiz-adv-x="429" 
d="M238 475c94 0 158 -71 158 -199v-71c0 -144 -66 -216 -173 -216c-106 0 -172 70 -176 189h98c3 -67 29 -95 78 -95c48 0 75 30 75 121v73c0 76 -23 106 -73 106c-41 0 -67 -22 -77 -67h-95v384h321v-87h-224v-166c23 17 53 28 88 28z" />
    <glyph glyph-name="six" unicode="6" horiz-adv-x="445" 
d="M243 459c92 0 165 -71 165 -175v-111c0 -112 -76 -184 -179 -184s-179 72 -179 184v356c0 111 74 182 178 182c100 0 170 -70 176 -179h-98c-4 54 -34 85 -78 85c-47 0 -80 -30 -80 -86v-107c23 22 57 35 95 35zM310 174v105c0 57 -35 90 -83 90c-46 0 -79 -33 -79 -91
v-104c0 -59 34 -91 81 -91s81 32 81 91z" />
    <glyph glyph-name="seven" unicode="7" horiz-adv-x="370" 
d="M-4 701h349v-67l-189 -635h-101l180 611h-239v91z" />
    <glyph glyph-name="eight" unicode="8" horiz-adv-x="462" 
d="M341 365c49 -30 78 -87 78 -154v-24c0 -124 -73 -198 -188 -198s-188 74 -188 198v24c0 67 29 124 77 154c-40 32 -65 85 -65 144v16c0 114 68 186 176 186s176 -72 176 -186v-16c0 -59 -25 -111 -66 -144zM150 522v-15c0 -66 30 -101 81 -101s81 35 81 101v15
c0 63 -30 95 -81 95s-81 -32 -81 -95zM323 187v24c0 68 -34 104 -92 104s-92 -36 -92 -104v-24c0 -68 34 -103 92 -103s92 35 92 103z" />
    <glyph glyph-name="nine" unicode="9" horiz-adv-x="445" 
d="M216 711c103 0 179 -72 179 -184v-356c0 -111 -74 -182 -178 -182c-100 0 -170 70 -176 179h98c4 -54 34 -85 78 -85c47 0 80 30 80 86v107c-23 -22 -57 -35 -95 -35c-92 0 -165 71 -165 175v111c0 112 76 184 179 184zM218 331c46 0 79 33 79 91v104c0 59 -34 91 -81 91
s-81 -32 -81 -91v-105c0 -57 35 -90 83 -90z" />
    <glyph glyph-name="fraction" unicode="&#x2044;" horiz-adv-x="560" 
d="M11 0l455 700h83l-456 -700h-82z" />
    <glyph glyph-name="asterisk" unicode="*" horiz-adv-x="306" 
d="M105 484l-53 38l48 67l-77 25l19 62l78 -26v82h65v-82l78 25l20 -61l-78 -25l48 -67l-53 -38l-48 66z" />
    <glyph glyph-name="backslash" unicode="\" horiz-adv-x="496" 
d="M130 813l323 -932h-87l-322 932h86z" />
    <glyph glyph-name="periodcentered" unicode="&#xb7;" horiz-adv-x="194" 
d="M97 197c-36 0 -61 24 -61 61c0 36 25 60 61 60s61 -24 61 -60c0 -37 -25 -61 -61 -61z" />
    <glyph glyph-name="bullet" unicode="&#x2022;" horiz-adv-x="207" 
d="M103 169c-49 0 -82 33 -82 82c0 48 33 81 82 81c48 0 81 -33 81 -81c0 -49 -33 -82 -81 -82z" />
    <glyph glyph-name="colon" unicode=":" horiz-adv-x="182" 
d="M95 332c-36 0 -61 24 -61 61c0 36 25 60 61 60s61 -24 61 -60c0 -37 -25 -61 -61 -61zM95 -11c-36 0 -61 24 -61 61c0 36 25 60 61 60s61 -24 61 -60c0 -37 -25 -61 -61 -61z" />
    <glyph glyph-name="comma" unicode="," horiz-adv-x="169" 
d="M47 98h96l-57 -234h-60z" />
    <glyph glyph-name="ellipsis" unicode="&#x2026;" horiz-adv-x="543" 
d="M97 -10c-36 0 -61 24 -61 61c0 36 25 60 61 60s61 -24 61 -60c0 -37 -25 -61 -61 -61zM271 -10c-36 0 -60 24 -60 61c0 36 24 60 60 60c37 0 61 -24 61 -60c0 -37 -24 -61 -61 -61zM446 -10c-36 0 -61 24 -61 61c0 36 25 60 61 60s61 -24 61 -60c0 -37 -25 -61 -61 -61z
" />
    <glyph glyph-name="exclam" unicode="!" horiz-adv-x="249" 
d="M76 167v533h97v-533h-97zM125 -11c-37 0 -61 24 -61 61c0 36 24 60 61 60c36 0 60 -24 60 -60c0 -37 -24 -61 -60 -61z" />
    <glyph glyph-name="exclamdown" unicode="&#xa1;" horiz-adv-x="249" 
d="M125 538c36 0 60 -24 60 -60c0 -37 -24 -61 -60 -61c-37 0 -61 24 -61 61c0 36 24 60 61 60zM76 360h97v-540h-97v540z" />
    <glyph glyph-name="numbersign" unicode="#" horiz-adv-x="617" 
d="M88 0l41 179h-119l17 74h118l42 183h-118l16 74h119l44 190h88l-44 -190h107l43 190h89l-43 -190h119l-17 -74h-119l-42 -183h119l-17 -74h-118l-42 -179h-89l41 179h-106l-41 -179h-88zM233 253h107l42 183h-107z" />
    <glyph glyph-name="period" unicode="." horiz-adv-x="194" 
d="M97 -11c-36 0 -61 24 -61 61c0 36 25 60 61 60s61 -24 61 -60c0 -37 -25 -61 -61 -61z" />
    <glyph glyph-name="question" unicode="?" horiz-adv-x="393" 
d="M131 167v45c0 180 139 194 139 321c0 50 -28 89 -82 89c-52 0 -84 -37 -86 -102h-94c6 118 74 192 179 192s179 -72 179 -178c0 -162 -139 -179 -139 -324v-43h-96zM181 -11c-37 0 -61 24 -61 61c0 36 24 60 61 60c36 0 60 -24 60 -60c0 -37 -24 -61 -60 -61z" />
    <glyph glyph-name="questiondown" unicode="&#xbf;" horiz-adv-x="393" 
d="M207 537c36 0 61 -24 61 -60s-25 -61 -61 -61s-61 25 -61 61s25 60 61 60zM256 359v-45c0 -180 -139 -193 -139 -321c0 -50 29 -89 83 -89c52 0 84 37 85 103h95c-6 -119 -74 -192 -180 -192c-104 0 -179 71 -179 178c0 161 139 179 139 323v43h96z" />
    <glyph glyph-name="quotedbl" unicode="&#x22;" horiz-adv-x="282" 
d="M40 700h96l-57 -235h-60zM169 700h96l-56 -235h-60z" />
    <glyph glyph-name="quotesingle" unicode="'" horiz-adv-x="152" 
d="M40 700h96l-57 -235h-60z" />
    <glyph glyph-name="semicolon" unicode=";" horiz-adv-x="178" 
d="M92 333c-37 0 -61 24 -61 60c0 37 24 61 61 61c36 0 60 -24 60 -61c0 -36 -24 -60 -60 -60zM47 98h96l-57 -234h-60z" />
    <glyph glyph-name="slash" unicode="/" horiz-adv-x="424" 
d="M330 813h86l-322 -932h-87z" />
    <glyph glyph-name="underscore" unicode="_" horiz-adv-x="388" 
d="M19 -9h350v-93h-350v93z" />
    <glyph glyph-name="braceleft" unicode="{" horiz-adv-x="338" 
d="M212 491c0 -60 -24 -108 -65 -139c41 -31 65 -79 65 -139v-156c0 -52 32 -85 81 -85v-92c-106 0 -176 72 -176 186v157c0 50 -29 77 -71 82v94c42 5 71 32 71 83v152c0 114 70 186 176 186v-92c-49 0 -81 -33 -81 -85v-152z" />
    <glyph glyph-name="braceright" unicode="}" horiz-adv-x="338" 
d="M221 478c0 -50 29 -77 71 -82v-94c-42 -5 -71 -32 -71 -83v-152c0 -114 -70 -186 -176 -186v92c49 0 81 33 81 85v152c0 60 24 108 65 139c-41 31 -65 79 -65 139v156c0 52 -32 85 -81 85v92c106 0 176 -72 176 -186v-157z" />
    <glyph glyph-name="bracketleft" unicode="[" horiz-adv-x="298" 
d="M252 730h-86v-760h86v-90h-182v940h182v-90z" />
    <glyph glyph-name="bracketright" unicode="]" horiz-adv-x="298" 
d="M46 -30h86v760h-86v90h182v-940h-182v90z" />
    <glyph glyph-name="parenleft" unicode="(" horiz-adv-x="292" 
d="M246 -122c-110 3 -176 74 -176 187v568c0 113 66 184 176 187v-91c-50 -2 -79 -35 -79 -91v-577c0 -57 29 -89 79 -92v-91z" />
    <glyph glyph-name="parenright" unicode=")" horiz-adv-x="292" 
d="M46 -122v91c50 3 79 35 79 92v577c0 56 -29 89 -79 91v91c110 -3 176 -74 176 -187v-568c0 -113 -66 -184 -176 -187z" />
    <glyph glyph-name="emdash" unicode="&#x2014;" horiz-adv-x="551" 
d="M38 300h475v-86h-475v86z" />
    <glyph glyph-name="endash" unicode="&#x2013;" horiz-adv-x="421" 
d="M38 214v86h345v-86h-345z" />
    <glyph glyph-name="hyphen" unicode="-" horiz-adv-x="321" 
d="M38 214v86h245v-86h-245z" />
    <glyph glyph-name="emdash.case" horiz-adv-x="551" 
d="M38 400h475v-86h-475v86z" />
    <glyph glyph-name="endash.case" horiz-adv-x="421" 
d="M38 314v86h345v-86h-345z" />
    <glyph glyph-name="hyphen.case" horiz-adv-x="321" 
d="M38 314v86h245v-86h-245z" />
    <glyph glyph-name="guillemotleft" unicode="&#xab;" horiz-adv-x="469" 
d="M155 87l-117 152v36l117 152h95l-129 -170l129 -170h-95zM335 87l-117 152v36l117 152h95l-129 -170l129 -170h-95z" />
    <glyph glyph-name="guillemotright" unicode="&#xbb;" horiz-adv-x="469" 
d="M134 87h-95l129 170l-129 170h95l117 -152v-36zM314 87h-95l129 170l-129 170h95l117 -152v-36z" />
    <glyph glyph-name="guilsinglleft" unicode="&#x2039;" horiz-adv-x="289" 
d="M155 87l-117 152v36l117 152h95l-129 -170l129 -170h-95z" />
    <glyph glyph-name="guilsinglright" unicode="&#x203a;" horiz-adv-x="289" 
d="M134 87h-95l129 170l-129 170h95l117 -152v-36z" />
    <glyph glyph-name="quotedblbase" unicode="&#x201e;" horiz-adv-x="169" 
d="M47 98h96l-57 -234h-60z" />
    <glyph glyph-name="quotedblleft" unicode="&#x201c;" horiz-adv-x="282" 
d="M112 465h-96l57 235h60zM242 465h-97l57 235h60z" />
    <glyph glyph-name="quotedblright" unicode="&#x201d;" horiz-adv-x="282" 
d="M40 700h96l-57 -235h-60zM169 700h96l-56 -235h-60z" />
    <glyph glyph-name="quoteleft" unicode="&#x2018;" horiz-adv-x="152" 
d="M112 465h-96l57 235h60z" />
    <glyph glyph-name="quoteright" unicode="&#x2019;" horiz-adv-x="152" 
d="M40 704h96l-57 -235h-60z" />
    <glyph glyph-name="quotesinglbase" unicode="&#x201a;" horiz-adv-x="169" 
d="M47 98h96l-57 -234h-60z" />
    <glyph glyph-name="guillemotleft.case" horiz-adv-x="469" 
d="M155 147l-117 152v36l117 152h95l-129 -170l129 -170h-95zM335 147l-117 152v36l117 152h95l-129 -170l129 -170h-95z" />
    <glyph glyph-name="guillemotright.case" horiz-adv-x="469" 
d="M134 147h-95l129 170l-129 170h95l117 -152v-36zM314 147h-95l129 170l-129 170h95l117 -152v-36z" />
    <glyph glyph-name="guilsinglleft.case" horiz-adv-x="289" 
d="M155 147l-117 152v36l117 152h95l-129 -170l129 -170h-95z" />
    <glyph glyph-name="guilsinglright.case" horiz-adv-x="289" 
d="M134 147h-95l129 170l-129 170h95l117 -152v-36z" />
    <glyph glyph-name="space" unicode=" " horiz-adv-x="215" 
 />
    <glyph glyph-name="cent" unicode="&#xa2;" horiz-adv-x="434" 
d="M406 182c-1 -108 -56 -176 -145 -190v-66h-79v67c-85 15 -136 82 -136 189v163c0 106 51 173 136 188v66h79v-65c90 -14 141 -81 143 -189h-97c-1 67 -31 99 -83 99c-51 0 -80 -32 -80 -99v-163c0 -67 29 -100 80 -100c53 0 83 33 85 100h97z" />
    <glyph glyph-name="currency" unicode="&#xa4;" horiz-adv-x="468" 
d="M93 85l-58 43l52 68c-13 24 -21 58 -21 92v71c0 33 8 68 21 92l-52 67l57 44l44 -57c25 18 61 29 98 29c36 0 73 -11 98 -29l44 57l57 -44l-52 -67c13 -24 21 -58 21 -92v-71c0 -34 -8 -68 -21 -93l52 -67l-57 -43l-45 57c-25 -18 -61 -29 -97 -29s-72 11 -97 29z
M234 199c48 0 77 31 77 90v69c0 59 -29 90 -77 90s-77 -31 -77 -90v-69c0 -59 29 -90 77 -90z" />
    <glyph glyph-name="dollar" unicode="$" horiz-adv-x="465" 
d="M435 180c0 -93 -59 -175 -166 -190v-75h-82v75c-99 17 -160 90 -161 202h103c1 -72 40 -107 102 -107c67 0 100 40 100 96c0 139 -293 147 -293 355c0 88 56 157 149 173v76h82v-75c96 -15 153 -88 156 -193h-103c-2 67 -37 99 -91 99c-57 0 -90 -32 -90 -82
c0 -137 294 -137 294 -354z" />
    <glyph glyph-name="Euro" unicode="&#x20ac;" horiz-adv-x="555" 
d="M428 202h100c-7 -138 -83 -214 -211 -214c-124 0 -203 77 -203 218v58h-81v60h81v56h-81v60h81v54c0 142 78 219 201 219c127 0 202 -76 208 -215h-100c-5 82 -41 119 -108 119c-60 0 -98 -39 -98 -123v-54h143v-60h-143v-56h143v-60h-143v-58c0 -83 39 -122 100 -122
c68 0 103 38 111 118z" />
    <glyph glyph-name="sterling" unicode="&#xa3;" horiz-adv-x="478" 
d="M167 94h279v-94h-417v84c45 10 62 42 62 95v125h-63v86h63v128c0 117 69 193 172 193s173 -74 179 -199h-98c-5 68 -34 103 -81 103c-45 0 -74 -33 -74 -96v-129h168v-86h-168v-122c0 -37 -9 -66 -22 -88z" />
    <glyph glyph-name="yen" unicode="&#xa5;" horiz-adv-x="446" 
d="M444 700l-147 -407h133v-63h-156v-61h156v-64h-156v-105h-101v105h-157v64h157v61h-157v63h134l-147 407h105l79 -233c10 -30 25 -75 35 -110h2l36 112l78 231h106z" />
    <glyph glyph-name="plus" unicode="+" horiz-adv-x="461" 
d="M417 355v-90h-142v-146h-90v146h-142v90h142v146h90v-146h142z" />
    <glyph glyph-name="minus" unicode="&#x2212;" horiz-adv-x="461" 
d="M43 265v90h374v-90h-374z" />
    <glyph glyph-name="multiply" unicode="&#xd7;" horiz-adv-x="463" 
d="M102 107l-63 64l129 129l-128 128l62 64l130 -129l129 129l63 -64l-128 -128l128 -129l-63 -64l-129 129z" />
    <glyph glyph-name="divide" unicode="&#xf7;" horiz-adv-x="461" 
d="M231 399c-34 0 -58 25 -58 58c0 35 24 59 58 59s58 -24 58 -59c0 -33 -24 -58 -58 -58zM43 263v85h374v-85h-374zM231 89c-34 0 -58 24 -58 58s24 58 58 58s58 -24 58 -58s-24 -58 -58 -58z" />
    <glyph glyph-name="equal" unicode="=" horiz-adv-x="461" 
d="M43 350v89h374v-89h-374zM43 170v88h374v-88h-374z" />
    <glyph glyph-name="notequal" unicode="&#x2260;" horiz-adv-x="470" 
d="M422 365h-126l-37 -79h163v-90h-205l-33 -70h-85l33 70h-84v90h126l37 79h-163v90h205l33 71h85l-33 -71h84v-90z" />
    <glyph glyph-name="greater" unicode="&#x3e;" horiz-adv-x="431" 
d="M43 488l344 -137v-97l-344 -137v91l246 95l-246 94v91z" />
    <glyph glyph-name="less" unicode="&#x3c;" horiz-adv-x="431" 
d="M388 488v-91l-246 -94l246 -95v-91l-344 137v97z" />
    <glyph glyph-name="greaterequal" unicode="&#x2265;" horiz-adv-x="431" 
d="M43 552l344 -137v-97l-344 -137v91l246 95l-246 94v91zM43 63v85h344v-85h-344z" />
    <glyph glyph-name="lessequal" unicode="&#x2264;" horiz-adv-x="431" 
d="M388 552v-91l-246 -94l246 -95v-91l-344 137v97zM44 63v85h344v-85h-344z" />
    <glyph glyph-name="plusminus" unicode="&#xb1;" horiz-adv-x="470" 
d="M280 408h142v-88h-142v-137h-90v137h-142v88h142v137h90v-137zM48 53v85h374v-85h-374z" />
    <glyph glyph-name="approxequal" unicode="&#x2248;" horiz-adv-x="470" 
d="M381 436l48 -66c-29 -38 -63 -52 -100 -52c-67 0 -127 41 -180 41c-26 0 -47 -14 -60 -31l-48 67c30 37 63 51 100 51c66 0 127 -41 180 -41c25 0 46 14 60 31zM381 269l48 -67c-29 -38 -63 -52 -100 -52c-67 0 -127 42 -180 42c-26 0 -47 -15 -60 -32l-48 68
c30 37 63 51 100 51c66 0 127 -42 180 -42c25 0 46 15 60 32z" />
    <glyph glyph-name="asciitilde" unicode="~" horiz-adv-x="470" 
d="M380 363l52 -62c-30 -45 -65 -62 -104 -62c-65 0 -129 47 -178 47c-27 0 -46 -14 -62 -37l-50 63c31 44 65 61 103 61c64 0 129 -48 178 -48c26 0 46 15 61 38z" />
    <glyph glyph-name="logicalnot" unicode="&#xac;" horiz-adv-x="470" 
d="M430 354v-163h-88v73h-294v90h382z" />
    <glyph glyph-name="emptyset" unicode="&#x2205;" horiz-adv-x="801" 
d="M754 732l-97 -123c61 -63 95 -152 95 -259c0 -217 -141 -360 -353 -360c-73 0 -138 17 -191 48l-55 -70h-105l95 121c-62 62 -97 152 -97 261c0 217 141 360 353 360c75 0 141 -18 194 -50l57 72h104zM128 350c0 -80 24 -147 67 -195l347 440c-40 23 -89 36 -143 36
c-163 0 -271 -112 -271 -281zM669 350c0 78 -23 144 -64 193l-346 -440c40 -22 87 -34 140 -34c162 0 270 113 270 281z" />
    <glyph glyph-name="infinity" unicode="&#x221e;" horiz-adv-x="627" 
d="M439 409c78 0 142 -62 142 -158c0 -94 -62 -155 -141 -155c-59 0 -99 32 -126 75c-28 -43 -68 -75 -127 -75c-79 0 -141 61 -141 155c0 96 64 158 143 158c57 0 96 -29 125 -67c28 38 68 67 125 67zM193 181c37 0 54 32 72 74c-17 40 -36 69 -72 69
c-34 0 -59 -24 -59 -72c0 -44 25 -71 59 -71zM434 181c34 0 59 27 59 71c0 48 -25 72 -59 72c-36 0 -55 -29 -71 -69c17 -42 34 -74 71 -74z" />
    <glyph glyph-name="integral" unicode="&#x222b;" horiz-adv-x="323" 
d="M24 -190v93c63 1 89 31 89 84v538c0 115 63 185 187 185v-92c-64 -1 -90 -32 -90 -84v-538c0 -115 -63 -185 -186 -186z" />
    <glyph glyph-name="product" unicode="&#x220f;" horiz-adv-x="512" 
d="M70 -99v799h372v-800h-99v704h-174v-703h-99z" />
    <glyph glyph-name="summation" unicode="&#x2211;" horiz-adv-x="375" 
d="M35 -2v82l151 270l-151 270v82h305v-90h-198l129 -233v-58l-129 -233h198v-90h-305z" />
    <glyph glyph-name="radical" unicode="&#x221a;" horiz-adv-x="487" 
d="M474 792l-152 -792h-139l-85 413h-85v87h163l76 -410l127 702h95z" />
    <glyph glyph-name="partialdiff" unicode="&#x2202;" horiz-adv-x="458" 
d="M176 736c127 -36 235 -140 236 -334v-213c0 -129 -70 -200 -184 -200c-112 0 -182 71 -182 200v120c0 129 68 200 171 200c36 0 67 -10 92 -30c-20 93 -83 150 -167 178zM314 189v120c0 73 -33 106 -85 106c-55 0 -85 -33 -85 -106v-120c0 -73 31 -106 84 -106
c54 0 86 33 86 106z" />
    <glyph glyph-name="percent" unicode="%" horiz-adv-x="583" 
d="M112 390c-61 0 -103 38 -103 109v101c0 71 42 110 103 110c59 0 101 -39 101 -110v-101c0 -71 -42 -109 -101 -109zM20 0l469 700h73l-468 -700h-74zM112 448c23 0 37 13 37 50v103c0 38 -14 51 -37 51c-24 0 -39 -13 -39 -51v-103c0 -37 15 -50 39 -50zM464 -9
c-61 0 -103 38 -103 109v102c0 71 42 110 103 110c59 0 101 -39 101 -110v-102c0 -71 -42 -109 -101 -109zM464 50c23 0 37 13 37 49v104c0 37 -14 50 -37 50c-24 0 -38 -13 -38 -50v-104c0 -36 14 -49 38 -49z" />
    <glyph glyph-name="perthousand" unicode="&#x2030;" horiz-adv-x="840" 
d="M121 390c-60 0 -102 38 -102 109v101c0 71 42 110 102 110s102 -39 102 -110v-101c0 -71 -42 -109 -102 -109zM12 0l484 700h74l-484 -700h-74zM121 448c23 0 38 13 38 50v103c0 38 -15 51 -38 51s-38 -13 -38 -51v-103c0 -37 15 -50 38 -50zM454 -9
c-60 0 -102 38 -102 109v102c0 71 42 110 102 110c59 0 101 -39 101 -110v-102c0 -71 -42 -109 -101 -109zM709 -9c-60 0 -102 38 -102 109v102c0 71 42 110 102 110c59 0 101 -39 101 -110v-102c0 -71 -42 -109 -101 -109zM454 50c23 0 37 13 37 49v104c0 37 -14 50 -37 50
c-24 0 -38 -13 -38 -50v-104c0 -36 14 -49 38 -49zM709 50c23 0 37 13 37 49v104c0 37 -14 50 -37 50c-24 0 -38 -13 -38 -50v-104c0 -36 14 -49 38 -49z" />
    <glyph glyph-name="lozenge" unicode="&#x25ca;" horiz-adv-x="467" 
d="M181 -1l-135 333v37l135 331h105l135 -331v-37l-135 -333h-105zM233 96l99 254l-99 254l-98 -254z" />
    <glyph glyph-name="at" unicode="@" horiz-adv-x="797" 
d="M407 730c218 0 344 -117 344 -330v-108c0 -134 -79 -189 -158 -189c-55 0 -87 26 -103 59c-18 -35 -51 -64 -108 -64c-77 0 -130 53 -130 152v114c0 104 54 153 126 153c44 0 73 -18 92 -50l7 38h62v-258c0 -41 11 -67 54 -68c51 0 79 39 79 113v108
c0 168 -95 253 -265 253c-180 0 -281 -97 -281 -270v-121c0 -191 103 -297 285 -297c88 0 156 20 205 50l40 -62c-53 -37 -128 -65 -241 -65c-233 0 -369 137 -369 374v121c0 220 135 347 361 347zM394 176c38 0 65 26 65 79v107c0 42 -22 78 -66 78c-36 0 -59 -23 -59 -74
v-114c0 -52 22 -76 60 -76z" />
    <glyph glyph-name="ampersand" unicode="&#x26;" horiz-adv-x="588" 
d="M553 0h-104c-14 22 -29 43 -43 64c-44 -46 -98 -77 -164 -77c-91 0 -172 61 -172 174c0 94 55 160 114 216c-44 70 -72 131 -72 184c0 77 48 152 151 152c107 0 151 -77 150 -155c-1 -83 -55 -142 -112 -196l101 -143c12 25 21 49 26 68h96c-13 -48 -34 -102 -64 -151
c30 -42 61 -87 93 -136zM202 558c0 -30 17 -69 48 -120c41 39 72 76 72 119c0 36 -19 70 -59 70c-36 0 -61 -25 -61 -69zM248 78c40 0 75 26 104 61c-41 58 -81 111 -116 161c-39 -40 -69 -81 -69 -131c0 -55 36 -91 81 -91z" />
    <glyph glyph-name="paragraph" unicode="&#xb6;" horiz-adv-x="599" 
d="M529 702v-794h-98v702h-124v-702h-98v475c-97 0 -163 61 -163 160c0 98 66 159 163 159h320z" />
    <glyph glyph-name="section" unicode="&#xa7;" horiz-adv-x="422" 
d="M326 215c34 -27 58 -63 58 -114c0 -94 -66 -155 -172 -155c-117 0 -182 77 -183 174h96c1 -47 27 -84 85 -84c49 0 77 24 77 66c0 104 -261 77 -261 254c0 57 27 100 75 125c-36 26 -59 62 -59 114c0 88 66 143 164 143c109 0 164 -68 168 -166h-94c-2 49 -25 78 -74 78
c-44 0 -68 -23 -68 -56c0 -97 254 -72 254 -258c0 -53 -23 -95 -66 -121zM236 270c38 5 59 31 59 61c0 46 -44 71 -97 93c-41 0 -76 -24 -76 -65s41 -64 114 -89z" />
    <glyph glyph-name="copyright" unicode="&#xa9;" horiz-adv-x="696" 
d="M349 -9c-188 0 -299 119 -299 323v81c0 201 111 318 299 318c187 0 297 -117 297 -318v-81c0 -204 -110 -323 -297 -323zM349 55c148 0 228 92 228 259v81c0 164 -80 254 -228 254c-150 0 -230 -90 -230 -254v-81c0 -167 80 -259 230 -259zM347 148
c-80 0 -130 52 -130 141v125c0 89 50 140 130 140c81 0 129 -51 130 -140h-71c-1 47 -22 70 -58 70c-37 0 -59 -23 -59 -70v-125c0 -47 22 -70 59 -70s59 23 61 70h71c-1 -89 -52 -141 -133 -141z" />
    <glyph glyph-name="registered" unicode="&#xae;" horiz-adv-x="459" 
d="M233 713c112 0 178 -68 178 -187v-58c0 -124 -66 -194 -178 -194c-113 0 -180 70 -180 194v58c0 119 67 187 180 187zM374 468v57c0 100 -51 152 -141 152c-91 0 -142 -52 -142 -152v-57c0 -104 51 -159 142 -159c90 0 141 55 141 159zM312 539c0 -37 -16 -63 -44 -73
l53 -96h-44l-49 90h-21v-90h-40v248h68c49 0 77 -29 77 -79zM207 579v-81h28c24 0 37 14 37 41c0 26 -13 40 -37 40h-28z" />
    <glyph glyph-name="trademark" unicode="&#x2122;" horiz-adv-x="472" 
d="M24 652v48h161v-48h-55v-223h-50v223h-56zM387 700h55v-271h-49v57c0 42 3 102 4 129l-3 1c-6 -16 -15 -42 -23 -65l-19 -54h-47l-19 54c-8 23 -17 49 -23 65l-3 -1c1 -27 4 -87 4 -129v-57h-49v271h55l26 -64c8 -18 28 -74 32 -92c5 18 25 73 32 92z" />
    <glyph glyph-name="degree" unicode="&#xb0;" horiz-adv-x="313" 
d="M26 579c0 80 52 133 131 133c78 0 130 -53 130 -133s-52 -133 -130 -133c-79 0 -131 53 -131 133zM93 579c0 -41 25 -68 64 -68c38 0 63 27 63 68s-25 68 -63 68c-39 0 -64 -27 -64 -68z" />
    <glyph glyph-name="bar" unicode="|" horiz-adv-x="210" 
d="M56 800h98v-892h-98v892z" />
    <glyph glyph-name="brokenbar" unicode="&#xa6;" horiz-adv-x="190" 
d="M46 495v305h98v-305h-98zM46 -82v305h98v-305h-98z" />
    <glyph glyph-name="dagger" unicode="&#x2020;" horiz-adv-x="370" 
d="M347 520v-87h-116v-528h-92v528h-116v87h116v190h92v-190h116z" />
    <glyph glyph-name="daggerdbl" unicode="&#x2021;" horiz-adv-x="373" 
d="M348 433h-116v-228h116v-88h-116v-212h-92v212h-116v88h116v228h-116v87h116v190h92v-190h116v-87z" />
    <glyph glyph-name="asciicircum" unicode="^" horiz-adv-x="334" 
d="M324 475h-89l-68 146l-68 -146h-89l112 225h90z" />
    <glyph glyph-name="uni0308" unicode="&#x308;" 
d="M-190 620c-30 0 -50 20 -50 50s20 50 50 50s50 -20 50 -50s-20 -50 -50 -50zM-50 620c-31 0 -51 20 -51 50s20 50 51 50c30 0 50 -20 50 -50s-20 -50 -50 -50z" />
    <glyph glyph-name="uni0307" unicode="&#x307;" 
d="M-98 615c-36 0 -61 26 -61 61c0 36 25 62 61 62s62 -26 62 -62c0 -34 -26 -61 -62 -61z" />
    <glyph glyph-name="gravecomb" unicode="&#x300;" 
d="M-165 734h90l75 -124h-76z" />
    <glyph glyph-name="acutecomb" unicode="&#x301;" 
d="M0 734l-89 -124h-76l75 124h90z" />
    <glyph glyph-name="uni030B" unicode="&#x30b;" 
d="M-128 734l-87 -124h-69l72 124h84zM0 734l-92 -124h-69l77 124h84z" />
    <glyph glyph-name="uni0302" unicode="&#x302;" 
d="M1 609h-72l-50 70l-51 -70h-72l81 125h83z" />
    <glyph glyph-name="uni030C" unicode="&#x30c;" 
d="M-67 734h72l-81 -125h-83l-81 125h72l51 -70z" />
    <glyph glyph-name="uni0306" unicode="&#x306;" 
d="M-121 609c-70 0 -118 44 -121 120h69c2 -35 21 -53 51 -53c31 0 50 18 52 53h69c-3 -77 -51 -120 -120 -120z" />
    <glyph glyph-name="uni030A" unicode="&#x30a;" 
d="M-169 685c0 46 32 77 80 77c49 0 81 -31 81 -77c0 -47 -32 -79 -81 -79c-48 0 -80 32 -80 79zM-121 684c0 -19 13 -32 32 -32s32 13 32 32s-13 32 -32 32s-32 -13 -32 -32z" />
    <glyph glyph-name="tildecomb" unicode="&#x303;" 
d="M-157 653c-12 0 -21 -9 -24 -27h-65c3 59 35 92 79 92c42 0 56 -30 78 -30c14 0 23 10 26 27h63c-5 -57 -35 -92 -79 -92c-41 0 -55 30 -78 30z" />
    <glyph glyph-name="uni0304" unicode="&#x304;" 
d="M-202 704h202v-68h-202v68z" />
    <glyph glyph-name="uni0312" unicode="&#x312;" 
d="M-51 800l51 -196h-96l-18 196h63z" />
    <glyph glyph-name="uni0326" unicode="&#x326;" 
d="M-106 -265l17 195h88l-43 -195h-62z" />
    <glyph glyph-name="uni0327" unicode="&#x327;" 
d="M-110 -206c-51 0 -94 32 -99 82h60c6 -17 20 -27 40 -27c24 0 39 13 39 34c0 20 -12 32 -36 32c-12 0 -24 -3 -33 -8l-19 18l22 75h57l-14 -49c3 1 7 1 12 1c40 0 72 -28 72 -71c0 -53 -41 -87 -101 -87z" />
    <glyph glyph-name="uni0328" unicode="&#x328;" 
d="M-5 -184c-20 -8 -41 -9 -62 -9c-62 0 -93 37 -93 83c0 42 24 79 60 110h85c-33 -25 -55 -61 -55 -85c0 -23 15 -31 35 -31c10 0 21 1 30 3v-71z" />
    <glyph glyph-name="uni0335" unicode="&#x335;" 
d="M-210 372v56h200v-56h-200z" />
    <glyph glyph-name="uni0336" unicode="&#x336;" 
d="M-330 428h320v-56h-320v56z" />
    <glyph glyph-name="uni0337" unicode="&#x337;" 
d="M-269 -44l159 596h103l-159 -596h-103z" />
    <glyph glyph-name="uni0338" unicode="&#x338;" 
d="M-350 -38l213 776h101l-213 -776h-101z" />
    <glyph glyph-name="uni0308.case" 
d="M-193 782c-30 0 -50 19 -50 49c0 31 20 50 50 50s50 -19 50 -50c0 -30 -20 -49 -50 -49zM-47 782c-31 0 -51 19 -51 49c0 31 20 50 51 50c30 0 50 -19 50 -50c0 -30 -20 -49 -50 -49z" />
    <glyph glyph-name="uni0307.case" 
d="M-58 778c-37 0 -62 26 -62 62c0 35 25 61 62 61c35 0 61 -26 61 -61s-26 -62 -61 -62z" />
    <glyph glyph-name="gravecomb.case" 
d="M-5 768h-76l-109 125h92z" />
    <glyph glyph-name="acutecomb.case" 
d="M-185 768l93 125h92l-109 -125h-76z" />
    <glyph glyph-name="uni030B.case" 
d="M-119 893l-87 -124h-69l72 124h84zM9 893l-92 -124h-69l77 124h84z" />
    <glyph glyph-name="uni0302.case" 
d="M-2 768h-72l-50 70l-51 -70h-72l81 125h83z" />
    <glyph glyph-name="uni030C.case" 
d="M-76 893h72l-81 -125h-83l-81 125h72l51 -70z" />
    <glyph glyph-name="uni0306.case" 
d="M-117 768c-70 0 -118 44 -121 120h69c2 -35 21 -53 51 -53c31 0 50 18 52 53h69c-3 -77 -51 -120 -120 -120z" />
    <glyph glyph-name="uni030A.case" 
d="M-157 843c0 46 32 77 80 77c49 0 81 -31 81 -77c0 -47 -32 -79 -81 -79c-48 0 -80 32 -80 79zM-109 842c0 -19 13 -32 32 -32s32 13 32 32s-13 32 -32 32s-32 -13 -32 -32z" />
    <glyph glyph-name="tildecomb.case" 
d="M-146 818c-12 0 -21 -9 -24 -27h-65c3 59 35 92 79 92c42 0 56 -30 78 -30c14 0 23 10 26 27h63c-5 -57 -35 -92 -79 -92c-41 0 -55 30 -78 30z" />
    <glyph glyph-name="uni0304.case" 
d="M-197 862h202v-69h-202v69z" />
    <glyph glyph-name="uni0312.case" 
d="M-59 972l50 -196h-96l-17 196h63z" />
    <glyph glyph-name="uni0326.case" 
d="M-112 -265l17 195h88l-43 -195h-62z" />
    <glyph glyph-name="uni0327.case" 
d="M-100 -206c-51 0 -94 32 -99 82h60c6 -17 20 -27 40 -27c24 0 39 13 39 34c0 20 -12 32 -36 32c-12 0 -24 -3 -33 -8l-19 18l22 75h57l-14 -49c3 1 7 1 12 1c40 0 72 -28 72 -71c0 -53 -41 -87 -101 -87z" />
    <glyph glyph-name="uni0328.case" 
d="M-2 -184c-20 -8 -41 -9 -62 -9c-62 0 -93 37 -93 83c0 42 24 79 60 110h85c-33 -25 -55 -61 -55 -85c0 -23 15 -31 35 -31c10 0 21 1 30 3v-71z" />
    <glyph glyph-name="uni0337.case" 
d="M-265 -44l159 596h103l-159 -596h-103z" />
    <glyph glyph-name="uni0338.case" 
d="M-477 -38l213 776h101l-213 -776h-101z" />
    <glyph glyph-name="brevecombcy" 
d="M-118 609c-70 0 -118 44 -121 120h69c2 -35 21 -53 51 -53c31 0 50 18 52 53h69c-3 -77 -51 -120 -120 -120z" />
    <glyph glyph-name="brevecombcy.case" 
d="M-117 768c-70 0 -118 44 -121 120h69c2 -35 21 -53 51 -53c31 0 50 18 52 53h69c-3 -77 -51 -120 -120 -120z" />
    </font>
</defs>
</svg>
