<?xml version="1.0" standalone="no"?>
<!DOCTYPE svg PUBLIC "-//W3C//DTD SVG 1.1//EN" "http://www.w3.org/Graphics/SVG/1.1/DTD/svg11.dtd" >
<svg xmlns="http://www.w3.org/2000/svg" xmlns:xlink="http://www.w3.org/1999/xlink" version="1.1">
<metadata>
Created by FontForge 20161116 at Tue Jul  5 17:08:51 2016
 By Jimmy Wärting
Copyright \(c\) 2016 by Fontfabric LLC. All rights reserved.
</metadata>
<defs>
<font id="Akrobat-SemiBold" horiz-adv-x="0" >
  <font-face 
    font-family="Akrobat SemiBold"
    font-weight="600"
    font-stretch="normal"
    units-per-em="1000"
    panose-1="0 0 7 0 0 0 0 0 0 0"
    ascent="800"
    descent="-200"
    x-height="526"
    cap-height="700"
    bbox="-430 -257 806 959"
    underline-thickness="50"
    underline-position="-100"
    stemh="74"
    stemv="78"
    unicode-range="U+0020-25CA"
  />
<missing-glyph horiz-adv-x="500" 
d="M410 800v-1000h-317v1000h317zM333 733h-165v-33h65v-37h-66v-33h166v33h-66v37h66v33zM267 604h-100v-104h166v34h-66v70zM233 570v-36h-33v36h33zM333 473h-166v-33h66v-37h-66v-33h100v70h66v33zM333 413h-33v-66h-133v-34h166v100zM333 291h-100v-56h34v23h33v-47
h-100v80h-33v-113h166v113zM333 118h-166v-113h166v113zM300 85v-47h-100v47h100zM333 -18h-166v-33h70l-70 -47v-33h166v33h-102l70 47h32v33z" />
    <glyph glyph-name=".notdef" horiz-adv-x="500" 
d="M410 800v-1000h-317v1000h317zM333 733h-165v-33h65v-37h-66v-33h166v33h-66v37h66v33zM267 604h-100v-104h166v34h-66v70zM233 570v-36h-33v36h33zM333 473h-166v-33h66v-37h-66v-33h100v70h66v33zM333 413h-33v-66h-133v-34h166v100zM333 291h-100v-56h34v23h33v-47
h-100v80h-33v-113h166v113zM333 118h-166v-113h166v113zM300 85v-47h-100v47h100zM333 -18h-166v-33h70l-70 -47v-33h166v33h-102l70 47h32v33z" />
    <glyph glyph-name="A" unicode="A" horiz-adv-x="467" 
d="M372 0l-37 152h-203l-37 -152h-86l180 700h89l180 -700h-86zM150 228h167l-57 237c-11 45 -21 104 -25 131h-3c-4 -27 -14 -86 -25 -131z" />
    <glyph glyph-name="Aacute" unicode="&#xc1;" horiz-adv-x="467" 
d="M354 888l-107 -119h-68l92 119h83zM372 0l-37 152h-203l-37 -152h-86l180 700h89l180 -700h-86zM150 228h167l-57 237c-11 45 -21 104 -25 131h-3c-4 -27 -14 -86 -25 -131z" />
    <glyph glyph-name="Abreve" unicode="&#x102;" horiz-adv-x="467" 
d="M233 767c-70 0 -114 43 -117 118h60c3 -39 21 -59 56 -59c36 0 54 20 56 59h61c-3 -75 -47 -118 -116 -118zM372 0l-37 152h-203l-37 -152h-86l180 700h89l180 -700h-86zM150 228h167l-57 237c-11 45 -21 104 -25 131h-3c-4 -27 -14 -86 -25 -131z" />
    <glyph glyph-name="Acircumflex" unicode="&#xc2;" horiz-adv-x="467" 
d="M233 839l-54 -70h-65l82 119h73l81 -119h-64zM372 0l-37 152h-203l-37 -152h-86l180 700h89l180 -700h-86zM150 228h167l-57 237c-11 45 -21 104 -25 131h-3c-4 -27 -14 -86 -25 -131z" />
    <glyph glyph-name="Adieresis" unicode="&#xc4;" horiz-adv-x="467" 
d="M163 785c-27 0 -46 17 -46 44c0 28 19 45 46 45c26 0 44 -17 44 -45c0 -27 -18 -44 -44 -44zM301 785c-27 0 -46 17 -46 44c0 28 19 45 46 45s45 -17 45 -45c0 -27 -18 -44 -45 -44zM372 0l-37 152h-203l-37 -152h-86l180 700h89l180 -700h-86zM150 228h167l-57 237
c-11 45 -21 104 -25 131h-3c-4 -27 -14 -86 -25 -131z" />
    <glyph glyph-name="Agrave" unicode="&#xc0;" horiz-adv-x="467" 
d="M286 769h-68l-107 119h83zM372 0l-37 152h-203l-37 -152h-86l180 700h89l180 -700h-86zM150 228h167l-57 237c-11 45 -21 104 -25 131h-3c-4 -27 -14 -86 -25 -131z" />
    <glyph glyph-name="Amacron" unicode="&#x100;" horiz-adv-x="467" 
d="M329 856v-61h-193v61h193zM372 0l-37 152h-203l-37 -152h-86l180 700h89l180 -700h-86zM150 228h167l-57 237c-11 45 -21 104 -25 131h-3c-4 -27 -14 -86 -25 -131z" />
    <glyph glyph-name="Aogonek" unicode="&#x104;" horiz-adv-x="468" 
d="M387 -93c0 -25 17 -33 36 -33c12 0 22 0 31 3v-62c-15 -6 -34 -8 -51 -8c-63 0 -90 39 -90 82s23 80 59 111l-37 152h-203l-37 -152h-86l180 700h89l180 -700h-16c-32 -26 -55 -66 -55 -93zM150 228h167l-57 237c-11 45 -21 104 -25 131h-3c-4 -27 -14 -86 -25 -131z" />
    <glyph glyph-name="Aring" unicode="&#xc5;" horiz-adv-x="467" 
d="M233 764c-45 0 -76 30 -76 74c0 43 31 73 76 73s75 -30 75 -73c0 -44 -30 -74 -75 -74zM233 869c-19 0 -32 -13 -32 -32s13 -31 32 -31c18 0 31 12 31 31s-13 32 -31 32zM372 0l-37 152h-203l-37 -152h-86l180 700h89l180 -700h-86zM150 228h167l-57 237
c-11 45 -21 104 -25 131h-3c-4 -27 -14 -86 -25 -131z" />
    <glyph glyph-name="Atilde" unicode="&#xc3;" horiz-adv-x="467" 
d="M200 823c-11 0 -19 -9 -21 -28h-60c3 54 32 85 74 85c41 0 56 -31 78 -31c13 0 22 10 24 28h57c-5 -52 -32 -85 -74 -85c-40 0 -55 31 -78 31zM372 0l-37 152h-203l-37 -152h-86l180 700h89l180 -700h-86zM150 228h167l-57 237c-11 45 -21 104 -25 131h-3
c-4 -27 -14 -86 -25 -131z" />
    <glyph glyph-name="AE" unicode="&#xc6;" horiz-adv-x="702" 
d="M415 77h248v-77h-330v167h-175l-68 -167h-90l296 700h356v-76h-237v-231h219v-75h-219v-241zM190 243h143v367h-1c-14 -43 -30 -90 -46 -132z" />
    <glyph glyph-name="B" unicode="B" horiz-adv-x="500" 
d="M358 361c66 -21 106 -81 106 -165c0 -125 -77 -196 -200 -196h-191v700h178c115 0 186 -69 186 -186c0 -76 -31 -131 -79 -153zM245 623h-90v-227h92c71 0 106 40 106 116s-35 111 -108 111zM257 77c83 0 124 37 124 119c0 81 -52 123 -131 123h-95v-242h102z" />
    <glyph glyph-name="C" unicode="C" horiz-adv-x="486" 
d="M251 -12c-118 0 -197 76 -197 214v296c0 138 78 215 195 215c120 0 194 -74 201 -209h-81c-6 90 -48 132 -121 132c-67 0 -112 -44 -112 -138v-296c0 -93 47 -137 115 -137c74 0 115 43 123 131h81c-8 -133 -82 -208 -204 -208z" />
    <glyph glyph-name="Cacute" unicode="&#x106;" horiz-adv-x="486" 
d="M191 769l92 119h83l-107 -119h-68zM251 -12c-118 0 -197 76 -197 214v296c0 138 78 215 195 215c120 0 194 -74 201 -209h-81c-6 90 -48 132 -121 132c-67 0 -112 -44 -112 -138v-296c0 -93 47 -137 115 -137c74 0 115 43 123 131h81c-8 -133 -82 -208 -204 -208z" />
    <glyph glyph-name="Ccaron" unicode="&#x10c;" horiz-adv-x="486" 
d="M280 768h-73l-82 119h65l54 -70l53 70h64zM374 196h81c-8 -133 -82 -208 -204 -208c-118 0 -197 76 -197 214v296c0 138 78 215 195 215c120 0 194 -74 201 -209h-81c-6 90 -48 132 -121 132c-67 0 -112 -44 -112 -138v-296c0 -93 47 -137 115 -137c74 0 115 43 123 131z
" />
    <glyph glyph-name="Ccedilla" unicode="&#xc7;" horiz-adv-x="486" 
d="M455 196c-7 -123 -72 -197 -178 -207l-11 -38h13c38 0 71 -27 71 -69c0 -51 -40 -83 -96 -83c-50 0 -89 29 -94 78h55c5 -18 20 -28 40 -28c24 0 40 13 40 35c0 21 -13 33 -37 33c-12 0 -24 -3 -32 -8l-18 17l19 63c-105 10 -173 85 -173 213v296c0 138 78 215 195 215
c120 0 194 -74 201 -209h-81c-6 90 -48 132 -121 132c-67 0 -112 -44 -112 -138v-296c0 -93 47 -137 115 -137c74 0 115 43 123 131h81z" />
    <glyph glyph-name="Cdotaccent" unicode="&#x10a;" horiz-adv-x="486" 
d="M244 786c-33 0 -55 23 -55 55s22 55 55 55c32 0 55 -23 55 -55s-23 -55 -55 -55zM251 -12c-118 0 -197 76 -197 214v296c0 138 78 215 195 215c120 0 194 -74 201 -209h-81c-6 90 -48 132 -121 132c-67 0 -112 -44 -112 -138v-296c0 -93 47 -137 115 -137
c74 0 115 43 123 131h81c-8 -133 -82 -208 -204 -208z" />
    <glyph glyph-name="D" unicode="D" horiz-adv-x="505" 
d="M73 0v700h166c134 0 212 -78 212 -212v-276c0 -134 -79 -212 -211 -212h-167zM155 78h85c82 0 129 46 129 137v271c0 90 -46 136 -129 136h-85v-544z" />
    <glyph glyph-name="Eth" unicode="&#xd0;" horiz-adv-x="518" 
d="M249 700c135 0 215 -75 215 -207v-286c0 -131 -82 -207 -214 -207h-165v325h-75v62h75v313h164zM381 210v281c0 90 -47 131 -129 131h-85v-235h92v-62h-92v-247h85c82 0 129 42 129 132z" />
    <glyph glyph-name="Dcaron" unicode="&#x10e;" horiz-adv-x="505" 
d="M272 768h-73l-82 119h65l54 -70l53 70h64zM239 700c134 0 212 -78 212 -212v-276c0 -134 -79 -212 -211 -212h-167v700h166zM369 215v271c0 90 -46 136 -129 136h-85v-544h85c82 0 129 46 129 137z" />
    <glyph glyph-name="Dcroat" unicode="&#x110;" horiz-adv-x="518" 
d="M249 700c135 0 215 -75 215 -207v-286c0 -131 -82 -207 -214 -207h-165v325h-75v62h75v313h164zM381 210v281c0 90 -47 131 -129 131h-85v-235h92v-62h-92v-247h85c82 0 129 42 129 132z" />
    <glyph glyph-name="E" unicode="E" horiz-adv-x="458" 
d="M155 77h264v-77h-346v700h335v-76h-253v-231h235v-75h-235v-241z" />
    <glyph glyph-name="Eacute" unicode="&#xc9;" horiz-adv-x="458" 
d="M363 888l-107 -119h-68l92 119h83zM155 77h264v-77h-346v700h335v-76h-253v-231h235v-75h-235v-241z" />
    <glyph glyph-name="Ecaron" unicode="&#x11a;" horiz-adv-x="458" 
d="M277 768h-73l-82 119h65l54 -70l53 70h64zM155 77h264v-77h-346v700h335v-76h-253v-231h235v-75h-235v-241z" />
    <glyph glyph-name="Ecircumflex" unicode="&#xca;" horiz-adv-x="458" 
d="M242 839l-54 -70h-65l82 119h73l81 -119h-64zM155 77h264v-77h-346v700h335v-76h-253v-231h235v-75h-235v-241z" />
    <glyph glyph-name="Edieresis" unicode="&#xcb;" horiz-adv-x="458" 
d="M172 785c-27 0 -46 17 -46 44c0 28 19 45 46 45c26 0 44 -17 44 -45c0 -27 -18 -44 -44 -44zM310 785c-27 0 -46 17 -46 44c0 28 19 45 46 45s45 -17 45 -45c0 -27 -18 -44 -45 -44zM155 77h264v-77h-346v700h335v-76h-253v-231h235v-75h-235v-241z" />
    <glyph glyph-name="Edotaccent" unicode="&#x116;" horiz-adv-x="458" 
d="M241 786c-33 0 -55 23 -55 55s22 55 55 55c32 0 55 -23 55 -55s-23 -55 -55 -55zM155 77h264v-77h-346v700h335v-76h-253v-231h235v-75h-235v-241z" />
    <glyph glyph-name="Egrave" unicode="&#xc8;" horiz-adv-x="458" 
d="M295 769h-68l-107 119h83zM155 77h264v-77h-346v700h335v-76h-253v-231h235v-75h-235v-241z" />
    <glyph glyph-name="Emacron" unicode="&#x112;" horiz-adv-x="458" 
d="M338 856v-61h-193v61h193zM155 77h264v-77h-346v700h335v-76h-253v-231h235v-75h-235v-241z" />
    <glyph glyph-name="Eogonek" unicode="&#x118;" horiz-adv-x="464" 
d="M394 -126c12 0 22 0 31 3v-62c-15 -6 -34 -8 -51 -8c-63 0 -90 40 -90 83c0 42 26 79 65 110h-276v700h335v-76h-253v-231h235v-75h-235v-241h264v-77c-35 -26 -61 -63 -61 -90s17 -36 36 -36z" />
    <glyph glyph-name="F" unicode="F" horiz-adv-x="423" 
d="M397 624h-242v-238h224v-76h-224v-310h-82v700h324v-76z" />
    <glyph glyph-name="G" unicode="G" horiz-adv-x="501" 
d="M255 -11c-120 0 -201 77 -201 216v291c0 140 76 215 197 215c119 0 194 -73 199 -207h-81c-4 89 -47 129 -118 129c-72 0 -115 -43 -115 -138v-290c0 -94 48 -138 119 -138c73 0 121 44 121 131v106h-123v73h202v-179c-1 -132 -80 -209 -200 -209z" />
    <glyph glyph-name="Gbreve" unicode="&#x11e;" horiz-adv-x="501" 
d="M246 767c-70 0 -114 43 -117 118h60c3 -39 21 -59 56 -59c36 0 54 20 56 59h61c-3 -75 -47 -118 -116 -118zM255 -11c-120 0 -201 77 -201 216v291c0 140 76 215 197 215c119 0 194 -73 199 -207h-81c-4 89 -47 129 -118 129c-72 0 -115 -43 -115 -138v-290
c0 -94 48 -138 119 -138c73 0 121 44 121 131v106h-123v73h202v-179c-1 -132 -80 -209 -200 -209z" />
    <glyph glyph-name="Gcommaaccent" unicode="&#x122;" horiz-adv-x="501" 
d="M255 -11c-120 0 -201 77 -201 216v291c0 140 76 215 197 215c119 0 194 -73 199 -207h-81c-4 89 -47 129 -118 129c-72 0 -115 -43 -115 -138v-290c0 -94 48 -138 119 -138c73 0 121 44 121 131v106h-123v73h202v-179c-1 -132 -80 -209 -200 -209zM192 -257l18 187h77
l-40 -187h-55z" />
    <glyph glyph-name="Gdotaccent" unicode="&#x120;" horiz-adv-x="501" 
d="M245 786c-33 0 -55 23 -55 55s22 55 55 55c32 0 55 -23 55 -55s-23 -55 -55 -55zM255 -11c-120 0 -201 77 -201 216v291c0 140 76 215 197 215c119 0 194 -73 199 -207h-81c-4 89 -47 129 -118 129c-72 0 -115 -43 -115 -138v-290c0 -94 48 -138 119 -138
c73 0 121 44 121 131v106h-123v73h202v-179c-1 -132 -80 -209 -200 -209z" />
    <glyph glyph-name="H" unicode="H" horiz-adv-x="534" 
d="M378 700h83v-700h-83v317h-222v-317h-83v700h83v-306h222v306z" />
    <glyph glyph-name="Hbar" unicode="&#x126;" horiz-adv-x="561" 
d="M543 576v-51h-68v-525h-83v317h-222v-317h-83v525h-68v51h68v124h83v-124h222v124h83v-124h68zM392 394v131h-222v-131h222z" />
    <glyph glyph-name="I" unicode="I" horiz-adv-x="229" 
d="M73 700h82v-700h-82v700z" />
    <glyph glyph-name="Iacute" unicode="&#xcd;" horiz-adv-x="229" 
d="M63 769l92 119h83l-107 -119h-68zM73 700h82v-700h-82v700z" />
    <glyph glyph-name="Icircumflex" unicode="&#xce;" horiz-adv-x="229" 
d="M153 888l81 -119h-64l-53 70l-54 -70h-65l82 119h73zM73 0v700h82v-700h-82z" />
    <glyph glyph-name="Idieresis" unicode="&#xcf;" horiz-adv-x="241" 
d="M59 785c-27 0 -45 17 -45 44c0 28 18 45 45 45s45 -17 45 -45c0 -27 -18 -44 -45 -44zM183 785c-28 0 -46 17 -46 44c0 28 18 45 46 45c27 0 45 -17 45 -45c0 -27 -18 -44 -45 -44zM78 700h82v-700h-82v700z" />
    <glyph glyph-name="Idotaccent" unicode="&#x130;" horiz-adv-x="229" 
d="M116 786c-33 0 -55 23 -55 55s22 55 55 55c32 0 55 -23 55 -55s-23 -55 -55 -55zM73 700h82v-700h-82v700z" />
    <glyph glyph-name="Igrave" unicode="&#xcc;" horiz-adv-x="229" 
d="M170 769h-68l-107 119h83zM73 700h82v-700h-82v700z" />
    <glyph glyph-name="Imacron" unicode="&#x12a;" horiz-adv-x="229" 
d="M20 856h193v-61h-193v61zM73 700h82v-700h-82v700z" />
    <glyph glyph-name="Iogonek" unicode="&#x12e;" horiz-adv-x="226" 
d="M143 -126c12 0 22 0 31 3v-62c-16 -5 -36 -8 -52 -8c-67 0 -94 40 -94 87c0 37 16 73 50 106h-6v700h82v-700h-6c-26 -25 -47 -64 -47 -89c0 -28 21 -37 42 -37z" />
    <glyph glyph-name="J" unicode="J" horiz-adv-x="266" 
d="M0 -99v79c75 0 115 33 115 135v585h82v-586c0 -143 -69 -213 -197 -213z" />
    <glyph glyph-name="K" unicode="K" horiz-adv-x="492" 
d="M397 0l-194 324l-48 -70v-254h-82v700h82v-320l52 84l158 236h99l-212 -305l240 -395h-95z" />
    <glyph glyph-name="Kcommaaccent" unicode="&#x136;" horiz-adv-x="492" 
d="M252 395l240 -395h-95l-194 324l-48 -70v-254h-82v700h82v-320l52 84l158 236h99zM198 -257l18 187h77l-40 -187h-55z" />
    <glyph glyph-name="L" unicode="L" horiz-adv-x="407" 
d="M155 78h244v-78h-326v700h82v-622z" />
    <glyph glyph-name="Lacute" unicode="&#x139;" horiz-adv-x="407" 
d="M315 888l-107 -119h-68l92 119h83zM155 78h244v-78h-326v700h82v-622z" />
    <glyph glyph-name="Lcaron" unicode="&#x13d;" horiz-adv-x="395" 
d="M155 77h228v-77h-310v700h82v-623zM343 700l-36 -188h-51l9 188h78z" />
    <glyph glyph-name="Lcommaaccent" unicode="&#x13b;" horiz-adv-x="407" 
d="M155 78h244v-78h-326v700h82v-622zM156 -257l18 187h77l-40 -187h-55z" />
    <glyph glyph-name="Lslash" unicode="&#x141;" horiz-adv-x="422" 
d="M184 77h231v-77h-313v309l-79 -30v74l79 30v317h82v-286l127 49v-74l-127 -49v-263z" />
    <glyph glyph-name="M" unicode="M" horiz-adv-x="671" 
d="M512 700h85v-700h-81v321c1 76 3 144 7 212l-4 1c-19 -53 -45 -118 -70 -184l-73 -189h-81l-74 189c-24 66 -51 131 -69 184l-5 -1c4 -68 7 -136 7 -212v-321h-81v700h86l121 -293c17 -42 42 -111 53 -147h4c12 36 37 105 54 147z" />
    <glyph glyph-name="N" unicode="N" horiz-adv-x="548" 
d="M393 700h81v-700h-83l-172 376c-22 50 -54 130 -69 170l-3 -1c4 -62 8 -155 8 -215v-330h-82v700h83l175 -382c23 -48 54 -122 70 -163l3 1c-5 61 -11 159 -11 220v324z" />
    <glyph glyph-name="Nacute" unicode="&#x143;" horiz-adv-x="548" 
d="M221 769l92 119h83l-107 -119h-68zM393 700h81v-700h-83l-172 376c-22 50 -54 130 -69 170l-3 -1c4 -62 8 -155 8 -215v-330h-82v700h83l175 -382c23 -48 54 -122 70 -163l3 1c-5 61 -11 159 -11 220v324z" />
    <glyph glyph-name="Ncaron" unicode="&#x147;" horiz-adv-x="548" 
d="M310 768h-73l-82 119h65l54 -70l53 70h64zM393 700h81v-700h-83l-172 376c-22 50 -54 130 -69 170l-3 -1c4 -62 8 -155 8 -215v-330h-82v700h83l175 -382c23 -48 54 -122 70 -163l3 1c-5 61 -11 159 -11 220v324z" />
    <glyph glyph-name="Ncommaaccent" unicode="&#x145;" horiz-adv-x="548" 
d="M393 700h81v-700h-83l-172 376c-22 50 -54 130 -69 170l-3 -1c4 -62 8 -155 8 -215v-330h-82v700h83l175 -382c23 -48 54 -122 70 -163l3 1c-5 61 -11 159 -11 220v324zM220 -257l18 187h77l-40 -187h-55z" />
    <glyph glyph-name="Eng" unicode="&#x14a;" horiz-adv-x="548" 
d="M393 700h81v-718c0 -107 -58 -174 -176 -175v76c70 1 98 35 98 97v13l-180 389c-24 53 -51 124 -66 164l-3 -1c4 -62 8 -155 8 -215v-330h-82v700h83l180 -388c22 -53 50 -124 67 -169l3 1c-7 63 -13 165 -13 228v328z" />
    <glyph glyph-name="Ntilde" unicode="&#xd1;" horiz-adv-x="548" 
d="M242 823c-11 0 -19 -9 -21 -28h-60c3 54 32 85 74 85c41 0 56 -31 78 -31c13 0 22 10 24 28h57c-5 -52 -32 -85 -74 -85c-40 0 -55 31 -78 31zM393 700h81v-700h-83l-172 376c-22 50 -54 130 -69 170l-3 -1c4 -62 8 -155 8 -215v-330h-82v700h83l175 -382
c23 -48 54 -122 70 -163l3 1c-5 61 -11 159 -11 220v324z" />
    <glyph glyph-name="O" unicode="O" horiz-adv-x="523" 
d="M262 -13c-130 0 -208 89 -208 233v261c0 143 78 232 208 232s207 -89 207 -232v-261c0 -144 -77 -233 -207 -233zM262 67c81 0 123 55 123 153v261c0 97 -42 152 -123 152c-82 0 -124 -55 -124 -152v-261c0 -98 42 -153 124 -153z" />
    <glyph glyph-name="Oacute" unicode="&#xd3;" horiz-adv-x="523" 
d="M208 769l92 119h83l-107 -119h-68zM262 -13c-130 0 -208 89 -208 233v261c0 143 78 232 208 232s207 -89 207 -232v-261c0 -144 -77 -233 -207 -233zM262 67c81 0 123 55 123 153v261c0 97 -42 152 -123 152c-82 0 -124 -55 -124 -152v-261c0 -98 42 -153 124 -153z" />
    <glyph glyph-name="Ocircumflex" unicode="&#xd4;" horiz-adv-x="523" 
d="M262 839l-54 -70h-65l82 119h73l81 -119h-64zM262 713c130 0 207 -89 207 -232v-261c0 -144 -77 -233 -207 -233s-208 89 -208 233v261c0 143 78 232 208 232zM385 220v261c0 97 -42 152 -123 152c-82 0 -124 -55 -124 -152v-261c0 -98 42 -153 124 -153
c81 0 123 55 123 153z" />
    <glyph glyph-name="Odieresis" unicode="&#xd6;" horiz-adv-x="523" 
d="M192 785c-27 0 -46 17 -46 44c0 28 19 45 46 45c26 0 44 -17 44 -45c0 -27 -18 -44 -44 -44zM330 785c-27 0 -46 17 -46 44c0 28 19 45 46 45s45 -17 45 -45c0 -27 -18 -44 -45 -44zM262 -13c-130 0 -208 89 -208 233v261c0 143 78 232 208 232s207 -89 207 -232v-261
c0 -144 -77 -233 -207 -233zM262 67c81 0 123 55 123 153v261c0 97 -42 152 -123 152c-82 0 -124 -55 -124 -152v-261c0 -98 42 -153 124 -153z" />
    <glyph glyph-name="Ograve" unicode="&#xd2;" horiz-adv-x="523" 
d="M315 769h-68l-107 119h83zM262 -13c-130 0 -208 89 -208 233v261c0 143 78 232 208 232s207 -89 207 -232v-261c0 -144 -77 -233 -207 -233zM262 67c81 0 123 55 123 153v261c0 97 -42 152 -123 152c-82 0 -124 -55 -124 -152v-261c0 -98 42 -153 124 -153z" />
    <glyph glyph-name="Ohungarumlaut" unicode="&#x150;" horiz-adv-x="523" 
d="M302 888l-85 -119h-61l70 119h76zM417 888l-89 -119h-61l75 119h75zM262 -13c-130 0 -208 89 -208 233v261c0 143 78 232 208 232s207 -89 207 -232v-261c0 -144 -77 -233 -207 -233zM262 67c81 0 123 55 123 153v261c0 97 -42 152 -123 152c-82 0 -124 -55 -124 -152
v-261c0 -98 42 -153 124 -153z" />
    <glyph glyph-name="Omacron" unicode="&#x14c;" horiz-adv-x="523" 
d="M165 856h193v-61h-193v61zM262 -13c-130 0 -208 89 -208 233v261c0 143 78 232 208 232s207 -89 207 -232v-261c0 -144 -77 -233 -207 -233zM262 67c81 0 123 55 123 153v261c0 97 -42 152 -123 152c-82 0 -124 -55 -124 -152v-261c0 -98 42 -153 124 -153z" />
    <glyph glyph-name="Oslash" unicode="&#xd8;" horiz-adv-x="519" 
d="M395 665c45 -40 70 -104 70 -185v-260c0 -143 -77 -232 -205 -232c-25 0 -47 3 -68 9l-18 -59h-71l28 91c-50 40 -77 106 -77 191v260c0 143 77 232 206 232c27 0 53 -4 75 -12l19 62h71zM138 220c0 -40 7 -73 21 -98l153 501c-15 7 -32 10 -52 10
c-80 0 -122 -56 -122 -153v-260zM381 220v260c0 34 -5 64 -15 87l-150 -492c13 -5 28 -7 44 -7c80 0 121 55 121 152z" />
    <glyph glyph-name="Otilde" unicode="&#xd5;" horiz-adv-x="523" 
d="M229 823c-11 0 -19 -9 -21 -28h-60c3 54 32 85 74 85c41 0 56 -31 78 -31c13 0 22 10 24 28h57c-5 -52 -32 -85 -74 -85c-40 0 -55 31 -78 31zM262 -13c-130 0 -208 89 -208 233v261c0 143 78 232 208 232s207 -89 207 -232v-261c0 -144 -77 -233 -207 -233zM262 67
c81 0 123 55 123 153v261c0 97 -42 152 -123 152c-82 0 -124 -55 -124 -152v-261c0 -98 42 -153 124 -153z" />
    <glyph glyph-name="OE" unicode="&#x152;" horiz-adv-x="770" 
d="M468 77h263v-77h-345v47c-32 -38 -77 -60 -130 -60c-126 0 -202 89 -202 233v261c0 143 76 232 202 232c53 0 98 -21 130 -60v47h335v-76h-253v-231h235v-75h-235v-241zM385 220v261c0 97 -43 152 -125 152c-81 0 -122 -55 -122 -152v-261c0 -98 41 -153 122 -153
c82 0 125 55 125 153z" />
    <glyph glyph-name="P" unicode="P" horiz-adv-x="491" 
d="M250 700c133 0 208 -80 208 -221c0 -145 -75 -224 -208 -224h-95v-255h-82v700h177zM250 333c84 0 125 46 125 146c0 95 -41 143 -125 143h-95v-289h95z" />
    <glyph glyph-name="Thorn" unicode="&#xde;" horiz-adv-x="479" 
d="M250 584c133 0 208 -81 208 -221c0 -145 -75 -224 -208 -224h-95v-139h-82v700h82v-116h95zM250 217c84 0 125 46 125 146c0 95 -41 143 -125 143h-95v-289h95z" />
    <glyph glyph-name="Q" unicode="Q" horiz-adv-x="524" 
d="M470 481v-261c0 -73 -20 -132 -57 -172l56 -68l-51 -45l-60 72c-27 -13 -60 -20 -96 -20c-130 0 -208 89 -208 233v261c0 143 78 232 208 232s208 -89 208 -232zM295 190l64 -77c17 26 26 62 26 107v261c0 97 -42 152 -123 152c-82 0 -124 -55 -124 -152v-261
c0 -98 42 -153 124 -153c16 0 30 2 42 6l-59 72z" />
    <glyph glyph-name="R" unicode="R" horiz-adv-x="494" 
d="M379 0l-153 264h-71v-264h-82v700h171c132 0 205 -78 205 -212c0 -115 -51 -191 -139 -216l162 -272h-93zM155 623v-282h88c81 0 123 51 123 144c0 91 -42 138 -122 138h-89z" />
    <glyph glyph-name="Racute" unicode="&#x154;" horiz-adv-x="494" 
d="M368 888l-107 -119h-68l92 119h83zM379 0l-153 264h-71v-264h-82v700h171c132 0 205 -78 205 -212c0 -115 -51 -191 -139 -216l162 -272h-93zM155 623v-282h88c81 0 123 51 123 144c0 91 -42 138 -122 138h-89z" />
    <glyph glyph-name="Rcaron" unicode="&#x158;" horiz-adv-x="494" 
d="M282 768h-73l-82 119h65l54 -70l53 70h64zM379 0l-153 264h-71v-264h-82v700h171c132 0 205 -78 205 -212c0 -115 -51 -191 -139 -216l162 -272h-93zM155 623v-282h88c81 0 123 51 123 144c0 91 -42 138 -122 138h-89z" />
    <glyph glyph-name="Rcommaaccent" unicode="&#x156;" horiz-adv-x="494" 
d="M310 272l162 -272h-93l-153 264h-71v-264h-82v700h171c132 0 205 -78 205 -212c0 -115 -51 -191 -139 -216zM155 623v-282h88c81 0 123 51 123 144c0 91 -42 138 -122 138h-89zM193 -257l18 187h77l-40 -187h-55z" />
    <glyph glyph-name="S" unicode="S" horiz-adv-x="458" 
d="M229 -13c-120 0 -198 77 -200 199h83c2 -79 47 -120 116 -120c76 0 113 47 113 113c0 150 -301 154 -301 360c0 99 74 174 187 174c115 0 185 -77 189 -192h-83c-3 77 -44 113 -105 113c-66 0 -105 -38 -105 -96c0 -149 302 -146 302 -360c0 -100 -69 -191 -196 -191z
" />
    <glyph glyph-name="Sacute" unicode="&#x15a;" horiz-adv-x="458" 
d="M177 769l92 119h83l-107 -119h-68zM229 -13c-120 0 -198 77 -200 199h83c2 -79 47 -120 116 -120c76 0 113 47 113 113c0 150 -301 154 -301 360c0 99 74 174 187 174c115 0 185 -77 189 -192h-83c-3 77 -44 113 -105 113c-66 0 -105 -38 -105 -96
c0 -149 302 -146 302 -360c0 -100 -69 -191 -196 -191z" />
    <glyph glyph-name="Scaron" unicode="&#x160;" horiz-adv-x="458" 
d="M266 768h-73l-82 119h65l54 -70l53 70h64zM123 538c0 -149 302 -146 302 -360c0 -100 -69 -191 -196 -191c-120 0 -198 77 -200 199h83c2 -79 47 -120 116 -120c76 0 113 47 113 113c0 150 -301 154 -301 360c0 99 74 174 187 174c115 0 185 -77 189 -192h-83
c-3 77 -44 113 -105 113c-66 0 -105 -38 -105 -96z" />
    <glyph glyph-name="Scedilla" unicode="&#x15e;" horiz-adv-x="458" 
d="M425 178c0 -93 -60 -178 -170 -190l-11 -37h13c38 0 71 -27 71 -69c0 -51 -40 -83 -96 -83c-50 0 -89 29 -94 78h55c5 -18 20 -28 40 -28c24 0 40 13 40 35c0 21 -13 33 -37 33c-12 0 -24 -3 -32 -8l-18 17l18 62c-106 10 -173 85 -175 198h83c2 -79 47 -120 116 -120
c76 0 113 47 113 113c0 150 -301 154 -301 360c0 99 74 174 187 174c115 0 185 -77 189 -192h-83c-3 77 -44 113 -105 113c-66 0 -105 -38 -105 -96c0 -149 302 -146 302 -360z" />
    <glyph glyph-name="Scommaaccent" unicode="&#x218;" horiz-adv-x="458" 
d="M229 -13c-120 0 -198 77 -200 199h83c2 -79 47 -120 116 -120c76 0 113 47 113 113c0 150 -301 154 -301 360c0 99 74 174 187 174c115 0 185 -77 189 -192h-83c-3 77 -44 113 -105 113c-66 0 -105 -38 -105 -96c0 -149 302 -146 302 -360c0 -100 -69 -191 -196 -191z
M186 -257l18 187h77l-40 -187h-55z" />
    <glyph glyph-name="T" unicode="T" horiz-adv-x="417" 
d="M400 700v-77h-150v-623h-83v623h-150v77h383z" />
    <glyph glyph-name="Tbar" unicode="&#x166;" horiz-adv-x="417" 
d="M400 623h-150v-239h82v-53h-82v-331h-83v331h-82v53h82v239h-150v77h383v-77z" />
    <glyph glyph-name="Tcaron" unicode="&#x164;" horiz-adv-x="417" 
d="M245 768h-73l-82 119h65l54 -70l53 70h64zM400 700v-77h-150v-623h-83v623h-150v77h383z" />
    <glyph glyph-name="uni0162" unicode="&#x162;" horiz-adv-x="417" 
d="M17 700h383v-77h-150v-623h-83v623h-150v77zM156 -257l18 187h77l-40 -187h-55z" />
    <glyph glyph-name="uni021A" unicode="&#x21a;" horiz-adv-x="417" 
d="M17 700h383v-77h-150v-623h-83v623h-150v77zM156 -257l18 187h77l-40 -187h-55z" />
    <glyph glyph-name="U" unicode="U" horiz-adv-x="522" 
d="M261 -10c-119 0 -199 78 -199 222v488h84v-488c0 -97 46 -142 115 -142c70 0 116 45 116 142v488h83v-488c0 -144 -80 -222 -199 -222z" />
    <glyph glyph-name="Uacute" unicode="&#xda;" horiz-adv-x="522" 
d="M208 769l92 119h83l-107 -119h-68zM261 -10c-119 0 -199 78 -199 222v488h84v-488c0 -97 46 -142 115 -142c70 0 116 45 116 142v488h83v-488c0 -144 -80 -222 -199 -222z" />
    <glyph glyph-name="Ucircumflex" unicode="&#xdb;" horiz-adv-x="522" 
d="M262 839l-54 -70h-65l82 119h73l81 -119h-64zM377 700h83v-488c0 -144 -80 -222 -199 -222s-199 78 -199 222v488h84v-488c0 -97 46 -142 115 -142c70 0 116 45 116 142v488z" />
    <glyph glyph-name="Udieresis" unicode="&#xdc;" horiz-adv-x="522" 
d="M192 785c-27 0 -46 17 -46 44c0 28 19 45 46 45c26 0 44 -17 44 -45c0 -27 -18 -44 -44 -44zM330 785c-27 0 -46 17 -46 44c0 28 19 45 46 45s45 -17 45 -45c0 -27 -18 -44 -45 -44zM261 -10c-119 0 -199 78 -199 222v488h84v-488c0 -97 46 -142 115 -142
c70 0 116 45 116 142v488h83v-488c0 -144 -80 -222 -199 -222z" />
    <glyph glyph-name="Ugrave" unicode="&#xd9;" horiz-adv-x="522" 
d="M315 769h-68l-107 119h83zM261 -10c-119 0 -199 78 -199 222v488h84v-488c0 -97 46 -142 115 -142c70 0 116 45 116 142v488h83v-488c0 -144 -80 -222 -199 -222z" />
    <glyph glyph-name="Uhungarumlaut" unicode="&#x170;" horiz-adv-x="522" 
d="M302 888l-85 -119h-61l70 119h76zM417 888l-89 -119h-61l75 119h75zM261 -10c-119 0 -199 78 -199 222v488h84v-488c0 -97 46 -142 115 -142c70 0 116 45 116 142v488h83v-488c0 -144 -80 -222 -199 -222z" />
    <glyph glyph-name="Umacron" unicode="&#x16a;" horiz-adv-x="522" 
d="M165 856h193v-61h-193v61zM261 -10c-119 0 -199 78 -199 222v488h84v-488c0 -97 46 -142 115 -142c70 0 116 45 116 142v488h83v-488c0 -144 -80 -222 -199 -222z" />
    <glyph glyph-name="Uogonek" unicode="&#x172;" horiz-adv-x="518" 
d="M325 -193c-62 0 -89 39 -89 83s28 83 65 114l-1 1c-11 -9 -26 -15 -43 -15c-117 1 -195 79 -195 214v496h84v-496c0 -89 45 -134 113 -134s113 45 113 134v496h84v-496c0 -92 -31 -134 -64 -165c-42 -42 -83 -87 -83 -129c0 -29 19 -36 37 -36c11 0 22 0 31 3v-62
c-16 -6 -34 -8 -52 -8z" />
    <glyph glyph-name="Uring" unicode="&#x16e;" horiz-adv-x="522" 
d="M186 838c0 43 31 73 76 73s75 -30 75 -73c0 -44 -30 -74 -75 -74s-76 30 -76 74zM230 837c0 -19 13 -31 32 -31c18 0 31 12 31 31s-13 32 -31 32c-19 0 -32 -13 -32 -32zM261 -10c-119 0 -199 78 -199 222v488h84v-488c0 -97 46 -142 115 -142c70 0 116 45 116 142v488
h83v-488c0 -144 -80 -222 -199 -222z" />
    <glyph glyph-name="V" unicode="V" horiz-adv-x="460" 
d="M184 0l-175 700h86l95 -411c15 -67 26 -127 38 -182h4c11 55 23 115 38 182l94 411h87l-175 -700h-92z" />
    <glyph glyph-name="W" unicode="W" horiz-adv-x="732" 
d="M638 700h85l-156 -700h-89l-76 344c-14 61 -29 166 -34 223h-4c-5 -57 -20 -162 -34 -223l-76 -344h-89l-156 700h86l79 -407c10 -51 28 -145 33 -182h4c6 37 22 124 34 190l77 388h88l77 -388c12 -66 28 -153 34 -190h4c5 37 23 131 33 182z" />
    <glyph glyph-name="Wacute" unicode="&#x1e82;" horiz-adv-x="732" 
d="M316 769l92 119h83l-107 -119h-68zM638 700h85l-156 -700h-89l-76 344c-14 61 -29 166 -34 223h-4c-5 -57 -20 -162 -34 -223l-76 -344h-89l-156 700h86l79 -407c10 -51 28 -145 33 -182h4c6 37 22 124 34 190l77 388h88l77 -388c12 -66 28 -153 34 -190h4
c5 37 23 131 33 182z" />
    <glyph glyph-name="Wcircumflex" unicode="&#x174;" horiz-adv-x="732" 
d="M370 839l-54 -70h-65l82 119h73l81 -119h-64zM638 700h85l-156 -700h-89l-76 344c-14 61 -29 166 -34 223h-4c-5 -57 -20 -162 -34 -223l-76 -344h-89l-156 700h86l79 -407c10 -51 28 -145 33 -182h4c6 37 22 124 34 190l77 388h88l77 -388c12 -66 28 -153 34 -190h4
c5 37 23 131 33 182z" />
    <glyph glyph-name="Wdieresis" unicode="&#x1e84;" horiz-adv-x="732" 
d="M300 785c-27 0 -46 17 -46 44c0 28 19 45 46 45c26 0 44 -17 44 -45c0 -27 -18 -44 -44 -44zM438 785c-27 0 -46 17 -46 44c0 28 19 45 46 45s45 -17 45 -45c0 -27 -18 -44 -45 -44zM638 700h85l-156 -700h-89l-76 344c-14 61 -29 166 -34 223h-4
c-5 -57 -20 -162 -34 -223l-76 -344h-89l-156 700h86l79 -407c10 -51 28 -145 33 -182h4c6 37 22 124 34 190l77 388h88l77 -388c12 -66 28 -153 34 -190h4c5 37 23 131 33 182z" />
    <glyph glyph-name="Wgrave" unicode="&#x1e80;" horiz-adv-x="732" 
d="M423 769h-68l-107 119h83zM638 700h85l-156 -700h-89l-76 344c-14 61 -29 166 -34 223h-4c-5 -57 -20 -162 -34 -223l-76 -344h-89l-156 700h86l79 -407c10 -51 28 -145 33 -182h4c6 37 22 124 34 190l77 388h88l77 -388c12 -66 28 -153 34 -190h4c5 37 23 131 33 182z
" />
    <glyph glyph-name="X" unicode="X" horiz-adv-x="463" 
d="M446 0h-91l-123 282l-123 -282h-91l168 364l-159 336h91l114 -258l114 258h91l-159 -336z" />
    <glyph glyph-name="Y" unicode="Y" horiz-adv-x="435" 
d="M176 0v240l-172 460h86l89 -251c12 -33 26 -73 38 -109h1c12 36 26 77 38 111l89 249h86l-173 -460v-240h-82z" />
    <glyph glyph-name="Yacute" unicode="&#xdd;" horiz-adv-x="435" 
d="M164 769l92 119h83l-107 -119h-68zM176 0v240l-172 460h86l89 -251c12 -33 26 -73 38 -109h1c12 36 26 77 38 111l89 249h86l-173 -460v-240h-82z" />
    <glyph glyph-name="Ycircumflex" unicode="&#x176;" horiz-adv-x="435" 
d="M218 839l-54 -70h-65l82 119h73l81 -119h-64zM345 700h86l-173 -460v-240h-82v240l-172 460h86l89 -251c12 -33 26 -73 38 -109h1c12 36 26 77 38 111z" />
    <glyph glyph-name="Ydieresis" unicode="&#x178;" horiz-adv-x="435" 
d="M148 785c-27 0 -46 17 -46 44c0 28 19 45 46 45c26 0 44 -17 44 -45c0 -27 -18 -44 -44 -44zM286 785c-27 0 -46 17 -46 44c0 28 19 45 46 45s45 -17 45 -45c0 -27 -18 -44 -45 -44zM176 0v240l-172 460h86l89 -251c12 -33 26 -73 38 -109h1c12 36 26 77 38 111l89 249
h86l-173 -460v-240h-82z" />
    <glyph glyph-name="Ygrave" unicode="&#x1ef2;" horiz-adv-x="435" 
d="M271 769h-68l-107 119h83zM176 0v240l-172 460h86l89 -251c12 -33 26 -73 38 -109h1c12 36 26 77 38 111l89 249h86l-173 -460v-240h-82z" />
    <glyph glyph-name="Z" unicode="Z" horiz-adv-x="415" 
d="M117 77h270v-77h-369v59l264 564h-250v77h350v-56z" />
    <glyph glyph-name="Zacute" unicode="&#x179;" horiz-adv-x="415" 
d="M150 769l92 119h83l-107 -119h-68zM117 77h270v-77h-369v59l264 564h-250v77h350v-56z" />
    <glyph glyph-name="Zcaron" unicode="&#x17d;" horiz-adv-x="415" 
d="M239 768h-73l-82 119h65l54 -70l53 70h64zM117 77h270v-77h-369v59l264 564h-250v77h350v-56z" />
    <glyph glyph-name="Zdotaccent" unicode="&#x17b;" horiz-adv-x="415" 
d="M202 793c-33 0 -55 22 -55 54c0 33 22 55 55 55c32 0 55 -22 55 -55c0 -31 -23 -54 -55 -54zM117 77h270v-77h-369v59l264 564h-250v77h350v-56z" />
    <glyph glyph-name="uni0162.ss01" horiz-adv-x="417" 
d="M250 0h-17l-16 -49c3 1 9 2 14 2c36 -1 69 -28 69 -70c0 -47 -40 -76 -93 -76c-48 0 -87 28 -92 75h54c5 -18 20 -27 40 -27c22 0 40 11 40 31c0 21 -13 32 -37 32c-12 0 -24 -3 -33 -7l-17 17l22 72h-17v623h-150v77h383v-77h-150v-623z" />
    <glyph glyph-name="a" unicode="a" horiz-adv-x="451" 
d="M223 539c106 0 166 -68 166 -182v-357h-65l-6 50c-23 -36 -61 -63 -120 -63c-96 0 -164 62 -164 163c0 104 71 160 186 160h90v46c0 69 -29 107 -89 107c-51 0 -88 -28 -92 -81h-79c4 96 71 157 173 157zM310 153v87h-91c-68 0 -105 -32 -105 -91c0 -58 39 -89 99 -89
s97 38 97 93z" />
    <glyph glyph-name="aacute" unicode="&#xe1;" horiz-adv-x="451" 
d="M322 729l-89 -119h-67l75 119h81zM223 539c106 0 166 -68 166 -182v-357h-65l-6 50c-23 -36 -61 -63 -120 -63c-96 0 -164 62 -164 163c0 104 71 160 186 160h90v46c0 69 -29 107 -89 107c-51 0 -88 -28 -92 -81h-79c4 96 71 157 173 157zM310 153v87h-91
c-68 0 -105 -32 -105 -91c0 -58 39 -89 99 -89s97 38 97 93z" />
    <glyph glyph-name="abreve" unicode="&#x103;" horiz-adv-x="451" 
d="M223 608c-70 0 -114 43 -117 118h60c3 -39 21 -59 56 -59c36 0 54 20 56 59h61c-3 -75 -47 -118 -116 -118zM223 539c106 0 166 -68 166 -182v-357h-65l-6 50c-23 -36 -61 -63 -120 -63c-96 0 -164 62 -164 163c0 104 71 160 186 160h90v46c0 69 -29 107 -89 107
c-51 0 -88 -28 -92 -81h-79c4 96 71 157 173 157zM310 153v87h-91c-68 0 -105 -32 -105 -91c0 -58 39 -89 99 -89s97 38 97 93z" />
    <glyph glyph-name="acircumflex" unicode="&#xe2;" horiz-adv-x="451" 
d="M222 679l-54 -70h-65l82 119h73l81 -119h-64zM223 539c106 0 166 -68 166 -182v-357h-65l-6 50c-23 -36 -61 -63 -120 -63c-96 0 -164 62 -164 163c0 104 71 160 186 160h90v46c0 69 -29 107 -89 107c-51 0 -88 -28 -92 -81h-79c4 96 71 157 173 157zM310 153v87h-91
c-68 0 -105 -32 -105 -91c0 -58 39 -89 99 -89s97 38 97 93z" />
    <glyph glyph-name="adieresis" unicode="&#xe4;" horiz-adv-x="451" 
d="M157 626c-27 0 -45 17 -45 45c0 27 18 44 45 44s45 -17 45 -44c0 -28 -18 -45 -45 -45zM286 626c-27 0 -46 17 -46 45c0 27 19 44 46 44c28 0 46 -17 46 -44c0 -28 -18 -45 -46 -45zM223 539c106 0 166 -68 166 -182v-357h-65l-6 50c-23 -36 -61 -63 -120 -63
c-96 0 -164 62 -164 163c0 104 71 160 186 160h90v46c0 69 -29 107 -89 107c-51 0 -88 -28 -92 -81h-79c4 96 71 157 173 157zM310 153v87h-91c-68 0 -105 -32 -105 -91c0 -58 39 -89 99 -89s97 38 97 93z" />
    <glyph glyph-name="agrave" unicode="&#xe0;" horiz-adv-x="451" 
d="M279 610h-67l-89 119h81zM223 539c106 0 166 -68 166 -182v-357h-65l-6 50c-23 -36 -61 -63 -120 -63c-96 0 -164 62 -164 163c0 104 71 160 186 160h90v46c0 69 -29 107 -89 107c-51 0 -88 -28 -92 -81h-79c4 96 71 157 173 157zM310 153v87h-91
c-68 0 -105 -32 -105 -91c0 -58 39 -89 99 -89s97 38 97 93z" />
    <glyph glyph-name="amacron" unicode="&#x101;" horiz-adv-x="451" 
d="M318 697v-60h-193v60h193zM223 539c106 0 166 -68 166 -182v-357h-65l-6 50c-23 -36 -61 -63 -120 -63c-96 0 -164 62 -164 163c0 104 71 160 186 160h90v46c0 69 -29 107 -89 107c-51 0 -88 -28 -92 -81h-79c4 96 71 157 173 157zM310 153v87h-91
c-68 0 -105 -32 -105 -91c0 -58 39 -89 99 -89s97 38 97 93z" />
    <glyph glyph-name="aogonek" unicode="&#x105;" horiz-adv-x="452" 
d="M340 -193c-63 0 -89 40 -89 83s28 78 73 110l-5 49c-23 -35 -62 -62 -121 -62c-96 0 -164 62 -164 163c0 104 71 160 187 160h90v46c0 69 -29 107 -90 107c-51 0 -88 -28 -92 -81h-79c4 96 71 157 173 157c107 0 167 -68 167 -182v-357c-39 -27 -67 -65 -67 -94
c0 -24 17 -33 35 -33c12 0 23 1 32 4v-62c-15 -6 -35 -8 -50 -8zM214 60c60 0 97 38 97 93v87h-91c-68 0 -106 -32 -106 -91c0 -58 39 -89 100 -89z" />
    <glyph glyph-name="aring" unicode="&#xe5;" horiz-adv-x="451" 
d="M222 606c-45 0 -76 30 -76 74c0 43 31 73 76 73s75 -30 75 -73c0 -44 -30 -74 -75 -74zM222 711c-19 0 -32 -13 -32 -32s13 -31 32 -31c18 0 31 12 31 31s-13 32 -31 32zM223 539c106 0 166 -68 166 -182v-357h-65l-6 50c-23 -36 -61 -63 -120 -63
c-96 0 -164 62 -164 163c0 104 71 160 186 160h90v46c0 69 -29 107 -89 107c-51 0 -88 -28 -92 -81h-79c4 96 71 157 173 157zM310 153v87h-91c-68 0 -105 -32 -105 -91c0 -58 39 -89 99 -89s97 38 97 93z" />
    <glyph glyph-name="atilde" unicode="&#xe3;" horiz-adv-x="451" 
d="M186 652c-11 0 -19 -9 -21 -28h-60c3 54 32 85 74 85c41 0 56 -31 78 -31c13 0 22 10 24 28h57c-5 -52 -32 -85 -74 -85c-40 0 -55 31 -78 31zM223 539c106 0 166 -68 166 -182v-357h-65l-6 50c-23 -36 -61 -63 -120 -63c-96 0 -164 62 -164 163c0 104 71 160 186 160h90
v46c0 69 -29 107 -89 107c-51 0 -88 -28 -92 -81h-79c4 96 71 157 173 157zM310 153v87h-91c-68 0 -105 -32 -105 -91c0 -58 39 -89 99 -89s97 38 97 93z" />
    <glyph glyph-name="ae" unicode="&#xe6;" horiz-adv-x="689" 
d="M569 170h79c-3 -115 -71 -181 -175 -181c-58 0 -106 26 -133 68c-24 -39 -73 -67 -145 -67c-95 0 -161 63 -161 160c0 104 71 155 190 155h79v58c0 62 -28 99 -83 99c-53 0 -87 -28 -91 -80h-79c4 96 70 157 172 157c54 0 97 -24 123 -65c29 42 74 65 128 65
c105 0 172 -70 172 -192v-108h-264v-57c0 -80 34 -116 92 -116c61 0 94 33 96 104zM381 348v-47h186v47c0 79 -35 116 -94 116c-58 0 -92 -37 -92 -116zM303 151v86h-80c-71 0 -109 -28 -109 -88c0 -57 37 -89 99 -89c57 0 90 37 90 91z" />
    <glyph glyph-name="b" unicode="b" horiz-adv-x="465" 
d="M250 539c102 0 166 -71 166 -200v-148c0 -131 -68 -203 -166 -203c-49 0 -95 25 -121 61l-8 -49h-59v724h77v-235c28 32 69 50 111 50zM336 191v148c0 88 -34 126 -100 126c-60 0 -97 -50 -97 -126v-149c0 -87 42 -128 97 -128c63 0 100 39 100 129z" />
    <glyph glyph-name="c" unicode="c" horiz-adv-x="435" 
d="M223 -11c-106 0 -174 69 -174 191v169c0 121 68 190 174 190c109 0 174 -69 178 -190h-80c-2 77 -37 114 -98 114c-59 0 -94 -37 -94 -114v-169c0 -78 35 -114 94 -114c62 0 97 36 100 114h79c-3 -122 -71 -191 -179 -191z" />
    <glyph glyph-name="cacute" unicode="&#x107;" horiz-adv-x="435" 
d="M323 729l-89 -119h-67l75 119h81zM223 -11c-106 0 -174 69 -174 191v169c0 121 68 190 174 190c109 0 174 -69 178 -190h-80c-2 77 -37 114 -98 114c-59 0 -94 -37 -94 -114v-169c0 -78 35 -114 94 -114c62 0 97 36 100 114h79c-3 -122 -71 -191 -179 -191z" />
    <glyph glyph-name="ccaron" unicode="&#x10d;" horiz-adv-x="435" 
d="M259 610h-73l-82 119h65l54 -70l53 70h64zM323 180h79c-3 -122 -71 -191 -179 -191c-106 0 -174 69 -174 191v169c0 121 68 190 174 190c109 0 174 -69 178 -190h-80c-2 77 -37 114 -98 114c-59 0 -94 -37 -94 -114v-169c0 -78 35 -114 94 -114c62 0 97 36 100 114z" />
    <glyph glyph-name="ccedilla" unicode="&#xe7;" horiz-adv-x="435" 
d="M402 180c-3 -113 -62 -181 -157 -190l-11 -39h13c38 0 71 -27 71 -69c0 -51 -40 -83 -96 -83c-50 0 -89 29 -94 78h55c5 -18 20 -28 40 -28c24 0 40 13 40 35c0 21 -13 33 -37 33c-12 0 -24 -3 -32 -8l-18 17l19 65c-90 11 -146 78 -146 189v169c0 121 68 190 174 190
c109 0 174 -69 178 -190h-80c-2 77 -37 114 -98 114c-59 0 -94 -37 -94 -114v-169c0 -78 35 -114 94 -114c62 0 97 36 100 114h79z" />
    <glyph glyph-name="cdotaccent" unicode="&#x10b;" horiz-adv-x="435" 
d="M222 619c-33 0 -55 22 -55 54c0 33 22 55 55 55c32 0 55 -22 55 -55c0 -31 -23 -54 -55 -54zM223 -11c-106 0 -174 69 -174 191v169c0 121 68 190 174 190c109 0 174 -69 178 -190h-80c-2 77 -37 114 -98 114c-59 0 -94 -37 -94 -114v-169c0 -78 35 -114 94 -114
c62 0 97 36 100 114h79c-3 -122 -71 -191 -179 -191z" />
    <glyph glyph-name="d" unicode="d" horiz-adv-x="465" 
d="M326 724h77v-724h-59l-8 49c-26 -36 -72 -61 -121 -61c-98 0 -166 72 -166 203v148c0 129 64 200 166 200c42 0 83 -18 111 -50v235zM326 190v149c0 76 -37 126 -97 126c-66 0 -100 -38 -100 -126v-148c0 -90 37 -129 100 -129c55 0 97 41 97 128z" />
    <glyph glyph-name="eth" unicode="&#xf0;" horiz-adv-x="453" 
d="M335 628c41 -51 68 -120 68 -205v-239c0 -125 -69 -195 -178 -195c-107 0 -176 70 -176 195v133c0 125 68 194 165 194c45 0 80 -14 107 -40c-6 50 -26 90 -55 121l-79 -41l-17 35l65 34c-27 21 -58 36 -93 47l26 67c52 -14 100 -39 139 -76l69 36l17 -35zM323 184v133
c0 81 -38 118 -97 118c-62 0 -97 -37 -97 -118v-133c0 -81 36 -118 96 -118c62 0 98 37 98 118z" />
    <glyph glyph-name="dcaron" unicode="&#x10f;" horiz-adv-x="511" 
d="M462 768h77l-37 -177h-51zM326 489v235h77v-724h-59l-8 49c-26 -36 -72 -61 -121 -61c-98 0 -166 72 -166 203v148c0 129 64 200 166 200c42 0 83 -18 111 -50zM326 190v149c0 76 -37 126 -97 126c-66 0 -100 -38 -100 -126v-148c0 -90 37 -129 100 -129
c55 0 97 41 97 128z" />
    <glyph glyph-name="dcroat" unicode="&#x111;" horiz-adv-x="469" 
d="M464 659v-51h-61v-608h-59l-8 49c-26 -36 -72 -61 -121 -61c-98 0 -166 72 -166 203v148c0 129 64 200 166 200c42 0 83 -18 111 -50v119h-96v51h96v65h77v-65h61zM326 190v149c0 76 -37 126 -97 126c-66 0 -100 -38 -100 -126v-148c0 -90 37 -129 100 -129
c55 0 97 41 97 128z" />
    <glyph glyph-name="e" unicode="e" horiz-adv-x="452" 
d="M333 163h78c-8 -111 -75 -174 -187 -174c-107 0 -175 70 -175 193v165c0 122 69 192 176 192c109 0 179 -70 179 -192v-117h-275v-48c0 -80 36 -116 97 -116c67 0 98 30 107 97zM226 464c-61 0 -97 -37 -97 -116v-53h197v53c0 79 -37 116 -100 116z" />
    <glyph glyph-name="eacute" unicode="&#xe9;" horiz-adv-x="452" 
d="M325 726l-89 -119h-67l75 119h81zM333 163h78c-8 -111 -75 -174 -187 -174c-107 0 -175 70 -175 193v165c0 122 69 192 176 192c109 0 179 -70 179 -192v-117h-275v-48c0 -80 36 -116 97 -116c67 0 98 30 107 97zM226 464c-61 0 -97 -37 -97 -116v-53h197v53
c0 79 -37 116 -100 116z" />
    <glyph glyph-name="ecaron" unicode="&#x11b;" horiz-adv-x="452" 
d="M261 607h-73l-82 119h65l54 -70l53 70h64zM333 163h78c-8 -111 -75 -174 -187 -174c-107 0 -175 70 -175 193v165c0 122 69 192 176 192c109 0 179 -70 179 -192v-117h-275v-48c0 -80 36 -116 97 -116c67 0 98 30 107 97zM226 464c-61 0 -97 -37 -97 -116v-53h197v53
c0 79 -37 116 -100 116z" />
    <glyph glyph-name="ecircumflex" unicode="&#xea;" horiz-adv-x="452" 
d="M225 676l-54 -70h-65l82 119h73l81 -119h-64zM333 163h78c-8 -111 -75 -174 -187 -174c-107 0 -175 70 -175 193v165c0 122 69 192 176 192c109 0 179 -70 179 -192v-117h-275v-48c0 -80 36 -116 97 -116c67 0 98 30 107 97zM226 464c-61 0 -97 -37 -97 -116v-53h197v53
c0 79 -37 116 -100 116z" />
    <glyph glyph-name="edieresis" unicode="&#xeb;" horiz-adv-x="452" 
d="M160 623c-27 0 -45 17 -45 45c0 27 18 44 45 44s45 -17 45 -44c0 -28 -18 -45 -45 -45zM289 623c-27 0 -46 17 -46 45c0 27 19 44 46 44c28 0 46 -17 46 -44c0 -28 -18 -45 -46 -45zM333 163h78c-8 -111 -75 -174 -187 -174c-107 0 -175 70 -175 193v165
c0 122 69 192 176 192c109 0 179 -70 179 -192v-117h-275v-48c0 -80 36 -116 97 -116c67 0 98 30 107 97zM226 464c-61 0 -97 -37 -97 -116v-53h197v53c0 79 -37 116 -100 116z" />
    <glyph glyph-name="edotaccent" unicode="&#x117;" horiz-adv-x="452" 
d="M224 616c-33 0 -55 22 -55 54c0 33 22 55 55 55c32 0 55 -22 55 -55c0 -31 -23 -54 -55 -54zM333 163h78c-8 -111 -75 -174 -187 -174c-107 0 -175 70 -175 193v165c0 122 69 192 176 192c109 0 179 -70 179 -192v-117h-275v-48c0 -80 36 -116 97 -116c67 0 98 30 107 97
zM226 464c-61 0 -97 -37 -97 -116v-53h197v53c0 79 -37 116 -100 116z" />
    <glyph glyph-name="egrave" unicode="&#xe8;" horiz-adv-x="452" 
d="M282 607h-67l-89 119h81zM333 163h78c-8 -111 -75 -174 -187 -174c-107 0 -175 70 -175 193v165c0 122 69 192 176 192c109 0 179 -70 179 -192v-117h-275v-48c0 -80 36 -116 97 -116c67 0 98 30 107 97zM226 464c-61 0 -97 -37 -97 -116v-53h197v53
c0 79 -37 116 -100 116z" />
    <glyph glyph-name="emacron" unicode="&#x113;" horiz-adv-x="452" 
d="M321 694v-60h-193v60h193zM333 163h78c-8 -111 -75 -174 -187 -174c-107 0 -175 70 -175 193v165c0 122 69 192 176 192c109 0 179 -70 179 -192v-117h-275v-48c0 -80 36 -116 97 -116c67 0 98 30 107 97zM226 464c-61 0 -97 -37 -97 -116v-53h197v53
c0 79 -37 116 -100 116z" />
    <glyph glyph-name="eogonek" unicode="&#x119;" horiz-adv-x="452" 
d="M307 -193c-62 0 -89 38 -89 84c0 36 18 70 48 101v1c-12 -2 -28 -4 -41 -4c-108 0 -176 70 -176 193v165c0 122 68 192 176 192s179 -69 179 -192v-117h-275v-48c0 -80 34 -116 99 -116c66 0 97 34 105 97h78c-6 -64 -25 -94 -54 -127c-39 -43 -69 -83 -69 -122
c0 -32 19 -40 38 -40c14 0 24 0 33 3v-62c-15 -5 -33 -8 -52 -8zM129 295h197v53c0 78 -37 116 -100 116c-61 0 -97 -36 -97 -116v-53z" />
    <glyph glyph-name="f" unicode="f" horiz-adv-x="297" 
d="M258 666c-58 0 -89 -31 -89 -103v-37h108v-71h-108v-455h-78v455h-79v71h79v37c0 107 56 175 167 175h30v-72h-30z" />
    <glyph glyph-name="g" unicode="g" horiz-adv-x="467" 
d="M345 526h60v-557c0 -98 -67 -162 -172 -162c-102 0 -167 61 -172 158h77c4 -55 38 -85 95 -85c58 0 93 33 93 89v91c-27 -27 -64 -41 -107 -41c-101 0 -170 71 -170 190v130c0 128 69 200 168 200c50 0 91 -21 119 -60zM232 93c59 0 94 38 94 116v138
c0 79 -41 117 -94 117c-65 0 -103 -38 -103 -125v-130c0 -78 38 -116 103 -116z" />
    <glyph glyph-name="gbreve" unicode="&#x11f;" horiz-adv-x="467" 
d="M230 608c-70 0 -114 43 -117 118h60c3 -39 21 -59 56 -59c36 0 54 20 56 59h61c-3 -75 -47 -118 -116 -118zM345 526h60v-557c0 -98 -67 -162 -172 -162c-102 0 -167 61 -172 158h77c4 -55 38 -85 95 -85c58 0 93 33 93 89v91c-27 -27 -64 -41 -107 -41
c-101 0 -170 71 -170 190v130c0 128 69 200 168 200c50 0 91 -21 119 -60zM232 93c59 0 94 38 94 116v138c0 79 -41 117 -94 117c-65 0 -103 -38 -103 -125v-130c0 -78 38 -116 103 -116z" />
    <glyph glyph-name="gcommaaccent" unicode="&#x123;" horiz-adv-x="467" 
d="M272 605h-82l-18 187h53zM345 526h60v-557c0 -98 -67 -162 -172 -162c-102 0 -167 61 -172 158h77c4 -55 38 -85 95 -85c58 0 93 33 93 89v91c-27 -27 -64 -41 -107 -41c-101 0 -170 71 -170 190v130c0 128 69 200 168 200c50 0 91 -21 119 -60zM232 93
c59 0 94 38 94 116v138c0 79 -41 117 -94 117c-65 0 -103 -38 -103 -125v-130c0 -78 38 -116 103 -116z" />
    <glyph glyph-name="gdotaccent" unicode="&#x121;" horiz-adv-x="467" 
d="M228 619c-33 0 -55 22 -55 54c0 33 22 55 55 55c32 0 55 -22 55 -55c0 -31 -23 -54 -55 -54zM345 526h60v-557c0 -98 -67 -162 -172 -162c-102 0 -167 61 -172 158h77c4 -55 38 -85 95 -85c58 0 93 33 93 89v91c-27 -27 -64 -41 -107 -41c-101 0 -170 71 -170 190v130
c0 128 69 200 168 200c50 0 91 -21 119 -60zM232 93c59 0 94 38 94 116v138c0 79 -41 117 -94 117c-65 0 -103 -38 -103 -125v-130c0 -78 38 -116 103 -116z" />
    <glyph glyph-name="h" unicode="h" horiz-adv-x="466" 
d="M266 539c91 0 143 -68 143 -220v-319h-78v315c0 107 -28 149 -86 149c-63 0 -105 -52 -105 -142v-322h-78v721h78v-254c27 44 69 72 126 72z" />
    <glyph glyph-name="hbar" unicode="&#x127;" horiz-adv-x="464" 
d="M264 539c91 0 144 -68 144 -220v-319h-79v315c0 107 -28 149 -85 149c-64 0 -105 -52 -105 -142v-322h-79v607h-64v51h64v66h79v-66h95v-51h-95v-139c27 43 68 71 125 71z" />
    <glyph glyph-name="i" unicode="i" horiz-adv-x="203" 
d="M101 619c-33 0 -55 22 -55 54c0 33 22 55 55 55c32 0 55 -22 55 -55c0 -31 -23 -54 -55 -54zM62 0v526h79v-526h-79z" />
    <glyph glyph-name="dotlessi" unicode="&#x131;" horiz-adv-x="203" 
d="M62 0v526h79v-526h-79z" />
    <glyph glyph-name="iacute" unicode="&#xed;" horiz-adv-x="203" 
d="M202 729l-89 -119h-67l75 119h81zM62 0v526h79v-526h-79z" />
    <glyph glyph-name="icircumflex" unicode="&#xee;" horiz-adv-x="231" 
d="M152 728l78 -119h-63l-51 70l-51 -70h-63l77 119h73zM76 0v526h79v-526h-79z" />
    <glyph glyph-name="idieresis" unicode="&#xef;" horiz-adv-x="217" 
d="M48 628c-26 0 -44 16 -44 43s18 44 44 44s43 -17 43 -44s-17 -43 -43 -43zM169 628c-27 0 -45 16 -45 43s18 44 45 44c26 0 44 -17 44 -44s-18 -43 -44 -43zM69 0v526h78v-526h-78z" />
    <glyph glyph-name="i.loclTRK" horiz-adv-x="203" 
d="M101 619c-33 0 -55 22 -55 54c0 33 22 55 55 55c32 0 55 -22 55 -55c0 -31 -23 -54 -55 -54zM62 0v526h79v-526h-79z" />
    <glyph glyph-name="igrave" unicode="&#xec;" horiz-adv-x="203" 
d="M3 729h81l75 -119h-67zM62 0v526h79v-526h-79z" />
    <glyph glyph-name="imacron" unicode="&#x12b;" horiz-adv-x="200" 
d="M10 697h181v-62h-181v62zM61 0v526h78v-526h-78z" />
    <glyph glyph-name="iogonek" unicode="&#x12f;" horiz-adv-x="200" 
d="M99 621c-28 0 -48 21 -48 48c0 28 20 48 48 48c27 0 48 -20 48 -48c0 -26 -21 -48 -48 -48zM127 -126c12 0 22 0 31 3v-62c-15 -6 -35 -8 -53 -8c-63 0 -90 39 -90 82c0 42 18 79 45 110v524h78v-523l-8 -1c-23 -25 -41 -60 -41 -85c0 -30 18 -40 38 -40z" />
    <glyph glyph-name="j" unicode="j" horiz-adv-x="240" 
d="M123 618c-33 0 -55 22 -55 54c0 33 22 55 55 55c32 0 55 -22 55 -55c0 -31 -23 -54 -55 -54zM-17 -193v76c74 1 101 39 101 112v531h78v-529c0 -117 -57 -189 -179 -190z" />
    <glyph glyph-name="k" unicode="k" horiz-adv-x="433" 
d="M343 0l-158 254l-45 -50v-204h-78v724h78v-419l174 221h95l-171 -212l197 -314h-92z" />
    <glyph glyph-name="kcommaaccent" unicode="&#x137;" horiz-adv-x="433" 
d="M238 314l197 -314h-92l-158 254l-45 -50v-204h-78v724h78v-419l174 221h95zM175 -257l18 187h77l-40 -187h-55z" />
    <glyph glyph-name="l" unicode="l" horiz-adv-x="203" 
d="M63 0v724h78v-724h-78z" />
    <glyph glyph-name="lacute" unicode="&#x13a;" horiz-adv-x="206" 
d="M49 769l92 119h83l-107 -119h-68zM63 0v724h78v-724h-78z" />
    <glyph glyph-name="lcaron" unicode="&#x13e;" horiz-adv-x="249" 
d="M189 587l11 180h77l-37 -180h-51zM63 0v724h78v-724h-78z" />
    <glyph glyph-name="lcommaaccent" unicode="&#x13c;" horiz-adv-x="203" 
d="M63 0v724h78v-724h-78zM58 -257l18 187h77l-40 -187h-55z" />
    <glyph glyph-name="lslash" unicode="&#x142;" horiz-adv-x="246" 
d="M234 476v-67l-73 -25v-384h-79v357l-69 -24v68l69 23v297h79v-270z" />
    <glyph glyph-name="m" unicode="m" horiz-adv-x="719" 
d="M523 539c85 0 140 -67 140 -207v-332h-78v328c0 99 -29 136 -80 136c-61 0 -103 -52 -103 -142v-322h-78v328c0 99 -31 136 -82 136c-61 0 -102 -52 -102 -142v-322h-78v526h59l10 -63c26 47 68 76 128 76c58 0 102 -29 125 -90c25 55 71 90 139 90z" />
    <glyph glyph-name="n" unicode="n" horiz-adv-x="466" 
d="M265 539c88 0 144 -62 144 -206v-333h-78v327c0 95 -26 137 -86 137c-63 0 -105 -52 -105 -142v-322h-78v526h59l10 -62c27 46 72 75 134 75z" />
    <glyph glyph-name="nacute" unicode="&#x144;" horiz-adv-x="466" 
d="M333 726l-89 -119h-67l75 119h81zM265 539c88 0 144 -62 144 -206v-333h-78v327c0 95 -26 137 -86 137c-63 0 -105 -52 -105 -142v-322h-78v526h59l10 -62c27 46 72 75 134 75z" />
    <glyph glyph-name="ncaron" unicode="&#x148;" horiz-adv-x="466" 
d="M269 607h-73l-82 119h65l54 -70l53 70h64zM265 539c88 0 144 -62 144 -206v-333h-78v327c0 95 -26 137 -86 137c-63 0 -105 -52 -105 -142v-322h-78v526h59l10 -62c27 46 72 75 134 75z" />
    <glyph glyph-name="ncommaaccent" unicode="&#x146;" horiz-adv-x="466" 
d="M265 539c88 0 144 -62 144 -206v-333h-78v327c0 95 -26 137 -86 137c-63 0 -105 -52 -105 -142v-322h-78v526h59l10 -62c27 46 72 75 134 75zM182 -257l18 187h77l-40 -187h-55z" />
    <glyph glyph-name="eng" unicode="&#x14b;" horiz-adv-x="466" 
d="M265 539c92 0 144 -62 144 -206v-361c0 -106 -58 -174 -177 -174v75c71 1 99 35 99 97v357c0 95 -26 137 -86 137c-63 0 -105 -52 -105 -142v-322h-78v526h59l10 -62c27 46 72 75 134 75z" />
    <glyph glyph-name="ntilde" unicode="&#xf1;" horiz-adv-x="466" 
d="M197 649c-11 0 -19 -9 -21 -28h-60c3 54 32 85 74 85c41 0 56 -31 78 -31c13 0 22 10 24 28h57c-5 -52 -32 -85 -74 -85c-40 0 -55 31 -78 31zM265 539c88 0 144 -62 144 -206v-333h-78v327c0 95 -26 137 -86 137c-63 0 -105 -52 -105 -142v-322h-78v526h59l10 -62
c27 46 72 75 134 75z" />
    <glyph glyph-name="o" unicode="o" horiz-adv-x="460" 
d="M230 -12c-110 0 -181 69 -181 195v161c0 126 71 195 181 195s180 -69 180 -195v-161c0 -126 -70 -195 -180 -195zM230 64c63 0 101 37 101 119v161c0 82 -38 118 -101 118s-101 -36 -101 -118v-161c0 -82 38 -119 101 -119z" />
    <glyph glyph-name="oacute" unicode="&#xf3;" horiz-adv-x="460" 
d="M330 729l-89 -119h-67l75 119h81zM230 -12c-110 0 -181 69 -181 195v161c0 126 71 195 181 195s180 -69 180 -195v-161c0 -126 -70 -195 -180 -195zM230 64c63 0 101 37 101 119v161c0 82 -38 118 -101 118s-101 -36 -101 -118v-161c0 -82 38 -119 101 -119z" />
    <glyph glyph-name="ocircumflex" unicode="&#xf4;" horiz-adv-x="460" 
d="M230 679l-54 -70h-65l82 119h73l81 -119h-64zM230 539c110 0 180 -69 180 -195v-161c0 -126 -70 -195 -180 -195s-181 69 -181 195v161c0 126 71 195 181 195zM331 183v161c0 82 -38 118 -101 118s-101 -36 -101 -118v-161c0 -82 38 -119 101 -119s101 37 101 119z" />
    <glyph glyph-name="odieresis" unicode="&#xf6;" horiz-adv-x="460" 
d="M165 626c-27 0 -45 17 -45 45c0 27 18 44 45 44s45 -17 45 -44c0 -28 -18 -45 -45 -45zM294 626c-27 0 -46 17 -46 45c0 27 19 44 46 44c28 0 46 -17 46 -44c0 -28 -18 -45 -46 -45zM230 -12c-110 0 -181 69 -181 195v161c0 126 71 195 181 195s180 -69 180 -195v-161
c0 -126 -70 -195 -180 -195zM230 64c63 0 101 37 101 119v161c0 82 -38 118 -101 118s-101 -36 -101 -118v-161c0 -82 38 -119 101 -119z" />
    <glyph glyph-name="ograve" unicode="&#xf2;" horiz-adv-x="460" 
d="M131 729h81l75 -119h-67zM230 -12c-110 0 -181 69 -181 195v161c0 126 71 195 181 195s180 -69 180 -195v-161c0 -126 -70 -195 -180 -195zM230 64c63 0 101 37 101 119v161c0 82 -38 118 -101 118s-101 -36 -101 -118v-161c0 -82 38 -119 101 -119z" />
    <glyph glyph-name="ohungarumlaut" unicode="&#x151;" horiz-adv-x="460" 
d="M268 729l-85 -119h-61l70 119h76zM383 729l-89 -119h-61l75 119h75zM230 -12c-110 0 -181 69 -181 195v161c0 126 71 195 181 195s180 -69 180 -195v-161c0 -126 -70 -195 -180 -195zM230 64c63 0 101 37 101 119v161c0 82 -38 118 -101 118s-101 -36 -101 -118v-161
c0 -82 38 -119 101 -119z" />
    <glyph glyph-name="omacron" unicode="&#x14d;" horiz-adv-x="460" 
d="M133 697h193v-60h-193v60zM230 -12c-110 0 -181 69 -181 195v161c0 126 71 195 181 195s180 -69 180 -195v-161c0 -126 -70 -195 -180 -195zM230 64c63 0 101 37 101 119v161c0 82 -38 118 -101 118s-101 -36 -101 -118v-161c0 -82 38 -119 101 -119z" />
    <glyph glyph-name="oslash" unicode="&#xf8;" horiz-adv-x="460" 
d="M355 495c35 -33 55 -84 55 -151v-159c0 -126 -70 -196 -180 -196c-26 0 -51 4 -72 12l-26 -65h-65l39 97c-36 33 -57 84 -57 152v159c0 126 71 195 181 195c27 0 52 -4 73 -12l26 64h65zM129 185c0 -26 4 -48 11 -66l134 335c-13 6 -27 8 -44 8c-63 0 -101 -36 -101 -118
v-159zM331 185v159c0 25 -4 46 -11 63l-133 -334c13 -5 27 -7 43 -7c63 0 101 37 101 119z" />
    <glyph glyph-name="otilde" unicode="&#xf5;" horiz-adv-x="460" 
d="M194 652c-11 0 -19 -9 -21 -28h-60c3 54 32 85 74 85c41 0 56 -31 78 -31c13 0 22 10 24 28h57c-5 -52 -32 -85 -74 -85c-40 0 -55 31 -78 31zM230 -12c-110 0 -181 69 -181 195v161c0 126 71 195 181 195s180 -69 180 -195v-161c0 -126 -70 -195 -180 -195zM230 64
c63 0 101 37 101 119v161c0 82 -38 118 -101 118s-101 -36 -101 -118v-161c0 -82 38 -119 101 -119z" />
    <glyph glyph-name="oe" unicode="&#x153;" horiz-adv-x="715" 
d="M596 171h79c-3 -116 -72 -182 -178 -182c-57 0 -105 26 -133 75c-30 -49 -79 -75 -137 -75c-108 0 -178 70 -178 195v157c0 125 70 194 178 194c58 0 107 -25 137 -75c28 49 76 75 134 75c107 0 175 -69 175 -192v-109h-270v-52c0 -80 35 -116 95 -116c62 0 96 33 98 105
zM403 344v-48h192v48c0 79 -36 116 -97 116c-60 0 -95 -37 -95 -116zM324 184v157c0 81 -36 117 -97 117c-62 0 -98 -36 -98 -117v-157c0 -81 36 -118 98 -118c61 0 97 37 97 118z" />
    <glyph glyph-name="p" unicode="p" horiz-adv-x="465" 
d="M250 538c98 0 166 -72 166 -203v-147c0 -129 -64 -200 -166 -200c-42 0 -83 18 -111 50v-218h-77v707h59l8 -49c26 35 72 60 121 60zM336 188v147c0 91 -37 130 -100 130c-55 0 -97 -42 -97 -128v-149c0 -76 37 -126 97 -126c66 0 100 38 100 126z" />
    <glyph glyph-name="thorn" unicode="&#xfe;" horiz-adv-x="461" 
d="M250 539c100 0 162 -71 162 -200v-136c0 -129 -62 -200 -162 -200c-42 0 -83 17 -111 50v-233h-77v901h77v-232c28 33 69 50 111 50zM332 203v136c0 88 -32 126 -96 126c-60 0 -97 -50 -97 -126v-136c0 -76 37 -126 97 -126c64 0 96 38 96 126z" />
    <glyph glyph-name="q" unicode="q" horiz-adv-x="465" 
d="M344 527h59v-707h-77v218c-28 -32 -69 -50 -111 -50c-102 0 -166 71 -166 200v147c0 131 68 203 166 203c49 0 95 -25 121 -60zM229 62c60 0 97 50 97 126v149c0 86 -42 128 -97 128c-63 0 -100 -39 -100 -130v-147c0 -88 34 -126 100 -126z" />
    <glyph glyph-name="r" unicode="r" horiz-adv-x="336" 
d="M268 538c21 0 38 -2 54 -7v-80c-19 7 -40 11 -66 11c-70 0 -116 -51 -116 -140v-322h-78v526h59l11 -64c27 47 72 76 136 76z" />
    <glyph glyph-name="racute" unicode="&#x155;" horiz-adv-x="336" 
d="M286 729l-89 -119h-67l75 119h81zM268 538c21 0 38 -2 54 -7v-80c-19 7 -40 11 -66 11c-70 0 -116 -51 -116 -140v-322h-78v526h59l11 -64c27 47 72 76 136 76z" />
    <glyph glyph-name="rcaron" unicode="&#x159;" horiz-adv-x="336" 
d="M222 610h-73l-82 119h65l54 -70l53 70h64zM268 538c21 0 38 -2 54 -7v-80c-19 7 -40 11 -66 11c-70 0 -116 -51 -116 -140v-322h-78v526h59l11 -64c27 47 72 76 136 76z" />
    <glyph glyph-name="rcommaaccent" unicode="&#x157;" horiz-adv-x="336" 
d="M268 538c21 0 38 -2 54 -7v-80c-19 7 -40 11 -66 11c-70 0 -116 -51 -116 -140v-322h-78v526h59l11 -64c27 47 72 76 136 76zM67 -257l18 187h77l-40 -187h-55z" />
    <glyph glyph-name="s" unicode="s" horiz-adv-x="410" 
d="M210 -13c-113 0 -181 73 -182 172h78c1 -58 36 -97 103 -97c57 0 91 29 91 77c0 117 -265 76 -265 255c0 88 65 145 165 145c105 0 167 -67 169 -165h-77c-1 57 -33 92 -92 92c-54 0 -86 -28 -86 -73c0 -111 265 -68 265 -255c0 -90 -66 -151 -169 -151z" />
    <glyph glyph-name="sacute" unicode="&#x15b;" horiz-adv-x="410" 
d="M304 730l-89 -119h-67l75 119h81zM210 -13c-113 0 -181 73 -182 172h78c1 -58 36 -97 103 -97c57 0 91 29 91 77c0 117 -265 76 -265 255c0 88 65 145 165 145c105 0 167 -67 169 -165h-77c-1 57 -33 92 -92 92c-54 0 -86 -28 -86 -73c0 -111 265 -68 265 -255
c0 -90 -66 -151 -169 -151z" />
    <glyph glyph-name="scaron" unicode="&#x161;" horiz-adv-x="410" 
d="M240 611h-73l-82 119h65l54 -70l53 70h64zM114 393c0 -111 265 -68 265 -255c0 -90 -66 -151 -169 -151c-113 0 -181 73 -182 172h78c1 -58 36 -97 103 -97c57 0 91 29 91 77c0 117 -265 76 -265 255c0 88 65 145 165 145c105 0 167 -67 169 -165h-77
c-1 57 -33 92 -92 92c-54 0 -86 -28 -86 -73z" />
    <glyph glyph-name="scedilla" unicode="&#x15f;" horiz-adv-x="410" 
d="M379 138c0 -85 -59 -145 -154 -151l-10 -36h13c38 0 71 -27 71 -69c0 -51 -40 -83 -96 -83c-50 0 -89 29 -94 78h55c5 -18 20 -28 40 -28c24 0 40 13 40 35c0 21 -13 33 -37 33c-12 0 -24 -3 -32 -8l-18 17l19 63c-93 14 -147 81 -148 170h78c1 -58 36 -97 103 -97
c57 0 91 29 91 77c0 117 -265 76 -265 255c0 88 65 145 165 145c105 0 167 -67 169 -165h-77c-1 57 -33 92 -92 92c-54 0 -86 -28 -86 -73c0 -111 265 -68 265 -255z" />
    <glyph glyph-name="scommaaccent" unicode="&#x219;" horiz-adv-x="410" 
d="M210 -13c-113 0 -181 73 -182 172h78c1 -58 36 -97 103 -97c57 0 91 29 91 77c0 117 -265 76 -265 255c0 88 65 145 165 145c105 0 167 -67 169 -165h-77c-1 57 -33 92 -92 92c-54 0 -86 -28 -86 -73c0 -111 265 -68 265 -255c0 -90 -66 -151 -169 -151zM160 -257l18 187
h77l-40 -187h-55z" />
    <glyph glyph-name="germandbls" unicode="&#xdf;" horiz-adv-x="471" 
d="M338 366c61 -24 101 -84 101 -170c0 -124 -75 -196 -192 -196h-55v78h49c77 0 114 37 114 120c0 85 -39 125 -113 125h-50v76h37c66 0 101 39 101 118c0 76 -30 119 -95 119c-64 0 -92 -42 -92 -126v-510h-81v510c0 125 63 203 174 203s176 -78 176 -197
c0 -74 -29 -128 -74 -150z" />
    <glyph glyph-name="t" unicode="t" horiz-adv-x="307" 
d="M253 68h31v-74h-33c-101 0 -158 64 -158 169v291h-78v72h78v123h78v-123h102v-72h-102v-291c0 -63 25 -95 82 -95z" />
    <glyph glyph-name="tbar" unicode="&#x167;" horiz-adv-x="307" 
d="M253 68h31v-74h-33c-101 0 -158 64 -158 169v99h-60v56h60v136h-78v72h78v123h78v-123h102v-72h-102v-136h77v-56h-77v-99c0 -63 25 -95 82 -95z" />
    <glyph glyph-name="tcaron" unicode="&#x165;" horiz-adv-x="335" 
d="M312 768l-36 -177h-52l12 177h76zM171 163c0 -63 25 -95 82 -95h31v-74h-33c-101 0 -158 64 -158 169v291h-78v72h78v123h78v-123h102v-72h-102v-291z" />
    <glyph glyph-name="uni0163" unicode="&#x163;" horiz-adv-x="302" 
d="M253 68h31v-74h-33c-101 0 -158 64 -158 169v291h-78v72h78v123h78v-123h102v-72h-102v-291c0 -63 25 -95 82 -95zM122 -257l18 187h77l-40 -187h-55z" />
    <glyph glyph-name="uni021B" unicode="&#x21b;" horiz-adv-x="302" 
d="M253 68h31v-74h-33c-101 0 -158 64 -158 169v291h-78v72h78v123h78v-123h102v-72h-102v-291c0 -63 25 -95 82 -95zM122 -257l18 187h77l-40 -187h-55z" />
    <glyph glyph-name="u" unicode="u" horiz-adv-x="466" 
d="M326 526h78v-526h-59l-10 62c-27 -46 -72 -75 -134 -75c-88 0 -144 62 -144 206v333h78v-327c0 -95 26 -137 86 -137c63 0 105 52 105 142v322z" />
    <glyph glyph-name="uacute" unicode="&#xfa;" horiz-adv-x="466" 
d="M331 726l-89 -119h-67l75 119h81zM326 526h78v-526h-59l-10 62c-27 -46 -72 -75 -134 -75c-88 0 -144 62 -144 206v333h78v-327c0 -95 26 -137 86 -137c63 0 105 52 105 142v322z" />
    <glyph glyph-name="ucircumflex" unicode="&#xfb;" horiz-adv-x="466" 
d="M231 676l-54 -70h-65l82 119h73l81 -119h-64zM326 526h78v-526h-59l-10 62c-27 -46 -72 -75 -134 -75c-88 0 -144 62 -144 206v333h78v-327c0 -95 26 -137 86 -137c63 0 105 52 105 142v322z" />
    <glyph glyph-name="udieresis" unicode="&#xfc;" horiz-adv-x="466" 
d="M166 623c-27 0 -45 17 -45 45c0 27 18 44 45 44s45 -17 45 -44c0 -28 -18 -45 -45 -45zM295 623c-27 0 -46 17 -46 45c0 27 19 44 46 44c28 0 46 -17 46 -44c0 -28 -18 -45 -46 -45zM326 526h78v-526h-59l-10 62c-27 -46 -72 -75 -134 -75c-88 0 -144 62 -144 206v333h78
v-327c0 -95 26 -137 86 -137c63 0 105 52 105 142v322z" />
    <glyph glyph-name="ugrave" unicode="&#xf9;" horiz-adv-x="466" 
d="M288 607h-67l-89 119h81zM326 526h78v-526h-59l-10 62c-27 -46 -72 -75 -134 -75c-88 0 -144 62 -144 206v333h78v-327c0 -95 26 -137 86 -137c63 0 105 52 105 142v322z" />
    <glyph glyph-name="uhungarumlaut" unicode="&#x171;" horiz-adv-x="466" 
d="M269 726l-85 -119h-61l70 119h76zM295 607h-61l75 119h75zM326 526h78v-526h-59l-10 62c-27 -46 -72 -75 -134 -75c-88 0 -144 62 -144 206v333h78v-327c0 -95 26 -137 86 -137c63 0 105 52 105 142v322z" />
    <glyph glyph-name="umacron" unicode="&#x16b;" horiz-adv-x="466" 
d="M327 694v-60h-193v60h193zM326 526h78v-526h-59l-10 62c-27 -46 -72 -75 -134 -75c-88 0 -144 62 -144 206v333h78v-327c0 -95 26 -137 86 -137c63 0 105 52 105 142v322z" />
    <glyph glyph-name="uogonek" unicode="&#x173;" horiz-adv-x="466" 
d="M404 0c-37 -27 -64 -65 -64 -94c0 -24 16 -32 37 -32c7 0 18 1 26 3v-62c-15 -6 -33 -8 -49 -8c-60 0 -85 40 -85 81c0 44 28 80 75 112l-10 62c-27 -45 -71 -74 -132 -74c-89 0 -146 60 -146 205v333h79v-326c0 -95 25 -138 85 -138c65 0 105 53 105 142v322h79v-526z
" />
    <glyph glyph-name="uring" unicode="&#x16f;" horiz-adv-x="466" 
d="M231 603c-45 0 -76 30 -76 74c0 43 31 73 76 73s75 -30 75 -73c0 -44 -30 -74 -75 -74zM231 708c-19 0 -32 -13 -32 -32s13 -31 32 -31c18 0 31 12 31 31s-13 32 -31 32zM326 526h78v-526h-59l-10 62c-27 -46 -72 -75 -134 -75c-88 0 -144 62 -144 206v333h78v-327
c0 -95 26 -137 86 -137c63 0 105 52 105 142v322z" />
    <glyph glyph-name="v" unicode="v" horiz-adv-x="393" 
d="M304 526h83l-147 -526h-87l-147 526h83l70 -271c12 -50 28 -124 35 -158h5c7 34 23 108 35 158z" />
    <glyph glyph-name="w" unicode="w" horiz-adv-x="623" 
d="M535 526h82l-128 -526h-86l-54 225c-16 66 -32 152 -36 194h-3c-4 -42 -20 -128 -36 -194l-55 -225h-85l-128 526h82l56 -260c12 -57 26 -141 32 -174h3c6 38 21 123 35 185l55 239h84l56 -239c13 -62 29 -147 35 -185h3c5 33 20 117 32 174z" />
    <glyph glyph-name="wacute" unicode="&#x1e83;" horiz-adv-x="623" 
d="M408 726l-89 -119h-67l75 119h81zM535 526h82l-128 -526h-86l-54 225c-16 66 -32 152 -36 194h-3c-4 -42 -20 -128 -36 -194l-55 -225h-85l-128 526h82l56 -260c12 -57 26 -141 32 -174h3c6 38 21 123 35 185l55 239h84l56 -239c13 -62 29 -147 35 -185h3
c5 33 20 117 32 174z" />
    <glyph glyph-name="wcircumflex" unicode="&#x175;" horiz-adv-x="623" 
d="M308 676l-54 -70h-65l82 119h73l81 -119h-64zM535 526h82l-128 -526h-86l-54 225c-16 66 -32 152 -36 194h-3c-4 -42 -20 -128 -36 -194l-55 -225h-85l-128 526h82l56 -260c12 -57 26 -141 32 -174h3c6 38 21 123 35 185l55 239h84l56 -239c13 -62 29 -147 35 -185h3
c5 33 20 117 32 174z" />
    <glyph glyph-name="wdieresis" unicode="&#x1e85;" horiz-adv-x="623" 
d="M243 623c-27 0 -45 17 -45 45c0 27 18 44 45 44s45 -17 45 -44c0 -28 -18 -45 -45 -45zM372 623c-27 0 -46 17 -46 45c0 27 19 44 46 44c28 0 46 -17 46 -44c0 -28 -18 -45 -46 -45zM535 526h82l-128 -526h-86l-54 225c-16 66 -32 152 -36 194h-3
c-4 -42 -20 -128 -36 -194l-55 -225h-85l-128 526h82l56 -260c12 -57 26 -141 32 -174h3c6 38 21 123 35 185l55 239h84l56 -239c13 -62 29 -147 35 -185h3c5 33 20 117 32 174z" />
    <glyph glyph-name="wgrave" unicode="&#x1e81;" horiz-adv-x="623" 
d="M365 607h-67l-89 119h81zM535 526h82l-128 -526h-86l-54 225c-16 66 -32 152 -36 194h-3c-4 -42 -20 -128 -36 -194l-55 -225h-85l-128 526h82l56 -260c12 -57 26 -141 32 -174h3c6 38 21 123 35 185l55 239h84l56 -239c13 -62 29 -147 35 -185h3c5 33 20 117 32 174z
" />
    <glyph glyph-name="x" unicode="x" horiz-adv-x="394" 
d="M392 0h-90l-105 201l-105 -201h-90l148 263l-139 263h88l98 -193l99 193h87l-138 -263z" />
    <glyph glyph-name="y" unicode="y" horiz-adv-x="402" 
d="M315 526h81l-172 -578c-24 -83 -58 -138 -134 -138h-43v76h30c43 0 57 32 70 75l28 93l-169 472h83l120 -357z" />
    <glyph glyph-name="yacute" unicode="&#xfd;" horiz-adv-x="402" 
d="M298 730l-89 -119h-67l75 119h81zM315 526h81l-172 -578c-24 -83 -58 -138 -134 -138h-43v76h30c43 0 57 32 70 75l28 93l-169 472h83l120 -357z" />
    <glyph glyph-name="ycircumflex" unicode="&#x177;" horiz-adv-x="402" 
d="M198 680l-54 -70h-65l82 119h73l81 -119h-64zM315 526h81l-172 -578c-24 -83 -58 -138 -134 -138h-43v76h30c43 0 57 32 70 75l28 93l-169 472h83l120 -357z" />
    <glyph glyph-name="ydieresis" unicode="&#xff;" horiz-adv-x="402" 
d="M133 627c-27 0 -45 17 -45 45c0 27 18 44 45 44s45 -17 45 -44c0 -28 -18 -45 -45 -45zM262 627c-27 0 -46 17 -46 45c0 27 19 44 46 44c28 0 46 -17 46 -44c0 -28 -18 -45 -46 -45zM315 526h81l-172 -578c-24 -83 -58 -138 -134 -138h-43v76h30c43 0 57 32 70 75l28 93
l-169 472h83l120 -357z" />
    <glyph glyph-name="ygrave" unicode="&#x1ef3;" horiz-adv-x="402" 
d="M255 611h-67l-89 119h81zM315 526h81l-172 -578c-24 -83 -58 -138 -134 -138h-43v76h30c43 0 57 32 70 75l28 93l-169 472h83l120 -357z" />
    <glyph glyph-name="z" unicode="z" horiz-adv-x="362" 
d="M110 73h230v-73h-327v57l221 397h-208v72h305v-56z" />
    <glyph glyph-name="zacute" unicode="&#x17a;" horiz-adv-x="362" 
d="M276 729l-89 -119h-67l75 119h81zM110 73h230v-73h-327v57l221 397h-208v72h305v-56z" />
    <glyph glyph-name="zcaron" unicode="&#x17e;" horiz-adv-x="362" 
d="M212 610h-73l-82 119h65l54 -70l53 70h64zM110 73h230v-73h-327v57l221 397h-208v72h305v-56z" />
    <glyph glyph-name="zdotaccent" unicode="&#x17c;" horiz-adv-x="362" 
d="M175 619c-33 0 -55 22 -55 54c0 33 22 55 55 55c32 0 55 -22 55 -55c0 -31 -23 -54 -55 -54zM110 73h230v-73h-327v57l221 397h-208v72h305v-56z" />
    <glyph glyph-name="uni0163.ss01" horiz-adv-x="307" 
d="M251 -6c-15 0 -30 1 -43 4l-18 -47c3 1 9 2 14 2c36 0 69 -28 69 -70c0 -47 -40 -76 -93 -76c-49 0 -87 28 -92 75h53c5 -18 21 -27 40 -27c23 0 40 11 40 31c0 21 -12 32 -36 32c-13 0 -25 -3 -33 -7l-17 17l30 86c-47 27 -73 79 -73 149v291h-77v72h77v123h79v-123h102
v-72h-102v-291c0 -63 25 -95 82 -95h31v-74h-33z" />
    <glyph glyph-name="uni0410" unicode="&#x410;" horiz-adv-x="467" 
d="M372 0l-37 152h-203l-37 -152h-86l180 700h89l180 -700h-86zM150 228h167l-57 237c-11 45 -21 104 -25 131h-3c-4 -27 -14 -86 -25 -131z" />
    <glyph glyph-name="uni0411" unicode="&#x411;" horiz-adv-x="496" 
d="M258 420c127 0 206 -79 206 -208c0 -136 -79 -212 -206 -212h-185v700h353v-77h-270v-203h102zM255 77c75 0 125 45 125 135c0 88 -50 132 -125 132h-99v-267h99z" />
    <glyph glyph-name="uni0412" unicode="&#x412;" horiz-adv-x="500" 
d="M358 361c66 -21 106 -81 106 -165c0 -125 -77 -196 -200 -196h-191v700h178c115 0 186 -69 186 -186c0 -76 -31 -131 -79 -153zM245 623h-90v-227h92c71 0 106 40 106 116s-35 111 -108 111zM257 77c83 0 124 37 124 119c0 81 -52 123 -131 123h-95v-242h102z" />
    <glyph glyph-name="uni0413" unicode="&#x413;" horiz-adv-x="418" 
d="M401 700v-77h-246v-623h-82v700h328z" />
    <glyph glyph-name="uni0403" unicode="&#x403;" horiz-adv-x="418" 
d="M344 888l-107 -119h-68l92 119h83zM401 700v-77h-246v-623h-82v700h328z" />
    <glyph glyph-name="uni0490" unicode="&#x490;" horiz-adv-x="418" 
d="M329 808h72v-185h-246v-623h-82v700h256v108z" />
    <glyph glyph-name="uni0414" unicode="&#x414;" horiz-adv-x="537" 
d="M453 77h61v-193h-80v116h-348v-116h-80v193h40c46 46 74 146 78 264l12 359h317v-623zM371 77v546h-158l-11 -305c-4 -105 -24 -185 -57 -241h226z" />
    <glyph glyph-name="uni0415" unicode="&#x415;" horiz-adv-x="458" 
d="M155 77h264v-77h-346v700h335v-76h-253v-231h235v-75h-235v-241z" />
    <glyph glyph-name="uni0401" unicode="&#x401;" horiz-adv-x="458" 
d="M178 785c-27 0 -46 17 -46 44c0 28 19 45 46 45c26 0 44 -17 44 -45c0 -27 -18 -44 -44 -44zM316 785c-27 0 -46 17 -46 44c0 28 19 45 46 45s45 -17 45 -45c0 -27 -18 -44 -45 -44zM155 77h264v-77h-346v700h335v-76h-253v-231h235v-75h-235v-241z" />
    <glyph glyph-name="uni0416" unicode="&#x416;" horiz-adv-x="709" 
d="M614 0l-187 310l-33 -49v-261h-79v260l-34 50l-186 -310h-95l234 379l-217 321h95l149 -228l54 -89v317h79v-317l58 94l145 223h95l-218 -321l235 -379h-95z" />
    <glyph glyph-name="uni0417" unicode="&#x417;" horiz-adv-x="486" 
d="M322 362c91 -24 125 -88 125 -171c0 -128 -88 -204 -207 -204c-128 0 -206 89 -211 207h83c4 -73 47 -128 127 -128c73 0 125 48 125 127c0 86 -58 130 -137 130h-55v74h47c77 0 129 37 129 122c0 73 -40 116 -110 116c-78 0 -111 -50 -117 -130h-82
c8 126 75 209 199 209c116 0 192 -73 192 -198c0 -77 -30 -128 -108 -154z" />
    <glyph glyph-name="uni0418" unicode="&#x418;" horiz-adv-x="547" 
d="M73 0v700h81v-373c0 -42 -2 -120 -6 -168l3 -2c11 29 30 78 49 119l186 424h88v-700h-81v381c0 42 2 119 4 162l-2 2c-10 -26 -30 -78 -44 -110l-192 -435h-86z" />
    <glyph glyph-name="uni0419" unicode="&#x419;" horiz-adv-x="547" 
d="M276 767c-70 0 -114 43 -117 118h60c3 -39 21 -59 56 -59c36 0 54 20 56 59h61c-3 -75 -47 -118 -116 -118zM73 0v700h81v-373c0 -42 -2 -120 -6 -168l3 -2c11 29 30 78 49 119l186 424h88v-700h-81v381c0 42 2 119 4 162l-2 2c-10 -26 -30 -78 -44 -110l-192 -435h-86z
" />
    <glyph glyph-name="uni040D" unicode="&#x40d;" horiz-adv-x="547" 
d="M328 769h-68l-107 119h83zM73 0v700h81v-373c0 -42 -2 -120 -6 -168l3 -2c11 29 30 78 49 119l186 424h88v-700h-81v381c0 42 2 119 4 162l-2 2c-10 -26 -30 -78 -44 -110l-192 -435h-86z" />
    <glyph glyph-name="uni041A" unicode="&#x41a;" horiz-adv-x="492" 
d="M397 0l-194 324l-48 -70v-254h-82v700h82v-320l52 84l158 236h99l-212 -305l240 -395h-95z" />
    <glyph glyph-name="uni040C" unicode="&#x40c;" horiz-adv-x="492" 
d="M347 888l-107 -119h-68l92 119h83zM397 0l-194 324l-48 -70v-254h-82v700h82v-320l52 84l158 236h99l-212 -305l240 -395h-95z" />
    <glyph glyph-name="uni041B" unicode="&#x41b;" horiz-adv-x="505" 
d="M107 700h324v-700h-82v623h-163c-10 -212 -19 -391 -31 -476c-15 -109 -67 -157 -155 -157v77c45 0 67 33 76 96c10 74 20 251 31 537z" />
    <glyph glyph-name="uni041C" unicode="&#x41c;" horiz-adv-x="671" 
d="M512 700h85v-700h-81v321c1 76 3 144 7 212l-4 1c-19 -53 -45 -118 -70 -184l-73 -189h-81l-74 189c-24 66 -51 131 -69 184l-5 -1c4 -68 7 -136 7 -212v-321h-81v700h86l121 -293c17 -42 42 -111 53 -147h4c12 36 37 105 54 147z" />
    <glyph glyph-name="uni041D" unicode="&#x41d;" horiz-adv-x="534" 
d="M378 700h83v-700h-83v317h-222v-317h-83v700h83v-306h222v306z" />
    <glyph glyph-name="uni041E" unicode="&#x41e;" horiz-adv-x="523" 
d="M262 -13c-130 0 -208 89 -208 233v261c0 143 78 232 208 232s207 -89 207 -232v-261c0 -144 -77 -233 -207 -233zM262 67c81 0 123 55 123 153v261c0 97 -42 152 -123 152c-82 0 -124 -55 -124 -152v-261c0 -98 42 -153 124 -153z" />
    <glyph glyph-name="uni041F" unicode="&#x41f;" horiz-adv-x="533" 
d="M460 700v-700h-82v623h-223v-623h-82v700h387z" />
    <glyph glyph-name="uni0420" unicode="&#x420;" horiz-adv-x="491" 
d="M250 700c133 0 208 -80 208 -221c0 -145 -75 -224 -208 -224h-95v-255h-82v700h177zM250 333c84 0 125 46 125 146c0 95 -41 143 -125 143h-95v-289h95z" />
    <glyph glyph-name="uni0421" unicode="&#x421;" horiz-adv-x="486" 
d="M251 -12c-118 0 -197 76 -197 214v296c0 138 78 215 195 215c120 0 194 -74 201 -209h-81c-6 90 -48 132 -121 132c-67 0 -112 -44 -112 -138v-296c0 -93 47 -137 115 -137c74 0 115 43 123 131h81c-8 -133 -82 -208 -204 -208z" />
    <glyph glyph-name="uni0422" unicode="&#x422;" horiz-adv-x="417" 
d="M400 700v-77h-150v-623h-83v623h-150v77h383z" />
    <glyph glyph-name="uni0423" unicode="&#x423;" horiz-adv-x="420" 
d="M330 700h85l-172 -563c-30 -98 -76 -147 -173 -147h-24v76h26c54 0 78 34 97 96l15 49l-177 489h86l127 -367z" />
    <glyph glyph-name="uni040E" unicode="&#x40e;" horiz-adv-x="420" 
d="M214 767c-70 0 -114 43 -117 118h60c3 -39 21 -59 56 -59c36 0 54 20 56 59h61c-3 -75 -47 -118 -116 -118zM330 700h85l-172 -563c-30 -98 -76 -147 -173 -147h-24v76h26c54 0 78 34 97 96l15 49l-177 489h86l127 -367z" />
    <glyph glyph-name="uni0424" unicode="&#x424;" horiz-adv-x="658" 
d="M288 -59v78h-18c-144 0 -237 91 -237 253v155c0 163 93 255 237 255h18v73h81v-73h18c145 0 238 -92 238 -255v-155c0 -162 -93 -253 -238 -253h-18v-78h-81zM269 98h19v505h-19c-98 0 -154 -56 -154 -176v-155c0 -119 56 -174 154 -174zM369 98h20c98 0 154 55 154 174
v155c0 120 -56 176 -154 176h-20v-505z" />
    <glyph glyph-name="uni0425" unicode="&#x425;" horiz-adv-x="463" 
d="M446 0h-91l-123 282l-123 -282h-91l168 364l-159 336h91l114 -258l114 258h91l-159 -336z" />
    <glyph glyph-name="uni0427" unicode="&#x427;" horiz-adv-x="500" 
d="M345 700h82v-701h-82v267c-31 -12 -67 -19 -99 -19c-127 0 -207 78 -207 217v236h82v-237c0 -94 49 -139 131 -139c31 0 60 5 93 19v357z" />
    <glyph glyph-name="uni0426" unicode="&#x426;" horiz-adv-x="542" 
d="M439 -116v116h-366v700h83v-623h218v623h82v-623h63v-193h-80z" />
    <glyph glyph-name="uni0428" unicode="&#x428;" horiz-adv-x="798" 
d="M73 0v700h82v-623h203v623h82v-623h203v623h81v-700h-651z" />
    <glyph glyph-name="uni0429" unicode="&#x429;" horiz-adv-x="808" 
d="M723 77h62v-193h-80v116h-632v700h82v-623h203v623h81v-623h203v623h81v-623z" />
    <glyph glyph-name="uni040F" unicode="&#x40f;" horiz-adv-x="533" 
d="M227 -116v116h-154v700h82v-623h223v623h82v-700h-153v-116h-80z" />
    <glyph glyph-name="uni042C" unicode="&#x42c;" horiz-adv-x="482" 
d="M73 0v700h83v-285h101c127 0 204 -80 204 -206c0 -134 -77 -209 -204 -209h-184zM156 76h98c74 0 123 45 123 133c0 85 -49 128 -123 128h-98v-261z" />
    <glyph glyph-name="uni042A" unicode="&#x42a;" horiz-adv-x="545" 
d="M140 0v624h-124v76h207v-283h90c133 0 211 -80 211 -207c0 -135 -78 -210 -211 -210h-173zM223 77h87c81 0 130 45 130 133c0 85 -49 129 -130 129h-87v-262z" />
    <glyph glyph-name="uni042B" unicode="&#x42b;" horiz-adv-x="697" 
d="M73 0v700h84v-286h85c132 0 209 -79 209 -206c0 -133 -77 -208 -209 -208h-169zM541 0v700h82v-700h-82zM157 77h82c79 0 127 44 127 131c0 85 -48 128 -127 128h-82v-259z" />
    <glyph glyph-name="uni0409" unicode="&#x409;" horiz-adv-x="737" 
d="M0 -10v77c44 0 66 34 75 97c10 73 19 257 29 536h315v-286h88c132 0 209 -79 209 -207c0 -132 -78 -207 -209 -207h-171v623h-154c-8 -203 -17 -391 -29 -476c-17 -108 -66 -157 -153 -157zM419 77h85c79 0 127 44 127 131c0 85 -48 128 -127 128h-85v-259z" />
    <glyph glyph-name="uni040A" unicode="&#x40a;" horiz-adv-x="777" 
d="M547 407c132 0 209 -77 209 -200c0 -133 -77 -207 -209 -207h-174v329h-218v-329h-82v700h82v-294h218v294h82v-293h92zM544 77c80 0 127 44 127 130c0 81 -47 122 -127 122h-89v-252h89z" />
    <glyph glyph-name="uni0405" unicode="&#x405;" horiz-adv-x="458" 
d="M229 -13c-120 0 -198 77 -200 199h83c2 -79 47 -120 116 -120c76 0 113 47 113 113c0 150 -301 154 -301 360c0 99 74 174 187 174c115 0 185 -77 189 -192h-83c-3 77 -44 113 -105 113c-66 0 -105 -38 -105 -96c0 -149 302 -146 302 -360c0 -100 -69 -191 -196 -191z
" />
    <glyph glyph-name="uni0404" unicode="&#x404;" horiz-adv-x="486" 
d="M374 196h81c-8 -133 -82 -208 -204 -208c-118 0 -197 76 -197 214v296c0 138 78 215 195 215c120 0 194 -74 201 -209h-81c-6 90 -48 132 -121 132c-67 0 -112 -44 -112 -138v-106h196v-72h-196v-118c0 -93 47 -137 115 -137c74 0 115 43 123 131z" />
    <glyph glyph-name="uni042D" unicode="&#x42d;" horiz-adv-x="486" 
d="M237 713c117 0 195 -77 195 -215v-296c0 -138 -79 -214 -197 -214c-122 0 -196 75 -204 208h81c8 -88 49 -131 123 -131c68 0 115 44 115 137v118h-196v72h196v106c0 94 -45 138 -112 138c-73 0 -115 -42 -121 -132h-81c7 135 81 209 201 209z" />
    <glyph glyph-name="uni0406" unicode="&#x406;" horiz-adv-x="229" 
d="M73 700h82v-700h-82v700z" />
    <glyph glyph-name="uni0407" unicode="&#x407;" horiz-adv-x="229" 
d="M47 785c-27 0 -46 17 -46 44c0 28 19 45 46 45c26 0 44 -17 44 -45c0 -27 -18 -44 -44 -44zM185 785c-27 0 -46 17 -46 44c0 28 19 45 46 45s45 -17 45 -45c0 -27 -18 -44 -45 -44zM73 700h82v-700h-82v700z" />
    <glyph glyph-name="uni0408" unicode="&#x408;" horiz-adv-x="266" 
d="M0 -99v79c75 0 115 33 115 135v585h82v-586c0 -143 -69 -213 -197 -213z" />
    <glyph glyph-name="uni040B" unicode="&#x40b;" horiz-adv-x="566" 
d="M367 525c93 0 143 -68 143 -218v-307h-79v303c0 106 -27 148 -84 148c-62 0 -103 -51 -104 -137v-314h-83v623h-143v77h368v-77h-142v-167c26 42 66 69 124 69z" />
    <glyph glyph-name="uni042E" unicode="&#x42e;" horiz-adv-x="740" 
d="M480 710c130 0 206 -89 206 -240v-240c0 -151 -76 -240 -206 -240c-129 0 -206 89 -206 240v87h-119v-317h-82v700h82v-306h119v76c0 151 77 240 206 240zM602 230v240c0 105 -42 160 -122 160s-122 -55 -122 -160v-240c0 -105 42 -160 122 -160s122 55 122 160z" />
    <glyph glyph-name="uni042F" unicode="&#x42f;" horiz-adv-x="491" 
d="M22 0l161 275c-89 22 -139 98 -139 206c0 139 77 219 204 219h170v-700h-82v265h-68l-153 -265h-93zM247 342h89v281h-87c-80 0 -121 -48 -121 -140c0 -90 41 -141 119 -141z" />
    <glyph glyph-name="uni0402" unicode="&#x402;" horiz-adv-x="559" 
d="M367 525c93 0 143 -68 143 -218v-132c0 -114 -59 -181 -177 -182v75c70 2 98 36 98 107v128c0 106 -27 148 -84 148c-63 0 -104 -51 -104 -138v-313h-83v623h-143v77h368v-77h-142v-167c26 42 66 69 124 69z" />
    <glyph glyph-name="uni0414.loclBGR" horiz-adv-x="491" 
d="M0 -116v193h49l153 623h88l152 -623h49v-193h-80v116h-331v-116h-80zM132 77h228l-72 317c-14 65 -28 138 -41 204h-3c-8 -48 -26 -144 -39 -203z" />
    <glyph glyph-name="uni041B.loclBGR" horiz-adv-x="460" 
d="M184 700h92l175 -700h-87l-94 411c-15 67 -27 127 -38 182h-4c-12 -55 -23 -115 -38 -182l-95 -411h-86z" />
    <glyph glyph-name="uni0430" unicode="&#x430;" horiz-adv-x="451" 
d="M223 539c106 0 166 -68 166 -182v-357h-65l-6 50c-23 -36 -61 -63 -120 -63c-96 0 -164 62 -164 163c0 104 71 160 186 160h90v46c0 69 -29 107 -89 107c-51 0 -88 -28 -92 -81h-79c4 96 71 157 173 157zM310 153v87h-91c-68 0 -105 -32 -105 -91c0 -58 39 -89 99 -89
s97 38 97 93z" />
    <glyph glyph-name="uni0431" unicode="&#x431;" horiz-adv-x="467" 
d="M257 494c95 0 161 -69 161 -191v-119c0 -125 -70 -195 -179 -195c-108 0 -177 70 -177 195v286c0 141 99 189 171 211c47 14 71 22 95 63l60 -46c-27 -54 -73 -75 -125 -89c-55 -15 -123 -36 -123 -136v-33c27 35 66 54 117 54zM338 184v111c0 86 -37 123 -96 123
c-52 0 -100 -30 -100 -118v-116c0 -81 36 -118 97 -118c62 0 99 37 99 118z" />
    <glyph glyph-name="uni0432" unicode="&#x432;" horiz-adv-x="427" 
d="M314 279c57 -21 85 -74 85 -127c0 -95 -60 -152 -177 -152h-160v526h148c105 0 163 -55 163 -143c0 -38 -21 -78 -59 -104zM138 457v-151h69c58 0 88 28 88 75c0 48 -30 76 -88 76h-69zM223 70c66 0 98 29 98 84c0 53 -32 83 -98 83h-85v-167h85z" />
    <glyph glyph-name="uni0433" unicode="&#x433;" horiz-adv-x="344" 
d="M330 527v-76h-189v-451h-79v527h268z" />
    <glyph glyph-name="uni0453" unicode="&#x453;" horiz-adv-x="344" 
d="M292 729l-89 -119h-67l75 119h81zM330 527v-76h-189v-451h-79v527h268z" />
    <glyph glyph-name="uni0491" unicode="&#x491;" horiz-adv-x="345" 
d="M261 626h69v-175h-189v-451h-79v526h199v100z" />
    <glyph glyph-name="uni0434" unicode="&#x434;" horiz-adv-x="461" 
d="M0 -116v189h39c29 48 43 124 49 210c6 82 9 162 10 243h290v-453h59v-189h-76v116h-295v-116h-76zM127 73h183v380h-137c-1 -62 -3 -123 -8 -185c-7 -84 -19 -148 -38 -195z" />
    <glyph glyph-name="uni0435" unicode="&#x435;" horiz-adv-x="452" 
d="M333 163h78c-8 -111 -75 -174 -187 -174c-107 0 -175 70 -175 193v165c0 122 69 192 176 192c109 0 179 -70 179 -192v-117h-275v-48c0 -80 36 -116 97 -116c67 0 98 30 107 97zM226 464c-61 0 -97 -37 -97 -116v-53h197v53c0 79 -37 116 -100 116z" />
    <glyph glyph-name="uni0451" unicode="&#x451;" horiz-adv-x="452" 
d="M156 623c-27 0 -45 17 -45 45c0 27 18 44 45 44s45 -17 45 -44c0 -28 -18 -45 -45 -45zM285 623c-27 0 -46 17 -46 45c0 27 19 44 46 44c28 0 46 -17 46 -44c0 -28 -18 -45 -46 -45zM333 163h78c-8 -111 -75 -174 -187 -174c-107 0 -175 70 -175 193v165
c0 122 69 192 176 192c109 0 179 -70 179 -192v-117h-275v-48c0 -80 36 -116 97 -116c67 0 98 30 107 97zM226 464c-61 0 -97 -37 -97 -116v-53h197v53c0 79 -37 116 -100 116z" />
    <glyph glyph-name="uni0436" unicode="&#x436;" horiz-adv-x="613" 
d="M524 0l-147 238l-33 -40v-198h-75v199l-33 39l-147 -238h-91l190 298l-172 228h94l87 -124c24 -34 48 -70 72 -106v230h75v-230c24 36 48 72 72 106l88 124h94l-172 -227l189 -299h-91z" />
    <glyph glyph-name="uni0437" unicode="&#x437;" horiz-adv-x="412" 
d="M299 276c45 -18 84 -63 84 -123c0 -99 -73 -164 -179 -164c-112 0 -180 67 -184 162h77c4 -52 40 -87 107 -87c63 0 101 33 101 93c0 50 -36 82 -102 82h-71v65h68c54 0 90 27 90 78c0 47 -31 80 -87 80c-60 0 -91 -29 -95 -91h-77c5 104 65 164 171 164
c97 0 165 -64 165 -147c0 -59 -33 -95 -68 -112z" />
    <glyph glyph-name="uni0438" unicode="&#x438;" horiz-adv-x="461" 
d="M62 0v526h77v-260c0 -40 0 -84 -2 -132l2 -2c9 24 32 82 46 114l134 280h80v-526h-76v242c0 52 1 107 4 155l-2 1c-7 -23 -32 -89 -51 -129l-132 -269h-80z" />
    <glyph glyph-name="uni0439" unicode="&#x439;" horiz-adv-x="461" 
d="M232 608c-70 0 -114 43 -117 118h60c3 -39 21 -59 56 -59c36 0 54 20 56 59h61c-3 -75 -47 -118 -116 -118zM62 0v526h77v-260c0 -40 0 -84 -2 -132l2 -2c9 24 32 82 46 114l134 280h80v-526h-76v242c0 52 1 107 4 155l-2 1c-7 -23 -32 -89 -51 -129l-132 -269h-80z" />
    <glyph glyph-name="uni045D" unicode="&#x45d;" horiz-adv-x="461" 
d="M132 729h81l75 -119h-67zM62 0v526h77v-260c0 -40 0 -84 -2 -132l2 -2c9 24 32 82 46 114l134 280h80v-526h-76v242c0 52 1 107 4 155l-2 1c-7 -23 -32 -89 -51 -129l-132 -269h-80z" />
    <glyph glyph-name="uni043A" unicode="&#x43a;" horiz-adv-x="432" 
d="M340 0l-162 238l-38 -43v-195h-78v526h78v-232c24 33 47 66 70 97l101 135h97l-179 -226l204 -300h-93z" />
    <glyph glyph-name="uni045C" unicode="&#x45c;" horiz-adv-x="432" 
d="M313 729l-89 -119h-67l75 119h81zM340 0l-162 238l-38 -43v-195h-78v526h78v-232c24 33 47 66 70 97l101 135h97l-179 -226l204 -300h-93z" />
    <glyph glyph-name="uni043B" unicode="&#x43b;" horiz-adv-x="442" 
d="M3 -6v76c57 0 68 71 75 165c7 86 11 191 13 291h289v-526h-78v453h-135c-2 -70 -7 -171 -12 -231c-11 -152 -53 -228 -152 -228z" />
    <glyph glyph-name="uni043C" unicode="&#x43c;" horiz-adv-x="547" 
d="M406 526h79v-526h-74v248c0 53 4 99 6 142l-4 2c-15 -44 -29 -88 -45 -127l-57 -131h-75l-57 131c-15 39 -30 83 -44 127l-4 -2c1 -43 5 -89 5 -142v-248h-74v526h80l93 -214c13 -32 26 -63 37 -96h3c11 33 24 64 37 96z" />
    <glyph glyph-name="uni043D" unicode="&#x43d;" horiz-adv-x="454" 
d="M313 526h79v-526h-79v234h-173v-234h-78v526h78v-218h173v218z" />
    <glyph glyph-name="uni043E" unicode="&#x43e;" horiz-adv-x="460" 
d="M230 -12c-110 0 -181 69 -181 195v161c0 126 71 195 181 195s180 -69 180 -195v-161c0 -126 -70 -195 -180 -195zM230 64c63 0 101 37 101 119v161c0 82 -38 118 -101 118s-101 -36 -101 -118v-161c0 -82 38 -119 101 -119z" />
    <glyph glyph-name="uni043F" unicode="&#x43f;" horiz-adv-x="454" 
d="M392 526v-526h-79v453h-173v-453h-78v526h330z" />
    <glyph glyph-name="uni0440" unicode="&#x440;" horiz-adv-x="465" 
d="M250 538c98 0 166 -72 166 -203v-147c0 -129 -64 -200 -166 -200c-42 0 -83 18 -111 50v-218h-77v707h59l8 -49c26 35 72 60 121 60zM336 188v147c0 91 -37 130 -100 130c-55 0 -97 -42 -97 -128v-149c0 -76 37 -126 97 -126c66 0 100 38 100 126z" />
    <glyph glyph-name="uni0441" unicode="&#x441;" horiz-adv-x="435" 
d="M223 -11c-106 0 -174 69 -174 191v169c0 121 68 190 174 190c109 0 174 -69 178 -190h-80c-2 77 -37 114 -98 114c-59 0 -94 -37 -94 -114v-169c0 -78 35 -114 94 -114c62 0 97 36 100 114h79c-3 -122 -71 -191 -179 -191z" />
    <glyph glyph-name="uni0442" unicode="&#x442;" horiz-adv-x="350" 
d="M339 526v-73h-125v-453h-78v453h-125v73h328z" />
    <glyph glyph-name="uni0443" unicode="&#x443;" horiz-adv-x="402" 
d="M315 526h81l-172 -578c-24 -83 -58 -138 -134 -138h-43v76h30c43 0 57 32 70 75l28 93l-169 472h83l120 -357z" />
    <glyph glyph-name="uni045E" unicode="&#x45e;" horiz-adv-x="402" 
d="M199 609c-70 0 -114 43 -117 118h60c3 -39 21 -59 56 -59c36 0 54 20 56 59h61c-3 -75 -47 -118 -116 -118zM315 526h81l-172 -578c-24 -83 -58 -138 -134 -138h-43v76h30c43 0 57 32 70 75l28 93l-169 472h83l120 -357z" />
    <glyph glyph-name="uni0444" unicode="&#x444;" horiz-adv-x="619" 
d="M371 534c113 0 198 -75 198 -207v-128c0 -131 -85 -206 -198 -206h-23v-173h-77v173h-23c-113 0 -199 75 -199 206v128c0 132 85 207 199 207h23v187h77v-187h23zM248 69h23v389h-23c-67 0 -119 -42 -119 -131v-128c0 -87 52 -130 119 -130zM490 199v128
c0 89 -52 131 -119 131h-23v-389h23c66 0 119 43 119 130z" />
    <glyph glyph-name="uni0445" unicode="&#x445;" horiz-adv-x="394" 
d="M392 0h-90l-105 201l-105 -201h-90l148 263l-139 263h88l98 -193l99 193h87l-138 -263z" />
    <glyph glyph-name="hacy.001" horiz-adv-x="394" 
d="M392 0h-90l-105 201l-105 -201h-90l148 263l-139 263h88l98 -193l99 193h87l-138 -263z" />
    <glyph glyph-name="uni0447" unicode="&#x447;" horiz-adv-x="429" 
d="M291 526h76v-526h-76v191c-31 -16 -64 -20 -97 -20c-91 0 -163 66 -163 209v146h76v-146c0 -98 40 -134 94 -134c29 0 61 2 90 20v260z" />
    <glyph glyph-name="uni0446" unicode="&#x446;" horiz-adv-x="468" 
d="M372 -116v116h-310v526h78v-453h170v453h79v-453h59v-189h-76z" />
    <glyph glyph-name="uni0448" unicode="&#x448;" horiz-adv-x="684" 
d="M544 526h78v-526h-566v526h78v-453h166v453h78v-453h166v453z" />
    <glyph glyph-name="uni0449" unicode="&#x449;" horiz-adv-x="705" 
d="M628 72h57v-188h-74v116h-549v526h78v-453h166v453h78v-453h166v453h78v-454z" />
    <glyph glyph-name="uni045F" unicode="&#x45f;" horiz-adv-x="454" 
d="M392 526v-526h-126v-116h-74v116h-130v526h78v-453h173v453h79z" />
    <glyph glyph-name="uni044C" unicode="&#x44c;" horiz-adv-x="416" 
d="M230 345c97 0 173 -70 173 -171c0 -103 -76 -174 -173 -174h-168v526h78v-181h90zM225 73c57 0 98 39 98 101c0 60 -41 98 -98 98h-85v-199h85z" />
    <glyph glyph-name="uni044A" unicode="&#x44a;" horiz-adv-x="470" 
d="M284 345c98 0 173 -70 173 -171c0 -103 -75 -174 -173 -174h-167v454h-106v72h184v-181h89zM279 73c57 0 99 39 99 101c0 60 -42 98 -99 98h-84v-199h84z" />
    <glyph glyph-name="uni044B" unicode="&#x44b;" horiz-adv-x="615" 
d="M230 338c97 0 173 -68 173 -168s-76 -170 -173 -170h-168v523h78v-185h90zM475 523h78v-523h-78v523zM225 73c57 0 98 38 98 98c0 58 -41 94 -98 94h-85v-192h85z" />
    <glyph glyph-name="uni0459" unicode="&#x459;" horiz-adv-x="655" 
d="M3 -6v76c57 0 69 71 75 165c7 86 11 191 13 291h289v-188h89c98 0 173 -68 173 -168s-75 -170 -173 -170h-167v453h-135c-2 -70 -7 -171 -12 -231c-10 -152 -53 -228 -152 -228zM380 73h84c57 0 99 38 99 98c0 58 -42 94 -99 94h-84v-192z" />
    <glyph glyph-name="uni045A" unicode="&#x45a;" horiz-adv-x="665" 
d="M479 321c97 0 173 -64 173 -156c0 -97 -76 -165 -173 -165h-167v247h-172v-247h-78v526h78v-205h172v205h78v-205h89zM475 73c56 0 97 36 97 92c0 51 -41 83 -97 83h-85v-175h85z" />
    <glyph glyph-name="uni0455" unicode="&#x455;" horiz-adv-x="410" 
d="M210 -13c-113 0 -181 73 -182 172h78c1 -58 36 -97 103 -97c57 0 91 29 91 77c0 117 -265 76 -265 255c0 88 65 145 165 145c105 0 167 -67 169 -165h-77c-1 57 -33 92 -92 92c-54 0 -86 -28 -86 -73c0 -111 265 -68 265 -255c0 -90 -66 -151 -169 -151z" />
    <glyph glyph-name="uni0454" unicode="&#x454;" horiz-adv-x="435" 
d="M323 177h79c-3 -120 -71 -188 -179 -188c-106 0 -174 69 -174 191v169c0 121 68 190 174 190c109 0 174 -68 178 -188h-80c-2 76 -37 112 -98 112c-59 0 -94 -37 -94 -114v-52h169v-62h-169v-55c0 -78 35 -114 94 -114c62 0 97 36 100 111z" />
    <glyph glyph-name="uni044D" unicode="&#x44d;" horiz-adv-x="435" 
d="M212 539c106 0 174 -69 174 -190v-169c0 -122 -68 -191 -174 -191c-108 0 -176 68 -179 188h79c3 -75 38 -111 100 -111c59 0 94 36 94 114v55h-169v62h169v52c0 77 -35 114 -94 114c-61 0 -96 -36 -98 -112h-80c4 120 69 188 178 188z" />
    <glyph glyph-name="uni0456" unicode="&#x456;" horiz-adv-x="203" 
d="M101 619c-33 0 -55 22 -55 54c0 33 22 55 55 55c32 0 55 -22 55 -55c0 -31 -23 -54 -55 -54zM62 0v526h79v-526h-79z" />
    <glyph glyph-name="uni0457" unicode="&#x457;" horiz-adv-x="217" 
d="M48 628c-26 0 -44 16 -44 43s18 44 44 44s43 -17 43 -44s-17 -43 -43 -43zM169 628c-27 0 -45 16 -45 43s18 44 45 44c26 0 44 -17 44 -44s-18 -43 -44 -43zM69 0v526h78v-526h-78z" />
    <glyph glyph-name="uni0458" unicode="&#x458;" horiz-adv-x="240" 
d="M123 618c-33 0 -55 22 -55 54c0 33 22 55 55 55c32 0 55 -22 55 -55c0 -31 -23 -54 -55 -54zM-17 -193v76c74 1 101 39 101 112v531h78v-529c0 -117 -57 -189 -179 -190z" />
    <glyph glyph-name="uni045B" unicode="&#x45b;" horiz-adv-x="464" 
d="M264 539c91 0 144 -68 144 -220v-319h-79v315c0 107 -28 149 -85 149c-64 0 -105 -52 -105 -142v-322h-79v607h-64v51h64v66h79v-66h95v-51h-95v-139c27 43 68 71 125 71z" />
    <glyph glyph-name="uni044E" unicode="&#x44e;" horiz-adv-x="623" 
d="M399 539c107 0 175 -69 175 -195v-160c0 -125 -68 -195 -175 -195c-106 0 -174 70 -174 195v48h-86v-232h-77v526h77v-220h86v38c0 126 68 195 174 195zM495 184v160c0 82 -36 118 -96 118s-96 -36 -96 -118v-160c0 -81 36 -118 96 -118s96 37 96 118z" />
    <glyph glyph-name="uni044F" unicode="&#x44f;" horiz-adv-x="410" 
d="M200 526h153v-526h-76v185h-69l-107 -185h-91l120 193c-60 18 -102 77 -102 164c0 103 69 169 172 169zM277 254v199h-75c-61 0 -96 -36 -96 -98c0 -65 31 -101 92 -101h79z" />
    <glyph glyph-name="uni0452" unicode="&#x452;" horiz-adv-x="468" 
d="M268 539c91 0 144 -68 144 -220v-347c0 -106 -59 -174 -180 -174v75c73 1 101 35 101 97v345c0 107 -28 149 -85 149c-64 0 -105 -52 -105 -142v-322h-79v612h-63v51h63v61h79v-61h95v-51h-95v-144c26 43 68 71 125 71z" />
    <glyph glyph-name="uni0432.loclBGR" horiz-adv-x="456" 
d="M304 391c66 -21 113 -75 113 -185c0 -143 -79 -217 -190 -217c-106 0 -168 68 -168 215v333c0 122 62 197 168 197c102 0 164 -71 164 -180c0 -78 -33 -134 -87 -163zM222 658c-52 0 -86 -41 -86 -121v-130l57 5c76 6 120 58 120 136c0 70 -27 110 -91 110zM226 66
c69 0 112 38 112 136c0 103 -44 142 -130 136l-72 -5v-140c0 -91 31 -127 90 -127z" />
    <glyph glyph-name="uni0433.loclBGR" horiz-adv-x="407" 
d="M202 -11c-105 0 -171 56 -171 149c0 175 257 149 257 256c0 45 -30 71 -80 71c-58 0 -89 -30 -89 -90h-77c2 96 62 164 166 164c97 0 159 -54 159 -144c0 -171 -257 -145 -257 -256c0 -48 40 -75 93 -75c62 0 95 33 98 95h78c-3 -98 -70 -170 -177 -170z" />
    <glyph glyph-name="uni0434.loclBGR" horiz-adv-x="467" 
d="M345 526h60v-557c0 -98 -67 -162 -172 -162c-102 0 -167 61 -172 158h77c4 -55 38 -85 95 -85c58 0 93 33 93 89v91c-27 -27 -64 -41 -107 -41c-101 0 -170 71 -170 190v130c0 128 69 200 168 200c50 0 91 -21 119 -60zM232 93c59 0 94 38 94 116v138
c0 79 -41 117 -94 117c-65 0 -103 -38 -103 -125v-130c0 -78 38 -116 103 -116z" />
    <glyph glyph-name="uni0436.loclBGR" horiz-adv-x="612" 
d="M523 0l-146 241l-33 -38v-203h-76v203l-33 39l-146 -242h-91l188 303l-170 223h93l114 -158l45 -67v422h76v-422l44 66l115 159h93l-169 -224l186 -302h-90z" />
    <glyph glyph-name="uni0437.loclBGR" horiz-adv-x="433" 
d="M289 190c75 -27 105 -87 105 -180c0 -126 -68 -202 -188 -202c-110 0 -174 64 -180 191h77c5 -80 41 -115 103 -115c70 0 108 48 108 130c0 87 -44 136 -121 136h-57v72h50c72 0 114 45 114 127c0 72 -35 115 -95 115c-57 0 -89 -39 -95 -113h-76c6 122 68 188 173 188
c107 0 169 -69 169 -185c0 -78 -19 -132 -87 -164z" />
    <glyph glyph-name="uni0438.loclBGR" horiz-adv-x="466" 
d="M326 526h78v-526h-59l-10 62c-27 -46 -72 -75 -134 -75c-88 0 -144 62 -144 206v333h78v-327c0 -95 26 -137 86 -137c63 0 105 52 105 142v322z" />
    <glyph glyph-name="uni0439.loclBGR" horiz-adv-x="466" 
d="M229 608c-70 0 -114 43 -117 118h60c3 -39 21 -59 56 -59c36 0 54 20 56 59h61c-3 -75 -47 -118 -116 -118zM326 526h78v-526h-59l-10 62c-27 -46 -72 -75 -134 -75c-88 0 -144 62 -144 206v333h78v-327c0 -95 26 -137 86 -137c63 0 105 52 105 142v322z" />
    <glyph glyph-name="uni045D.loclBGR" horiz-adv-x="471" 
d="M282 610h-67l-89 119h81zM332 526h78v-526h-59l-10 62c-27 -46 -72 -75 -134 -75c-88 0 -144 62 -144 206v333h78v-327c0 -95 26 -137 86 -137c63 0 105 52 105 142v322z" />
    <glyph glyph-name="uni043A.loclBGR" horiz-adv-x="433" 
d="M343 0l-158 254l-45 -50v-204h-78v724h78v-419l174 221h95l-171 -212l197 -314h-92z" />
    <glyph glyph-name="uni043B.loclBGR" horiz-adv-x="393" 
d="M304 0l-70 271c-12 50 -28 124 -35 158h-5c-7 -34 -23 -108 -35 -158l-70 -271h-83l147 526h87l147 -526h-83z" />
    <glyph glyph-name="uni043F.loclBGR" horiz-adv-x="466" 
d="M265 539c88 0 144 -62 144 -206v-333h-78v327c0 95 -26 137 -86 137c-63 0 -105 -52 -105 -142v-322h-78v526h59l10 -62c27 46 72 75 134 75z" />
    <glyph glyph-name="uni0442.loclBGR" horiz-adv-x="719" 
d="M523 539c85 0 140 -67 140 -207v-332h-78v328c0 99 -29 136 -80 136c-61 0 -103 -52 -103 -142v-322h-78v328c0 99 -31 136 -82 136c-61 0 -102 -52 -102 -142v-322h-78v526h59l10 -63c26 47 68 76 128 76c58 0 102 -29 125 -90c25 55 71 90 139 90z" />
    <glyph glyph-name="uni0446.loclBGR" horiz-adv-x="481" 
d="M386 -116v116c-22 9 -43 29 -51 68c-26 -50 -70 -80 -135 -80c-92 0 -144 61 -144 205v333h79v-326c0 -96 25 -138 84 -138c63 0 105 53 105 142v322h78v-381c0 -64 15 -78 59 -78v-183h-75z" />
    <glyph glyph-name="uni0448.loclBGR" horiz-adv-x="719" 
d="M579 526h78v-526h-59l-10 63c-26 -47 -68 -76 -128 -76c-58 0 -102 29 -125 90c-25 -55 -71 -90 -139 -90c-85 0 -140 67 -140 207v332h78v-328c0 -99 29 -136 80 -136c61 0 103 52 103 142v322h78v-328c0 -99 31 -136 82 -136c61 0 102 52 102 142v322z" />
    <glyph glyph-name="uni0449.loclBGR" horiz-adv-x="735" 
d="M655 145c0 -64 15 -78 60 -78v-183h-76v116c-21 9 -43 29 -51 69c-24 -50 -66 -81 -129 -81c-56 0 -99 29 -122 89c-24 -54 -69 -89 -140 -89c-85 0 -141 66 -141 207v331h78v-328c0 -98 29 -136 81 -136c62 0 102 53 102 142v322h78v-328c0 -98 30 -136 82 -136
c61 0 100 53 100 142v322h78v-381z" />
    <glyph glyph-name="uni044C.loclBGR" horiz-adv-x="417" 
d="M240 364c97 2 164 -70 164 -185c0 -119 -71 -192 -176 -192s-172 69 -172 176v363h78v-207c26 30 64 45 106 45zM228 63c61 0 96 39 96 116c0 74 -34 111 -95 111c-59 0 -95 -39 -95 -113c0 -76 35 -114 94 -114z" />
    <glyph glyph-name="uni044A.loclBGR" horiz-adv-x="472" 
d="M295 364c97 2 164 -70 164 -185c0 -119 -71 -192 -175 -192c-106 0 -172 69 -172 176v291h-106v72h184v-206c26 29 63 44 105 44zM284 63c60 0 95 39 95 116c0 74 -34 111 -95 111c-59 0 -94 -39 -94 -113c0 -76 34 -114 94 -114z" />
    <glyph glyph-name="uni044E.loclBGR" horiz-adv-x="624" 
d="M400 535c106 0 174 -69 174 -194v-157c0 -125 -68 -195 -174 -195c-107 0 -175 70 -175 195v48h-86v-232h-76v721h76v-415h86v35c0 125 68 194 175 194zM495 184v157c0 81 -35 117 -95 117c-61 0 -96 -36 -96 -117v-157c0 -81 35 -118 96 -118c60 0 95 37 95 118z" />
    <glyph glyph-name="zero" unicode="0" horiz-adv-x="464" 
d="M232 -10c-108 0 -178 74 -178 189v341c0 116 70 190 178 190s178 -74 178 -190v-341c0 -115 -70 -189 -178 -189zM232 65c64 0 101 42 101 114v341c0 73 -37 115 -101 115s-101 -42 -101 -115v-341c0 -72 37 -114 101 -114z" />
    <glyph glyph-name="one" unicode="1" horiz-adv-x="288" 
d="M148 700h66v-696h-78v590l-111 -84v93z" />
    <glyph glyph-name="two" unicode="2" horiz-adv-x="412" 
d="M30 0v59c0 234 265 328 265 486c0 51 -33 92 -92 92c-55 0 -89 -37 -91 -108h-77c6 112 69 182 168 182c109 0 171 -76 171 -164c0 -195 -263 -295 -263 -473h269v-74h-350z" />
    <glyph glyph-name="three" unicode="3" horiz-adv-x="414" 
d="M207 416c110 -2 163 -75 163 -178v-48c0 -131 -65 -201 -176 -201c-104 0 -176 67 -178 199h79c4 -92 43 -122 98 -122c65 0 99 38 99 125v46c0 81 -42 114 -109 114h-63v59l135 218h-215v73h314v-55z" />
    <glyph glyph-name="four" unicode="4" horiz-adv-x="420" 
d="M418 254v-74h-82v-180h-77v180h-249v43l153 477h81l-145 -446h161l4 252h72v-252h82z" />
    <glyph glyph-name="five" unicode="5" horiz-adv-x="415" 
d="M226 471c94 0 155 -69 155 -194v-71c0 -147 -62 -217 -165 -217c-101 0 -165 67 -169 183h79c3 -73 34 -106 90 -106c55 0 85 35 85 140v71c0 83 -26 119 -85 119c-46 0 -76 -26 -86 -71h-77v375h307v-72h-228v-190c24 20 55 33 94 33z" />
    <glyph glyph-name="six" unicode="6" horiz-adv-x="438" 
d="M236 460c88 0 162 -70 162 -174v-116c0 -111 -74 -181 -171 -181c-98 0 -173 70 -173 181v364c0 107 72 177 171 177c94 0 163 -68 169 -173h-79c-4 62 -42 96 -90 96c-53 0 -92 -35 -92 -99v-117c25 26 60 42 103 42zM319 170v114c0 64 -42 101 -96 101
c-51 0 -90 -37 -90 -103v-112c0 -67 41 -104 94 -104c52 0 92 37 92 104z" />
    <glyph glyph-name="seven" unicode="7" horiz-adv-x="361" 
d="M-2 701h336v-50l-191 -653h-83l184 628h-246v75z" />
    <glyph glyph-name="eight" unicode="8" horiz-adv-x="459" 
d="M329 363c53 -28 84 -87 84 -159v-20c0 -122 -70 -195 -183 -195c-114 0 -184 73 -184 195v20c0 72 31 131 84 159c-45 31 -72 87 -72 150v15c0 113 66 183 172 183s171 -70 171 -183v-15c0 -63 -27 -118 -72 -150zM137 526v-14c0 -73 34 -114 93 -114s93 41 93 114v14
c0 70 -34 108 -93 108s-93 -38 -93 -108zM334 184v20c0 76 -38 119 -104 119s-105 -43 -105 -119v-20c0 -75 39 -118 105 -118s104 43 104 118z" />
    <glyph glyph-name="nine" unicode="9" horiz-adv-x="438" 
d="M211 711c98 0 173 -70 173 -181v-364c0 -107 -72 -177 -171 -177c-94 0 -163 68 -169 173h79c4 -62 42 -96 90 -96c53 0 92 35 92 99v117c-25 -26 -60 -42 -103 -42c-88 0 -162 70 -162 174v116c0 111 74 181 171 181zM215 315c51 0 90 37 90 103v112
c0 67 -41 104 -94 104c-52 0 -92 -37 -92 -104v-114c0 -64 42 -101 96 -101z" />
    <glyph glyph-name="fraction" unicode="&#x2044;" horiz-adv-x="553" 
d="M13 0l453 700h75l-454 -700h-74z" />
    <glyph glyph-name="asterisk" unicode="*" horiz-adv-x="299" 
d="M99 488l-45 32l50 70l-80 26l16 53l82 -27v85h55v-85l81 26l17 -52l-82 -26l51 -70l-45 -33l-50 70z" />
    <glyph glyph-name="backslash" unicode="\" horiz-adv-x="487" 
d="M118 812l324 -929h-73l-325 929h74z" />
    <glyph glyph-name="periodcentered" unicode="&#xb7;" horiz-adv-x="188" 
d="M94 204c-32 0 -54 22 -54 55c0 32 22 54 54 54s54 -22 54 -54c0 -33 -22 -55 -54 -55z" />
    <glyph glyph-name="bullet" unicode="&#x2022;" horiz-adv-x="192" 
d="M96 177c-44 0 -74 30 -74 74c0 43 30 73 74 73c43 0 73 -30 73 -73c0 -44 -30 -74 -73 -74z" />
    <glyph glyph-name="colon" unicode=":" horiz-adv-x="179" 
d="M92 334c-32 0 -54 22 -54 55c0 32 22 54 54 54s54 -22 54 -54c0 -33 -22 -55 -54 -55zM92 -11c-32 0 -54 22 -54 55c0 32 22 54 54 54s54 -22 54 -54c0 -33 -22 -55 -54 -55z" />
    <glyph glyph-name="comma" unicode="," horiz-adv-x="159" 
d="M49 89h82l-52 -222h-51z" />
    <glyph glyph-name="ellipsis" unicode="&#x2026;" horiz-adv-x="523" 
d="M94 -10c-32 0 -54 22 -54 54s22 54 54 54s54 -22 54 -54s-22 -54 -54 -54zM262 -10c-33 0 -54 22 -54 54s21 54 54 54c32 0 54 -22 54 -54s-22 -54 -54 -54zM429 -10c-32 0 -54 22 -54 54s22 54 54 54s54 -22 54 -54s-22 -54 -54 -54z" />
    <glyph glyph-name="exclam" unicode="!" horiz-adv-x="235" 
d="M78 156v544h79v-544h-79zM118 -11c-33 0 -54 22 -54 55c0 32 21 54 54 54c32 0 54 -22 54 -54c0 -33 -22 -55 -54 -55z" />
    <glyph glyph-name="exclamdown" unicode="&#xa1;" horiz-adv-x="235" 
d="M118 537c32 0 54 -22 54 -54s-22 -54 -54 -54c-33 0 -54 22 -54 54s21 54 54 54zM78 370h79v-550h-79v550z" />
    <glyph glyph-name="numbersign" unicode="#" horiz-adv-x="592" 
d="M91 0l42 184h-121l15 62h120l46 198h-122l14 61h122l44 195h72l-45 -195h107l45 195h73l-45 -195h122l-14 -61h-122l-46 -198h123l-15 -62h-121l-42 -184h-73l42 184h-107l-42 -184h-72zM219 246h107l45 198h-107z" />
    <glyph glyph-name="period" unicode="." horiz-adv-x="188" 
d="M94 -11c-32 0 -54 22 -54 55c0 32 22 54 54 54s54 -22 54 -54c0 -33 -22 -55 -54 -55z" />
    <glyph glyph-name="question" unicode="?" horiz-adv-x="384" 
d="M135 156v54c0 173 143 189 143 327c0 59 -36 101 -94 101c-55 0 -94 -40 -95 -112h-78c6 114 73 185 173 185s172 -71 172 -174c0 -168 -142 -182 -142 -332v-49h-79zM176 -11c-32 0 -54 22 -54 55c0 32 22 54 54 54s54 -22 54 -54c0 -33 -22 -55 -54 -55z" />
    <glyph glyph-name="questiondown" unicode="&#xbf;" horiz-adv-x="384" 
d="M205 537c32 0 54 -22 54 -54s-22 -54 -54 -54s-54 22 -54 54s22 54 54 54zM246 370v-53c0 -173 -142 -189 -142 -328c0 -59 36 -101 93 -101c56 0 94 40 95 113h78c-5 -115 -73 -186 -173 -186s-172 71 -172 174c0 169 143 183 143 332v49h78z" />
    <glyph glyph-name="quotedbl" unicode="&#x22;" horiz-adv-x="254" 
d="M39 700h82l-52 -222h-51zM154 700h82l-52 -222h-51z" />
    <glyph glyph-name="quotesingle" unicode="'" horiz-adv-x="139" 
d="M39 700h82l-52 -222h-51z" />
    <glyph glyph-name="semicolon" unicode=";" horiz-adv-x="169" 
d="M87 335c-33 0 -54 22 -54 54s21 54 54 54c32 0 54 -22 54 -54s-22 -54 -54 -54zM49 89h82l-52 -222h-51z" />
    <glyph glyph-name="slash" unicode="/" horiz-adv-x="415" 
d="M333 812h74l-325 -929h-73z" />
    <glyph glyph-name="underscore" unicode="_" horiz-adv-x="397" 
d="M21 -9h355v-75h-355v75z" />
    <glyph glyph-name="braceleft" unicode="{" horiz-adv-x="338" 
d="M203 488c0 -59 -25 -106 -67 -135c42 -29 67 -76 67 -134v-170c0 -57 36 -95 86 -95v-74c-95 0 -163 69 -163 173v170c0 55 -34 84 -77 91v78c43 7 77 36 77 91v164c0 104 68 173 163 173v-74c-50 0 -86 -38 -86 -94v-164z" />
    <glyph glyph-name="braceright" unicode="}" horiz-adv-x="338" 
d="M212 478c0 -55 34 -84 77 -91v-78c-43 -7 -77 -36 -77 -91v-164c0 -104 -68 -173 -163 -173v74c50 0 86 38 86 94v164c0 59 25 106 67 135c-42 29 -67 76 -67 134v170c0 57 -36 95 -86 95v74c95 0 163 -69 163 -173v-170z" />
    <glyph glyph-name="bracketleft" unicode="[" horiz-adv-x="287" 
d="M238 747h-86v-794h86v-73h-165v940h165v-73z" />
    <glyph glyph-name="bracketright" unicode="]" horiz-adv-x="287" 
d="M49 -47h86v794h-86v73h165v-940h-165v73z" />
    <glyph glyph-name="parenleft" unicode="(" horiz-adv-x="284" 
d="M235 -121c-99 4 -162 72 -162 176v590c0 103 63 171 162 175v-74c-51 -3 -83 -40 -83 -98v-596c0 -59 32 -95 83 -99v-74z" />
    <glyph glyph-name="parenright" unicode=")" horiz-adv-x="284" 
d="M49 -121v74c51 4 83 40 83 99v596c0 58 -32 95 -83 98v74c99 -4 162 -72 162 -175v-590c0 -104 -63 -172 -162 -176z" />
    <glyph glyph-name="emdash" unicode="&#x2014;" horiz-adv-x="552" 
d="M42 293h468v-71h-468v71z" />
    <glyph glyph-name="endash" unicode="&#x2013;" horiz-adv-x="427" 
d="M42 222v71h343v-71h-343z" />
    <glyph glyph-name="hyphen" unicode="-" horiz-adv-x="327" 
d="M42 222v71h243v-71h-243z" />
    <glyph glyph-name="emdash.case" horiz-adv-x="552" 
d="M42 393h468v-71h-468v71z" />
    <glyph glyph-name="endash.case" horiz-adv-x="427" 
d="M42 322v71h343v-71h-343z" />
    <glyph glyph-name="hyphen.case" horiz-adv-x="327" 
d="M42 322v71h243v-71h-243z" />
    <glyph glyph-name="guillemotleft" unicode="&#xab;" horiz-adv-x="452" 
d="M161 88l-119 152v34l119 152h79l-131 -169l131 -169h-79zM331 88l-119 152v34l119 152h79l-131 -169l131 -169h-79z" />
    <glyph glyph-name="guillemotright" unicode="&#xbb;" horiz-adv-x="452" 
d="M121 88h-79l131 169l-131 169h79l119 -152v-34zM291 88h-79l131 169l-131 169h79l119 -152v-34z" />
    <glyph glyph-name="guilsinglleft" unicode="&#x2039;" horiz-adv-x="282" 
d="M161 88l-119 152v34l119 152h79l-131 -169l131 -169h-79z" />
    <glyph glyph-name="guilsinglright" unicode="&#x203a;" horiz-adv-x="282" 
d="M121 88h-79l131 169l-131 169h79l119 -152v-34z" />
    <glyph glyph-name="quotedblbase" unicode="&#x201e;" horiz-adv-x="159" 
d="M49 89h82l-52 -222h-51z" />
    <glyph glyph-name="quotedblleft" unicode="&#x201c;" horiz-adv-x="254" 
d="M101 478h-82l51 222h51zM216 478h-82l51 222h51z" />
    <glyph glyph-name="quotedblright" unicode="&#x201d;" horiz-adv-x="254" 
d="M39 700h82l-52 -222h-51zM154 700h82l-52 -222h-51z" />
    <glyph glyph-name="quoteleft" unicode="&#x2018;" horiz-adv-x="139" 
d="M101 478h-82l51 222h51z" />
    <glyph glyph-name="quoteright" unicode="&#x2019;" horiz-adv-x="139" 
d="M39 705h82l-52 -221h-51z" />
    <glyph glyph-name="quotesinglbase" unicode="&#x201a;" horiz-adv-x="159" 
d="M49 89h82l-52 -222h-51z" />
    <glyph glyph-name="guillemotleft.case" horiz-adv-x="452" 
d="M161 148l-119 152v34l119 152h79l-131 -169l131 -169h-79zM331 148l-119 152v34l119 152h79l-131 -169l131 -169h-79z" />
    <glyph glyph-name="guillemotright.case" horiz-adv-x="452" 
d="M121 148h-79l131 169l-131 169h79l119 -152v-34zM291 148h-79l131 169l-131 169h79l119 -152v-34z" />
    <glyph glyph-name="guilsinglleft.case" horiz-adv-x="282" 
d="M161 148l-119 152v34l119 152h79l-131 -169l131 -169h-79z" />
    <glyph glyph-name="guilsinglright.case" horiz-adv-x="282" 
d="M121 148h-79l131 169l-131 169h79l119 -152v-34z" />
    <glyph glyph-name="space" unicode=" " horiz-adv-x="222" 
 />
    <glyph glyph-name="cent" unicode="&#xa2;" horiz-adv-x="430" 
d="M398 180c-1 -110 -57 -177 -146 -189v-65h-66v66c-85 14 -137 80 -137 188v165c0 107 52 173 137 187v66h66v-65c90 -12 144 -79 145 -188h-79c-1 77 -37 114 -96 114c-58 0 -93 -37 -93 -114v-165c0 -78 35 -114 93 -114c60 0 96 36 97 114h79z" />
    <glyph glyph-name="currency" unicode="&#xa4;" horiz-adv-x="471" 
d="M86 97l-48 38l52 65c-13 24 -21 59 -21 93v65c0 33 8 69 21 93l-52 64l48 39l44 -55c26 21 66 34 106 34c38 0 79 -13 105 -34l44 55l48 -39l-52 -64c13 -23 21 -59 21 -93v-65c0 -35 -8 -70 -21 -94l52 -64l-48 -38l-44 55c-26 -21 -67 -35 -105 -35
c-39 0 -80 14 -105 35zM236 188c57 0 91 38 91 105v65c0 67 -34 105 -91 105c-58 0 -92 -38 -92 -105v-65c0 -67 34 -105 92 -105z" />
    <glyph glyph-name="dollar" unicode="$" horiz-adv-x="458" 
d="M425 178c0 -93 -60 -178 -170 -190v-73h-63v75c-99 14 -161 87 -163 196h83c2 -79 47 -120 116 -120c76 0 113 47 113 113c0 150 -301 154 -301 360c0 88 59 158 152 171v75h63v-74c98 -11 157 -85 161 -190h-83c-3 77 -44 113 -105 113c-66 0 -105 -38 -105 -96
c0 -149 302 -146 302 -360z" />
    <glyph glyph-name="Euro" unicode="&#x20ac;" horiz-adv-x="549" 
d="M438 196h80c-8 -133 -82 -208 -203 -208c-118 0 -198 76 -198 214v65h-81v54h81v60h-81v54h81v63c0 138 78 215 195 215c120 0 195 -74 201 -209h-80c-7 90 -49 132 -121 132c-67 0 -113 -44 -113 -138v-63h158v-54h-158v-60h158v-54h-158v-65c0 -93 47 -137 116 -137
c73 0 114 43 123 131z" />
    <glyph glyph-name="sterling" unicode="&#xa3;" horiz-adv-x="475" 
d="M147 77h294v-77h-411v69c47 14 65 48 65 104v142h-66v71h66v132c0 117 68 193 168 193c101 0 169 -74 174 -198h-79c-5 80 -40 121 -95 121c-54 0 -88 -41 -88 -115v-133h178v-71h-178v-138c0 -42 -11 -77 -28 -100z" />
    <glyph glyph-name="yen" unicode="&#xa5;" horiz-adv-x="435" 
d="M431 700l-152 -405h135v-56h-156v-61h156v-56h-156v-122h-82v122h-155v56h155v61h-155v56h134l-151 405h86l89 -251c12 -33 26 -73 38 -109h1c12 36 26 77 38 111l89 249h86z" />
    <glyph glyph-name="plus" unicode="+" horiz-adv-x="452" 
d="M407 346v-73h-144v-148h-74v148h-144v73h144v148h74v-148h144z" />
    <glyph glyph-name="minus" unicode="&#x2212;" horiz-adv-x="452" 
d="M45 273v73h362v-73h-362z" />
    <glyph glyph-name="multiply" unicode="&#xd7;" horiz-adv-x="456" 
d="M93 113l-52 52l136 135l-136 135l51 53l137 -136l136 136l51 -53l-135 -135l135 -135l-51 -52l-136 136z" />
    <glyph glyph-name="divide" unicode="&#xf7;" horiz-adv-x="452" 
d="M226 402c-30 0 -52 23 -52 52c0 31 22 53 52 53s53 -22 53 -53c0 -29 -23 -52 -53 -52zM45 272v71h362v-71h-362zM226 101c-30 0 -52 22 -52 52s22 52 52 52s53 -22 53 -52s-23 -52 -53 -52z" />
    <glyph glyph-name="equal" unicode="=" horiz-adv-x="452" 
d="M45 350v73h362v-73h-362zM45 185v73h362v-73h-362z" />
    <glyph glyph-name="notequal" unicode="&#x2260;" horiz-adv-x="465" 
d="M414 381h-125l-42 -86h167v-73h-203l-37 -74h-71l37 74h-89v73h125l42 86h-167v73h203l37 74h71l-37 -74h89v-73z" />
    <glyph glyph-name="greater" unicode="&#x3e;" horiz-adv-x="422" 
d="M45 485l332 -138v-82l-332 -138v75l252 104l-252 103v76z" />
    <glyph glyph-name="less" unicode="&#x3c;" horiz-adv-x="422" 
d="M377 485v-76l-252 -103l252 -104v-75l-332 138v82z" />
    <glyph glyph-name="greaterequal" unicode="&#x2265;" horiz-adv-x="422" 
d="M45 532l332 -138v-82l-332 -138v76l252 103l-252 104v75zM45 68v70h332v-70h-332z" />
    <glyph glyph-name="lessequal" unicode="&#x2264;" horiz-adv-x="422" 
d="M377 532v-75l-252 -104l252 -103v-76l-332 138v82zM45 68v70h332v-70h-332z" />
    <glyph glyph-name="plusminus" unicode="&#xb1;" horiz-adv-x="465" 
d="M269 391h145v-72h-145v-144h-73v144h-145v72h145v144h73v-144zM51 61v70h363v-70h-363z" />
    <glyph glyph-name="approxequal" unicode="&#x2248;" horiz-adv-x="465" 
d="M380 426l40 -55c-28 -38 -60 -53 -96 -53c-64 0 -126 45 -176 45c-28 0 -49 -17 -62 -35l-40 57c29 37 60 51 96 51c63 0 126 -45 176 -45c27 0 48 17 62 35zM380 266l40 -55c-28 -38 -60 -53 -96 -53c-64 0 -126 45 -176 45c-28 0 -49 -17 -62 -35l-40 57
c29 37 60 51 96 51c63 0 126 -45 176 -45c27 0 48 17 62 35z" />
    <glyph glyph-name="asciitilde" unicode="~" horiz-adv-x="465" 
d="M379 353l42 -52c-29 -42 -61 -58 -98 -58c-63 0 -127 48 -175 48c-28 0 -49 -17 -63 -38l-41 55c29 40 61 56 97 56c62 0 127 -48 175 -48c28 0 49 16 63 37z" />
    <glyph glyph-name="logicalnot" unicode="&#xac;" horiz-adv-x="465" 
d="M420 345v-150h-71v77h-298v73h369z" />
    <glyph glyph-name="emptyset" unicode="&#x2205;" horiz-adv-x="810" 
d="M760 731l-100 -121c61 -63 95 -153 95 -260c0 -216 -141 -360 -353 -360c-79 0 -149 20 -204 57l-64 -78h-82l97 117c-64 64 -100 155 -100 264c0 217 141 360 353 360c82 0 153 -21 210 -60l66 81h82zM115 350c0 -87 27 -160 76 -212l379 461c-46 31 -103 48 -168 48
c-173 0 -287 -119 -287 -297zM690 350c0 85 -26 156 -72 208l-379 -461c45 -28 100 -44 163 -44c173 0 288 119 288 297z" />
    <glyph glyph-name="infinity" unicode="&#x221e;" horiz-adv-x="630" 
d="M440 405c77 0 140 -60 140 -154c0 -92 -62 -151 -139 -151c-63 0 -100 35 -126 80c-26 -45 -63 -80 -126 -80c-77 0 -140 59 -140 151c0 94 64 154 141 154c61 0 99 -32 125 -73c26 41 64 73 125 73zM192 170c44 0 63 39 83 85c-19 45 -40 80 -83 80
c-40 0 -69 -27 -69 -83c0 -51 29 -82 69 -82zM437 170c41 0 70 31 70 82c0 56 -29 83 -70 83c-42 0 -63 -35 -82 -80c20 -46 39 -85 82 -85z" />
    <glyph glyph-name="integral" unicode="&#x222b;" horiz-adv-x="310" 
d="M20 -190v76c68 1 96 35 96 93v558c0 105 58 173 175 173v-75c-69 -1 -96 -35 -96 -93v-558c0 -106 -59 -173 -175 -174z" />
    <glyph glyph-name="product" unicode="&#x220f;" horiz-adv-x="507" 
d="M73 -99v799h361v-800h-80v723h-201v-722h-80z" />
    <glyph glyph-name="summation" unicode="&#x2211;" horiz-adv-x="369" 
d="M38 -1v69l154 282l-154 282v69h294v-73h-209l140 -255v-46l-140 -255h209v-73h-294z" />
    <glyph glyph-name="radical" unicode="&#x221a;" horiz-adv-x="471" 
d="M458 794l-152 -794h-121l-84 429h-86v71h150l81 -422l133 716h79z" />
    <glyph glyph-name="partialdiff" unicode="&#x2202;" horiz-adv-x="452" 
d="M168 734c128 -34 234 -139 235 -311v-239c0 -125 -69 -195 -178 -195c-107 0 -176 70 -176 195v133c0 125 68 194 165 194c45 0 80 -14 107 -40c-14 104 -86 167 -179 196zM323 184v133c0 81 -38 118 -97 118c-62 0 -97 -37 -97 -118v-133c0 -81 36 -118 96 -118
c62 0 98 37 98 118z" />
    <glyph glyph-name="percent" unicode="%" horiz-adv-x="575" 
d="M112 391c-58 0 -100 38 -100 109v100c0 71 42 110 100 110c57 0 99 -39 99 -110v-100c0 -71 -42 -109 -99 -109zM23 0l463 700h66l-463 -700h-66zM112 444c25 0 42 15 42 55v102c0 41 -17 56 -42 56c-26 0 -43 -15 -43 -56v-102c0 -40 17 -55 43 -55zM460 -9
c-58 0 -100 38 -100 109v100c0 71 42 110 100 110c57 0 99 -39 99 -110v-100c0 -71 -42 -109 -99 -109zM460 44c25 0 42 15 42 55v102c0 41 -17 56 -42 56c-26 0 -43 -15 -43 -56v-102c0 -40 17 -55 43 -55z" />
    <glyph glyph-name="perthousand" unicode="&#x2030;" horiz-adv-x="845" 
d="M117 391c-58 0 -100 38 -100 109v100c0 71 42 110 100 110c57 0 99 -39 99 -110v-100c0 -71 -42 -109 -99 -109zM11 0l485 700h66l-485 -700h-66zM117 444c25 0 42 15 42 55v102c0 41 -17 56 -42 56c-26 0 -43 -15 -43 -56v-102c0 -40 17 -55 43 -55zM455 -9
c-58 0 -100 38 -100 109v100c0 71 42 110 100 110c57 0 99 -39 99 -110v-100c0 -71 -42 -109 -99 -109zM708 -9c-58 0 -100 38 -100 109v100c0 71 42 110 100 110c56 0 98 -39 98 -110v-100c0 -71 -42 -109 -98 -109zM455 44c25 0 42 15 42 55v102c0 41 -17 56 -42 56
c-26 0 -43 -15 -43 -56v-102c0 -40 17 -55 43 -55zM708 44c25 0 42 15 42 55v102c0 41 -17 56 -42 56c-26 0 -43 -15 -43 -56v-102c0 -40 17 -55 43 -55z" />
    <glyph glyph-name="lozenge" unicode="&#x25ca;" horiz-adv-x="461" 
d="M188 -1l-139 332v38l139 331h85l138 -331v-38l-138 -332h-85zM230 75l111 275l-111 276l-110 -276z" />
    <glyph glyph-name="at" unicode="@" horiz-adv-x="779" 
d="M398 731c209 0 332 -114 332 -330v-108c0 -124 -70 -180 -148 -180c-52 -1 -85 23 -102 55c-18 -36 -52 -62 -104 -62c-74 0 -128 51 -128 150v111c0 100 53 149 125 149c43 0 74 -17 93 -49l7 38h53v-265c0 -38 13 -62 56 -63c52 0 81 39 81 116v108
c0 177 -96 265 -265 265c-179 0 -281 -102 -281 -279v-126c0 -191 105 -300 280 -300c93 0 158 21 205 54l33 -55c-48 -35 -119 -64 -235 -64c-218 0 -351 134 -351 365v126c0 217 131 344 349 344zM386 172c43 0 74 27 74 86v108c0 44 -24 85 -76 85c-40 0 -67 -24 -67 -83
v-111c0 -59 26 -85 69 -85z" />
    <glyph glyph-name="ampersand" unicode="&#x26;" horiz-adv-x="580" 
d="M548 0h-89c-16 25 -33 49 -50 73c-43 -50 -99 -86 -169 -86c-91 0 -167 61 -167 172c0 96 58 162 119 219c-45 72 -75 136 -75 190c0 76 48 145 146 145c104 0 147 -76 145 -152c-2 -82 -58 -141 -117 -196c33 -48 72 -101 113 -158c13 28 23 55 30 77h83
c-14 -45 -34 -98 -63 -147c31 -44 63 -90 94 -137zM194 566c0 -34 21 -80 55 -136c46 42 83 83 83 132c0 41 -25 78 -69 78c-43 0 -69 -31 -69 -74zM246 63c45 0 85 32 116 75c-45 62 -88 120 -126 175c-45 -44 -80 -90 -80 -147c0 -62 39 -103 90 -103z" />
    <glyph glyph-name="paragraph" unicode="&#xb6;" horiz-adv-x="585" 
d="M512 701v-794h-81v719h-140v-719h-81v479c-95 0 -161 60 -161 158c0 97 66 157 161 157h302z" />
    <glyph glyph-name="section" unicode="&#xa7;" horiz-adv-x="417" 
d="M309 213c37 -26 63 -62 63 -116c0 -90 -64 -150 -164 -150c-109 0 -175 72 -176 171h79c0 -58 33 -96 96 -96c55 0 86 28 86 76c0 114 -264 83 -264 258c0 60 30 105 83 127c-39 26 -65 61 -65 115c0 85 63 140 157 140c102 0 159 -66 161 -161h-77c0 55 -29 88 -83 88
c-51 0 -80 -28 -80 -67c0 -105 259 -82 259 -260c0 -57 -27 -100 -75 -125zM229 260c49 5 76 35 76 71c0 54 -49 80 -107 104c-47 1 -90 -26 -90 -76c0 -45 42 -72 121 -99z" />
    <glyph glyph-name="copyright" unicode="&#xa9;" horiz-adv-x="707" 
d="M354 -11c-188 0 -300 119 -300 322v86c0 200 112 316 300 316s299 -116 299 -316v-86c0 -203 -111 -322 -299 -322zM354 45c155 0 240 96 240 266v86c0 167 -85 260 -240 260c-156 0 -241 -93 -241 -260v-86c0 -170 85 -266 241 -266zM352 147c-78 0 -129 52 -129 141
v126c0 89 51 140 129 140c79 0 130 -51 130 -140h-61c-1 54 -27 80 -68 80c-42 0 -68 -26 -68 -80v-126c0 -54 26 -80 68 -80s69 26 70 80h62c0 -89 -53 -141 -133 -141z" />
    <glyph glyph-name="registered" unicode="&#xae;" horiz-adv-x="462" 
d="M234 713c111 0 177 -68 177 -185v-56c0 -121 -66 -191 -177 -191s-177 70 -177 191v56c0 117 66 185 177 185zM378 472v56c0 98 -52 153 -144 153c-91 0 -144 -55 -144 -153v-56c0 -102 53 -159 144 -159c92 0 144 57 144 159zM314 545c0 -40 -18 -67 -49 -76l56 -98h-39
l-52 94h-24v-94h-35v251h66c49 0 77 -29 77 -77zM206 587v-87h31c27 0 42 15 42 45c0 28 -15 42 -42 42h-31z" />
    <glyph glyph-name="trademark" unicode="&#x2122;" horiz-adv-x="471" 
d="M28 658v42h157v-42h-56v-228h-45v228h-56zM389 700h48v-270h-44v66c0 42 3 101 4 128l-2 1c-7 -16 -16 -40 -24 -62l-24 -63h-42l-24 63c-8 22 -17 46 -24 62l-2 -1c1 -27 3 -86 3 -128v-66h-43v270h48l32 -76c7 -16 26 -67 31 -82c5 15 24 66 30 82z" />
    <glyph glyph-name="degree" unicode="&#xb0;" horiz-adv-x="315" 
d="M30 582c0 78 51 130 127 130c77 0 128 -52 128 -130s-51 -130 -128 -130c-76 0 -127 52 -127 130zM87 582c0 -45 28 -75 70 -75c43 0 71 30 71 75s-28 75 -71 75c-42 0 -70 -30 -70 -75z" />
    <glyph glyph-name="bar" unicode="|" horiz-adv-x="203" 
d="M63 798h77v-887h-77v887z" />
    <glyph glyph-name="brokenbar" unicode="&#xa6;" horiz-adv-x="183" 
d="M53 501v297h77v-297h-77zM53 -74v297h77v-297h-77z" />
    <glyph glyph-name="dagger" unicode="&#x2020;" horiz-adv-x="370" 
d="M344 520v-72h-121v-541h-76v541h-121v72h121v195h76v-195h121z" />
    <glyph glyph-name="daggerdbl" unicode="&#x2021;" horiz-adv-x="372" 
d="M344 448h-120v-262h120v-72h-120v-207h-77v207h-120v72h120v262h-120v72h120v195h77v-195h120v-72z" />
    <glyph glyph-name="asciicircum" unicode="^" horiz-adv-x="322" 
d="M310 477h-76l-72 156l-74 -156h-75l109 223h78z" />
    <glyph glyph-name="uni0308" unicode="&#x308;" 
d="M-175 623c-27 0 -45 17 -45 45c0 27 18 44 45 44s45 -17 45 -44c0 -28 -18 -45 -45 -45zM-46 623c-27 0 -46 17 -46 45c0 27 19 44 46 44c28 0 46 -17 46 -44c0 -28 -18 -45 -46 -45z" />
    <glyph glyph-name="uni0307" unicode="&#x307;" 
d="M-95 619c-33 0 -55 22 -55 54c0 33 22 55 55 55c32 0 55 -22 55 -55c0 -31 -23 -54 -55 -54z" />
    <glyph glyph-name="gravecomb" unicode="&#x300;" 
d="M-156 729h81l75 -119h-67z" />
    <glyph glyph-name="acutecomb" unicode="&#x301;" 
d="M0 729l-89 -119h-67l75 119h81z" />
    <glyph glyph-name="uni030B" unicode="&#x30b;" 
d="M-115 729l-85 -119h-61l70 119h76zM0 729l-89 -119h-61l75 119h75z" />
    <glyph glyph-name="uni0302" unicode="&#x302;" 
d="M0 609h-64l-53 70l-54 -70h-65l82 119h73z" />
    <glyph glyph-name="uni030C" unicode="&#x30c;" 
d="M-62 729h64l-81 -119h-73l-82 119h65l54 -70z" />
    <glyph glyph-name="uni0306" unicode="&#x306;" 
d="M-118 608c-70 0 -114 43 -117 118h60c3 -39 21 -59 56 -59c36 0 54 20 56 59h61c-3 -75 -47 -118 -116 -118z" />
    <glyph glyph-name="uni030A" unicode="&#x30a;" 
d="M-163 680c0 43 31 73 76 73s75 -30 75 -73c0 -44 -30 -74 -75 -74s-76 30 -76 74zM-119 679c0 -19 13 -31 32 -31c18 0 31 12 31 31s-13 32 -31 32c-19 0 -32 -13 -32 -32z" />
    <glyph glyph-name="tildecomb" unicode="&#x303;" 
d="M-152 655c-11 0 -19 -9 -21 -28h-60c3 54 32 85 74 85c41 0 56 -31 78 -31c13 0 22 10 24 28h57c-5 -52 -32 -85 -74 -85c-40 0 -55 31 -78 31z" />
    <glyph glyph-name="uni0304" unicode="&#x304;" 
d="M-193 697h193v-60h-193v60z" />
    <glyph glyph-name="uni0312" unicode="&#x312;" 
d="M-47 792l47 -187h-82l-18 187h53z" />
    <glyph glyph-name="uni0326" unicode="&#x326;" 
d="M-97 -257l18 187h77l-40 -187h-55z" />
    <glyph glyph-name="uni0327" unicode="&#x327;" 
d="M-109 -201c-50 0 -89 29 -94 78h55c5 -18 20 -28 40 -28c24 0 40 13 40 35c0 21 -13 33 -37 33c-12 0 -24 -3 -32 -8l-18 17l22 74h50l-14 -49h13c38 0 71 -27 71 -69c0 -51 -40 -83 -96 -83z" />
    <glyph glyph-name="uni0328" unicode="&#x328;" 
d="M-2 -185c-15 -6 -34 -8 -52 -8c-62 0 -89 39 -89 82s23 80 60 111h70c-33 -26 -56 -66 -56 -93c0 -25 17 -33 36 -33c12 0 22 0 31 3v-62z" />
    <glyph glyph-name="uni0335" unicode="&#x335;" 
d="M-210 372v51h200v-51h-200z" />
    <glyph glyph-name="uni0336" unicode="&#x336;" 
d="M-330 423h320v-51h-320v51z" />
    <glyph glyph-name="uni0337" unicode="&#x337;" 
d="M-255 -44l161 595h81l-161 -595h-81z" />
    <glyph glyph-name="uni0338" unicode="&#x338;" 
d="M-341 -38l214 776h80l-213 -776h-81z" />
    <glyph glyph-name="uni0308.case" 
d="M-179 785c-27 0 -46 17 -46 44c0 28 19 45 46 45c26 0 44 -17 44 -45c0 -27 -18 -44 -44 -44zM-41 785c-27 0 -46 17 -46 44c0 28 19 45 46 45s45 -17 45 -45c0 -27 -18 -44 -45 -44z" />
    <glyph glyph-name="uni0307.case" 
d="M-51 786c-33 0 -55 23 -55 55s22 55 55 55c32 0 55 -23 55 -55s-23 -55 -55 -55z" />
    <glyph glyph-name="gravecomb.case" 
d="M-7 769h-68l-107 119h83z" />
    <glyph glyph-name="acutecomb.case" 
d="M-175 769l92 119h83l-107 -119h-68z" />
    <glyph glyph-name="uni030B.case" 
d="M-101 888l-85 -119h-61l70 119h76zM14 888l-89 -119h-61l75 119h75z" />
    <glyph glyph-name="uni0302.case" 
d="M-7 769h-64l-53 70l-54 -70h-65l82 119h73z" />
    <glyph glyph-name="uni030C.case" 
d="M-74 887h64l-81 -119h-73l-82 119h65l54 -70z" />
    <glyph glyph-name="uni0306.case" 
d="M-116 767c-70 0 -114 43 -117 118h60c3 -39 21 -59 56 -59c36 0 54 20 56 59h61c-3 -75 -47 -118 -116 -118z" />
    <glyph glyph-name="uni030A.case" 
d="M-148 838c0 43 31 73 76 73s75 -30 75 -73c0 -44 -30 -74 -75 -74s-76 30 -76 74zM-104 837c0 -19 13 -31 32 -31c18 0 31 12 31 31s-13 32 -31 32c-19 0 -32 -13 -32 -32z" />
    <glyph glyph-name="tildecomb.case" 
d="M-145 823c-11 0 -19 -9 -21 -28h-60c3 54 32 85 74 85c41 0 56 -31 78 -31c13 0 22 10 24 28h57c-5 -52 -32 -85 -74 -85c-40 0 -55 31 -78 31z" />
    <glyph glyph-name="uni0304.case" 
d="M-191 856h193v-61h-193v61z" />
    <glyph glyph-name="uni0312.case" 
d="M-67 959l46 -186h-82l-18 186h54z" />
    <glyph glyph-name="uni0326.case" 
d="M-105 -257l18 187h77l-40 -187h-55z" />
    <glyph glyph-name="uni0327.case" 
d="M-104 -201c-50 0 -89 29 -94 78h55c5 -18 20 -28 40 -28c24 0 40 13 40 35c0 21 -13 33 -37 33c-12 0 -24 -3 -32 -8l-18 17l22 74h50l-14 -49h13c38 0 71 -27 71 -69c0 -51 -40 -83 -96 -83z" />
    <glyph glyph-name="uni0328.case" 
d="M1 -185c-15 -6 -34 -8 -52 -8c-62 0 -89 39 -89 82s23 80 60 111h70c-33 -26 -56 -66 -56 -93c0 -25 17 -33 36 -33c12 0 22 0 31 3v-62z" />
    <glyph glyph-name="uni0337.case" 
d="M-243 -44l161 595h81l-161 -595h-81z" />
    <glyph glyph-name="uni0338.case" 
d="M-430 -38l214 776h80l-213 -776h-81z" />
    <glyph glyph-name="brevecombcy" 
d="M-116 608c-70 0 -114 43 -117 118h60c3 -39 21 -59 56 -59c36 0 54 20 56 59h61c-3 -75 -47 -118 -116 -118z" />
    <glyph glyph-name="brevecombcy.case" 
d="M-116 767c-70 0 -114 43 -117 118h60c3 -39 21 -59 56 -59c36 0 54 20 56 59h61c-3 -75 -47 -118 -116 -118z" />
    </font>
</defs>
</svg>
