<svg width="40" height="40" viewBox="0 0 40 40" fill="none" xmlns="http://www.w3.org/2000/svg">
<path d="M39.0074 6.58302C38.8138 5.71262 38.8018 5.59982 36.8474 5.59982H34.8826L34.4898 4.52062C33.9714 2.95502 32.229 1.46302 30.493 1.02782C29.4882 0.776616 25.909 0.732616 17.1738 0.793416C6.19222 0.870216 5.13382 0.932616 4.04742 1.42142C1.61542 2.51422 0.275419 5.26942 0.993819 7.69582C1.49542 9.38702 2.54982 10.639 4.04742 11.3118C5.13302 11.7998 6.19142 11.851 17.173 11.927C25.9074 11.9886 29.4874 11.919 30.4914 11.667C32.233 11.231 33.9706 9.68542 34.4938 8.10542C34.8882 6.91742 34.9058 6.90542 36.1938 6.99022L37.4938 7.07582L37.5802 11.1766L37.6658 15.2766L33.8554 16.1766C31.7626 16.6718 29.141 17.3046 28.0314 17.5838C26.0431 18.0763 24.0527 18.5603 22.0602 19.0358L18.105 19.9822L18.1042 22.059C18.1034 24.123 18.2842 24.1422 17.0514 25.1726L16.0002 26.2086V39.1998H21.6002V26.2086L20.4554 25.159C19.2346 24.1382 19.257 24.0638 19.3498 22.4934L19.4706 20.879L20.8818 20.5278C21.6506 20.3334 24.0994 19.7382 26.3178 19.2014C28.5362 18.6662 32.345 17.747 34.7778 17.1582L39.2002 16.0894V11.827C39.2002 9.48462 39.113 7.06622 39.0074 6.58302ZM19.8202 35.7086C19.8202 36.3822 19.693 36.5214 19.0082 36.5926C18.1458 36.6806 17.773 36.2534 17.957 35.3894C18.029 35.0526 18.3258 34.907 18.9402 34.907C19.721 34.9078 19.8202 34.999 19.8202 35.7086Z" fill="black"/>
</svg>
