<svg width="53" height="53" viewBox="0 0 53 53" fill="none" xmlns="http://www.w3.org/2000/svg">
<path d="M46.25 25.5H42.5V15.5C42.5 12.75 40.25 10.5 37.5 10.5H27.5V6.75C27.5 5.0924 26.8415 3.50269 25.6694 2.33058C24.4973 1.15848 22.9076 0.5 21.25 0.5C19.5924 0.5 18.0027 1.15848 16.8306 2.33058C15.6585 3.50269 15 5.0924 15 6.75V10.5H5C2.25 10.5 0.025 12.75 0.025 15.5V25H3.75C7.475 25 10.5 28.025 10.5 31.75C10.5 35.475 7.475 38.5 3.75 38.5H0V48C0 50.75 2.25 53 5 53H14.5V49.25C14.5 45.525 17.525 42.5 21.25 42.5C24.975 42.5 28 45.525 28 49.25V53H37.5C40.25 53 42.5 50.75 42.5 48V38H46.25C47.9076 38 49.4973 37.3415 50.6694 36.1694C51.8415 34.9973 52.5 33.4076 52.5 31.75C52.5 30.0924 51.8415 28.5027 50.6694 27.3306C49.4973 26.1585 47.9076 25.5 46.25 25.5Z" fill="#F4A251"/>
</svg>
