<svg width="45" height="45" viewBox="0 0 45 45" fill="none" xmlns="http://www.w3.org/2000/svg">
<path d="M34.5808 44.9996C25.4131 44.9877 16.6242 41.3333 10.1416 34.8378C3.65903 28.3424 0.011883 19.5361 0 10.3501C0 7.60515 1.08827 4.97263 3.02539 3.03166C4.96252 1.09068 7.58983 0.00025716 10.3293 0.00025716C10.9094 -0.00417033 11.4886 0.0485827 12.0584 0.157755C12.6092 0.23943 13.1507 0.375078 13.6751 0.562749C14.044 0.692413 14.3726 0.916294 14.6286 1.21225C14.8846 1.50821 15.0591 1.86599 15.1347 2.25022L18.2111 15.75C18.294 16.1165 18.284 16.4979 18.182 16.8594C18.08 17.221 17.8893 17.5513 17.6272 17.82C17.3353 18.135 17.3129 18.1575 14.5509 19.5975C16.7627 24.4593 20.6434 28.3637 25.4865 30.5998C26.9461 27.8098 26.9686 27.7873 27.2829 27.4949C27.5511 27.2323 27.8807 27.0412 28.2416 26.939C28.6024 26.8368 28.9831 26.8268 29.3488 26.9099L42.8218 29.9923C43.193 30.0786 43.5362 30.2581 43.819 30.514C44.1019 30.7698 44.3151 31.0936 44.4386 31.4548C44.6281 31.9888 44.7709 32.5384 44.8653 33.0973C44.9556 33.6627 45.0007 34.2346 45 34.8072C44.9586 37.5405 43.8397 40.1463 41.8876 42.0559C39.9356 43.9654 37.3088 45.0237 34.5808 44.9996ZM10.3293 4.50019C8.78274 4.50612 7.30117 5.12435 6.20756 6.22014C5.11394 7.31593 4.49693 8.80044 4.49102 10.3501C4.49696 18.3444 7.66904 26.0096 13.3107 31.6625C18.9523 37.3153 26.6023 40.4937 34.5808 40.4997C36.1274 40.4937 37.609 39.8755 38.7026 38.7797C39.7962 37.6839 40.4132 36.1994 40.4192 34.6497V33.9073L30 31.4998L29.3488 32.7373C28.3383 34.6947 27.5973 36.1122 25.7111 35.3472C21.99 34.0127 18.6123 31.8644 15.8235 29.0583C13.0347 26.2523 10.9047 22.859 9.58832 19.125C8.77994 17.37 10.3069 16.56 12.238 15.5475L13.4731 14.94L11.0704 4.50019H10.3293Z" fill="#F4A251"/>
</svg>
